G75*
%MOIN*%
%OFA0B0*%
%FSLAX24Y24*%
%IPPOS*%
%LPD*%
%AMOC8*
5,1,8,0,0,1.08239X$1,22.5*
%
%ADD10R,0.0635X0.0635*%
%ADD11C,0.0635*%
%ADD12C,0.0107*%
%ADD13C,0.0330*%
%ADD14C,0.0867*%
%ADD15C,0.0820*%
%ADD16R,0.0356X0.0749*%
%ADD17R,0.0580X0.0300*%
%ADD18R,0.0300X0.0580*%
%ADD19R,0.0720X0.0720*%
%ADD20OC8,0.0720*%
%ADD21R,0.0730X0.0730*%
%ADD22C,0.0730*%
%ADD23C,0.0095*%
%ADD24R,0.0789X0.0710*%
%ADD25R,0.0352X0.0552*%
D10*
X003496Y002924D03*
X003496Y007124D03*
X015396Y005286D03*
X015396Y009486D03*
D11*
X015396Y008699D03*
X015396Y007911D03*
X015396Y007124D03*
X015396Y004499D03*
X015396Y003711D03*
X015396Y002924D03*
X003496Y003711D03*
X003496Y004499D03*
X003496Y005286D03*
X003496Y007911D03*
X003496Y008699D03*
X003496Y009486D03*
D12*
X004757Y009566D02*
X004757Y009244D01*
X004435Y009244D01*
X004435Y009566D01*
X004757Y009566D01*
X004757Y009351D02*
X004435Y009351D01*
X004435Y009458D02*
X004757Y009458D01*
X004757Y009565D02*
X004435Y009565D01*
X004757Y009844D02*
X004757Y010166D01*
X004757Y009844D02*
X004435Y009844D01*
X004435Y010166D01*
X004757Y010166D01*
X004757Y009951D02*
X004435Y009951D01*
X004435Y010058D02*
X004757Y010058D01*
X004757Y010165D02*
X004435Y010165D01*
X003657Y010844D02*
X003335Y010844D01*
X003335Y011166D01*
X003657Y011166D01*
X003657Y010844D01*
X003657Y010951D02*
X003335Y010951D01*
X003335Y011058D02*
X003657Y011058D01*
X003657Y011165D02*
X003335Y011165D01*
X003057Y010844D02*
X002735Y010844D01*
X002735Y011166D01*
X003057Y011166D01*
X003057Y010844D01*
X003057Y010951D02*
X002735Y010951D01*
X002735Y011058D02*
X003057Y011058D01*
X003057Y011165D02*
X002735Y011165D01*
X004435Y008966D02*
X004435Y008644D01*
X004435Y008966D02*
X004757Y008966D01*
X004757Y008644D01*
X004435Y008644D01*
X004435Y008751D02*
X004757Y008751D01*
X004757Y008858D02*
X004435Y008858D01*
X004435Y008965D02*
X004757Y008965D01*
X005757Y008966D02*
X005757Y008644D01*
X005435Y008644D01*
X005435Y008966D01*
X005757Y008966D01*
X005757Y008751D02*
X005435Y008751D01*
X005435Y008858D02*
X005757Y008858D01*
X005757Y008965D02*
X005435Y008965D01*
X005757Y008366D02*
X005757Y008044D01*
X005435Y008044D01*
X005435Y008366D01*
X005757Y008366D01*
X005757Y008151D02*
X005435Y008151D01*
X005435Y008258D02*
X005757Y008258D01*
X005757Y008365D02*
X005435Y008365D01*
X004435Y008366D02*
X004435Y008044D01*
X004435Y008366D02*
X004757Y008366D01*
X004757Y008044D01*
X004435Y008044D01*
X004435Y008151D02*
X004757Y008151D01*
X004757Y008258D02*
X004435Y008258D01*
X004435Y008365D02*
X004757Y008365D01*
X004757Y007766D02*
X004757Y007444D01*
X004435Y007444D01*
X004435Y007766D01*
X004757Y007766D01*
X004757Y007551D02*
X004435Y007551D01*
X004435Y007658D02*
X004757Y007658D01*
X004757Y007765D02*
X004435Y007765D01*
X004757Y007166D02*
X004757Y006844D01*
X004435Y006844D01*
X004435Y007166D01*
X004757Y007166D01*
X004757Y006951D02*
X004435Y006951D01*
X004435Y007058D02*
X004757Y007058D01*
X004757Y007165D02*
X004435Y007165D01*
X004757Y005766D02*
X004757Y005444D01*
X004435Y005444D01*
X004435Y005766D01*
X004757Y005766D01*
X004757Y005551D02*
X004435Y005551D01*
X004435Y005658D02*
X004757Y005658D01*
X004757Y005765D02*
X004435Y005765D01*
X004757Y005166D02*
X004757Y004844D01*
X004435Y004844D01*
X004435Y005166D01*
X004757Y005166D01*
X004757Y004951D02*
X004435Y004951D01*
X004435Y005058D02*
X004757Y005058D01*
X004757Y005165D02*
X004435Y005165D01*
X004757Y004566D02*
X004757Y004244D01*
X004435Y004244D01*
X004435Y004566D01*
X004757Y004566D01*
X004757Y004351D02*
X004435Y004351D01*
X004435Y004458D02*
X004757Y004458D01*
X004757Y004565D02*
X004435Y004565D01*
X004757Y003966D02*
X004757Y003644D01*
X004435Y003644D01*
X004435Y003966D01*
X004757Y003966D01*
X004757Y003751D02*
X004435Y003751D01*
X004435Y003858D02*
X004757Y003858D01*
X004757Y003965D02*
X004435Y003965D01*
X004435Y003366D02*
X004435Y003044D01*
X004435Y003366D02*
X004757Y003366D01*
X004757Y003044D01*
X004435Y003044D01*
X004435Y003151D02*
X004757Y003151D01*
X004757Y003258D02*
X004435Y003258D01*
X004435Y003365D02*
X004757Y003365D01*
X005435Y003366D02*
X005435Y003044D01*
X005435Y003366D02*
X005757Y003366D01*
X005757Y003044D01*
X005435Y003044D01*
X005435Y003151D02*
X005757Y003151D01*
X005757Y003258D02*
X005435Y003258D01*
X005435Y003365D02*
X005757Y003365D01*
X005435Y003644D02*
X005435Y003966D01*
X005757Y003966D01*
X005757Y003644D01*
X005435Y003644D01*
X005435Y003751D02*
X005757Y003751D01*
X005757Y003858D02*
X005435Y003858D01*
X005435Y003965D02*
X005757Y003965D01*
X005435Y004244D02*
X005435Y004566D01*
X005757Y004566D01*
X005757Y004244D01*
X005435Y004244D01*
X005435Y004351D02*
X005757Y004351D01*
X005757Y004458D02*
X005435Y004458D01*
X005435Y004565D02*
X005757Y004565D01*
X005757Y004844D02*
X005757Y005166D01*
X005757Y004844D02*
X005435Y004844D01*
X005435Y005166D01*
X005757Y005166D01*
X005757Y004951D02*
X005435Y004951D01*
X005435Y005058D02*
X005757Y005058D01*
X005757Y005165D02*
X005435Y005165D01*
X005757Y005444D02*
X005757Y005766D01*
X005757Y005444D02*
X005435Y005444D01*
X005435Y005766D01*
X005757Y005766D01*
X005757Y005551D02*
X005435Y005551D01*
X005435Y005658D02*
X005757Y005658D01*
X005757Y005765D02*
X005435Y005765D01*
X006635Y005766D02*
X006635Y005444D01*
X006635Y005766D02*
X006957Y005766D01*
X006957Y005444D01*
X006635Y005444D01*
X006635Y005551D02*
X006957Y005551D01*
X006957Y005658D02*
X006635Y005658D01*
X006635Y005765D02*
X006957Y005765D01*
X006635Y005166D02*
X006635Y004844D01*
X006635Y005166D02*
X006957Y005166D01*
X006957Y004844D01*
X006635Y004844D01*
X006635Y004951D02*
X006957Y004951D01*
X006957Y005058D02*
X006635Y005058D01*
X006635Y005165D02*
X006957Y005165D01*
X006635Y004566D02*
X006635Y004244D01*
X006635Y004566D02*
X006957Y004566D01*
X006957Y004244D01*
X006635Y004244D01*
X006635Y004351D02*
X006957Y004351D01*
X006957Y004458D02*
X006635Y004458D01*
X006635Y004565D02*
X006957Y004565D01*
X006635Y003966D02*
X006635Y003644D01*
X006635Y003966D02*
X006957Y003966D01*
X006957Y003644D01*
X006635Y003644D01*
X006635Y003751D02*
X006957Y003751D01*
X006957Y003858D02*
X006635Y003858D01*
X006635Y003965D02*
X006957Y003965D01*
X006635Y003366D02*
X006635Y003044D01*
X006635Y003366D02*
X006957Y003366D01*
X006957Y003044D01*
X006635Y003044D01*
X006635Y003151D02*
X006957Y003151D01*
X006957Y003258D02*
X006635Y003258D01*
X006635Y003365D02*
X006957Y003365D01*
X007657Y003366D02*
X007657Y003044D01*
X007335Y003044D01*
X007335Y003366D01*
X007657Y003366D01*
X007657Y003151D02*
X007335Y003151D01*
X007335Y003258D02*
X007657Y003258D01*
X007657Y003365D02*
X007335Y003365D01*
X007657Y002766D02*
X007657Y002444D01*
X007335Y002444D01*
X007335Y002766D01*
X007657Y002766D01*
X007657Y002551D02*
X007335Y002551D01*
X007335Y002658D02*
X007657Y002658D01*
X007657Y002765D02*
X007335Y002765D01*
X006635Y002766D02*
X006635Y002444D01*
X006635Y002766D02*
X006957Y002766D01*
X006957Y002444D01*
X006635Y002444D01*
X006635Y002551D02*
X006957Y002551D01*
X006957Y002658D02*
X006635Y002658D01*
X006635Y002765D02*
X006957Y002765D01*
X005435Y002766D02*
X005435Y002444D01*
X005435Y002766D02*
X005757Y002766D01*
X005757Y002444D01*
X005435Y002444D01*
X005435Y002551D02*
X005757Y002551D01*
X005757Y002658D02*
X005435Y002658D01*
X005435Y002765D02*
X005757Y002765D01*
X004435Y002766D02*
X004435Y002444D01*
X004435Y002766D02*
X004757Y002766D01*
X004757Y002444D01*
X004435Y002444D01*
X004435Y002551D02*
X004757Y002551D01*
X004757Y002658D02*
X004435Y002658D01*
X004435Y002765D02*
X004757Y002765D01*
X006635Y006744D02*
X006635Y007066D01*
X006957Y007066D01*
X006957Y006744D01*
X006635Y006744D01*
X006635Y006851D02*
X006957Y006851D01*
X006957Y006958D02*
X006635Y006958D01*
X006635Y007065D02*
X006957Y007065D01*
X006635Y007344D02*
X006635Y007666D01*
X006957Y007666D01*
X006957Y007344D01*
X006635Y007344D01*
X006635Y007451D02*
X006957Y007451D01*
X006957Y007558D02*
X006635Y007558D01*
X006635Y007665D02*
X006957Y007665D01*
X012657Y006766D02*
X012657Y006444D01*
X012335Y006444D01*
X012335Y006766D01*
X012657Y006766D01*
X012657Y006551D02*
X012335Y006551D01*
X012335Y006658D02*
X012657Y006658D01*
X012657Y006765D02*
X012335Y006765D01*
X012657Y006166D02*
X012657Y005844D01*
X012335Y005844D01*
X012335Y006166D01*
X012657Y006166D01*
X012657Y005951D02*
X012335Y005951D01*
X012335Y006058D02*
X012657Y006058D01*
X012657Y006165D02*
X012335Y006165D01*
X014357Y005866D02*
X014357Y005544D01*
X014035Y005544D01*
X014035Y005866D01*
X014357Y005866D01*
X014357Y005651D02*
X014035Y005651D01*
X014035Y005758D02*
X014357Y005758D01*
X014357Y005865D02*
X014035Y005865D01*
X014357Y005266D02*
X014357Y004944D01*
X014035Y004944D01*
X014035Y005266D01*
X014357Y005266D01*
X014357Y005051D02*
X014035Y005051D01*
X014035Y005158D02*
X014357Y005158D01*
X014357Y005265D02*
X014035Y005265D01*
X014035Y004666D02*
X014035Y004344D01*
X014035Y004666D02*
X014357Y004666D01*
X014357Y004344D01*
X014035Y004344D01*
X014035Y004451D02*
X014357Y004451D01*
X014357Y004558D02*
X014035Y004558D01*
X014035Y004665D02*
X014357Y004665D01*
X014035Y004066D02*
X014035Y003744D01*
X014035Y004066D02*
X014357Y004066D01*
X014357Y003744D01*
X014035Y003744D01*
X014035Y003851D02*
X014357Y003851D01*
X014357Y003958D02*
X014035Y003958D01*
X014035Y004065D02*
X014357Y004065D01*
X014035Y003466D02*
X014035Y003144D01*
X014035Y003466D02*
X014357Y003466D01*
X014357Y003144D01*
X014035Y003144D01*
X014035Y003251D02*
X014357Y003251D01*
X014357Y003358D02*
X014035Y003358D01*
X014035Y003465D02*
X014357Y003465D01*
X014035Y002866D02*
X014035Y002544D01*
X014035Y002866D02*
X014357Y002866D01*
X014357Y002544D01*
X014035Y002544D01*
X014035Y002651D02*
X014357Y002651D01*
X014357Y002758D02*
X014035Y002758D01*
X014035Y002865D02*
X014357Y002865D01*
X014357Y006644D02*
X014357Y006966D01*
X014357Y006644D02*
X014035Y006644D01*
X014035Y006966D01*
X014357Y006966D01*
X014357Y006751D02*
X014035Y006751D01*
X014035Y006858D02*
X014357Y006858D01*
X014357Y006965D02*
X014035Y006965D01*
X014357Y007244D02*
X014357Y007566D01*
X014357Y007244D02*
X014035Y007244D01*
X014035Y007566D01*
X014357Y007566D01*
X014357Y007351D02*
X014035Y007351D01*
X014035Y007458D02*
X014357Y007458D01*
X014357Y007565D02*
X014035Y007565D01*
X014035Y007844D02*
X014035Y008166D01*
X014357Y008166D01*
X014357Y007844D01*
X014035Y007844D01*
X014035Y007951D02*
X014357Y007951D01*
X014357Y008058D02*
X014035Y008058D01*
X014035Y008165D02*
X014357Y008165D01*
X014035Y008444D02*
X014035Y008766D01*
X014357Y008766D01*
X014357Y008444D01*
X014035Y008444D01*
X014035Y008551D02*
X014357Y008551D01*
X014357Y008658D02*
X014035Y008658D01*
X014035Y008765D02*
X014357Y008765D01*
X014357Y009044D02*
X014357Y009366D01*
X014357Y009044D02*
X014035Y009044D01*
X014035Y009366D01*
X014357Y009366D01*
X014357Y009151D02*
X014035Y009151D01*
X014035Y009258D02*
X014357Y009258D01*
X014357Y009365D02*
X014035Y009365D01*
X014357Y009644D02*
X014357Y009966D01*
X014357Y009644D02*
X014035Y009644D01*
X014035Y009966D01*
X014357Y009966D01*
X014357Y009751D02*
X014035Y009751D01*
X014035Y009858D02*
X014357Y009858D01*
X014357Y009965D02*
X014035Y009965D01*
X015935Y011166D02*
X016257Y011166D01*
X016257Y010844D01*
X015935Y010844D01*
X015935Y011166D01*
X015935Y010951D02*
X016257Y010951D01*
X016257Y011058D02*
X015935Y011058D01*
X015935Y011165D02*
X016257Y011165D01*
X016535Y011166D02*
X016857Y011166D01*
X016857Y010844D01*
X016535Y010844D01*
X016535Y011166D01*
X016535Y010951D02*
X016857Y010951D01*
X016857Y011058D02*
X016535Y011058D01*
X016535Y011165D02*
X016857Y011165D01*
D13*
X015596Y011405D03*
X002096Y011405D03*
X002096Y001205D03*
X015596Y001205D03*
D14*
X001446Y000955D03*
X001446Y011455D03*
X017446Y011455D03*
X017446Y000955D03*
D15*
X004796Y000705D03*
X003796Y000705D03*
X002796Y000705D03*
D16*
X011624Y008105D03*
X012096Y008105D03*
X012569Y008105D03*
D17*
X011586Y007307D03*
X011586Y006992D03*
X011586Y006677D03*
X011586Y006362D03*
X011586Y006048D03*
X011586Y005733D03*
X011586Y005418D03*
X011586Y005103D03*
X008206Y005103D03*
X008206Y005418D03*
X008206Y005733D03*
X008206Y006048D03*
X008206Y006362D03*
X008206Y006677D03*
X008206Y006992D03*
X008206Y007307D03*
D18*
X008794Y007895D03*
X009109Y007895D03*
X009424Y007895D03*
X009739Y007895D03*
X010054Y007895D03*
X010369Y007895D03*
X010684Y007895D03*
X010999Y007895D03*
X010999Y004515D03*
X010684Y004515D03*
X010369Y004515D03*
X010054Y004515D03*
X009739Y004515D03*
X009424Y004515D03*
X009109Y004515D03*
X008794Y004515D03*
D19*
X015296Y010705D03*
D20*
X014296Y010705D03*
X013296Y010705D03*
X012296Y010705D03*
X011296Y010705D03*
X010296Y010705D03*
X009296Y010705D03*
X008296Y010705D03*
X007296Y010705D03*
X006296Y010705D03*
X005296Y010705D03*
X004296Y010705D03*
X006296Y009605D03*
X007296Y009605D03*
X008296Y009605D03*
X008296Y001705D03*
X007296Y001705D03*
X006296Y001705D03*
X005296Y001705D03*
X004296Y001705D03*
X006296Y000705D03*
X007296Y000705D03*
X009296Y001705D03*
X010296Y001705D03*
X011296Y001705D03*
X012296Y001705D03*
X013296Y001705D03*
X014296Y001705D03*
X015296Y001705D03*
D21*
X014296Y000705D03*
D22*
X013296Y000705D03*
X012296Y000705D03*
X011296Y000705D03*
X010296Y000705D03*
X009296Y000705D03*
D23*
X003639Y011773D02*
X003353Y011773D01*
X003639Y011773D02*
X003639Y011437D01*
X003353Y011437D01*
X003353Y011773D01*
X003353Y011531D02*
X003639Y011531D01*
X003639Y011625D02*
X003353Y011625D01*
X003353Y011719D02*
X003639Y011719D01*
X003039Y011773D02*
X002753Y011773D01*
X003039Y011773D02*
X003039Y011437D01*
X002753Y011437D01*
X002753Y011773D01*
X002753Y011531D02*
X003039Y011531D01*
X003039Y011625D02*
X002753Y011625D01*
X002753Y011719D02*
X003039Y011719D01*
X015953Y011773D02*
X016239Y011773D01*
X016239Y011437D01*
X015953Y011437D01*
X015953Y011773D01*
X015953Y011531D02*
X016239Y011531D01*
X016239Y011625D02*
X015953Y011625D01*
X015953Y011719D02*
X016239Y011719D01*
X016553Y011773D02*
X016839Y011773D01*
X016839Y011437D01*
X016553Y011437D01*
X016553Y011773D01*
X016553Y011531D02*
X016839Y011531D01*
X016839Y011625D02*
X016553Y011625D01*
X016553Y011719D02*
X016839Y011719D01*
D24*
X012996Y004056D03*
X012996Y002954D03*
D25*
X006270Y006593D03*
X005896Y006593D03*
X005522Y006593D03*
X005522Y007617D03*
X006270Y007617D03*
M02*
