%
M48
M72
T01C0.0140
T02C0.0315
T03C0.0350
T04C0.0400
T05C0.0787
%
T01
X2096Y2205
X5096Y2305
X6196Y3805
X6196Y5005
X6196Y5605
X7296Y5205
X7696Y5605
X8796Y5805
X8796Y6305
X9996Y6105
X10996Y5705
X10496Y5105
X9096Y5105
X8196Y4705
X9196Y3905
X9596Y3605
X9996Y3405
X10369Y2977
X10696Y2605
X8896Y2605
X8296Y2305
X7996Y3305
X12596Y5105
X13196Y5205
X13496Y4705
X13796Y6305
X13196Y6705
X12196Y7405
X10996Y6705
X10696Y7205
X10196Y7205
X9696Y7305
X8696Y8405
X9096Y8805
X10096Y9605
X7796Y8005
X7296Y8405
X6196Y8805
X7696Y7405
X7296Y6705
X4078Y7405
X4096Y8105
X4096Y8805
X2096Y8705
X2596Y10405
X1596Y6405
X2096Y6005
X3196Y6005
X2096Y4505
X8796Y11405
X14696Y9205
X15996Y10505
X16696Y10005
X16696Y7905
X16196Y7205
X16696Y6405
X15496Y6405
X16696Y3705
X15096Y505
T02
X15396Y2924
X15396Y3711
X15396Y4499
X15396Y5286
X15396Y7124
X15396Y7911
X15396Y8699
X15396Y9486
X3496Y9486
X3496Y8699
X3496Y7911
X3496Y7124
X3496Y5286
X3496Y4499
X3496Y3711
X3496Y2924
T03
X9296Y705
X10296Y705
X11296Y705
X12296Y705
X13296Y705
X14296Y705
T04
X14296Y1705
X13296Y1705
X12296Y1705
X11296Y1705
X10296Y1705
X9296Y1705
X8296Y1705
X7296Y1705
X6296Y1705
X5296Y1705
X4296Y1705
X3796Y705
X4796Y705
X6296Y705
X7296Y705
X2796Y705
X15296Y1705
X8296Y9605
X7296Y9605
X6296Y9605
X6296Y10705
X5296Y10705
X4296Y10705
X7296Y10705
X8296Y10705
X9296Y10705
X10296Y10705
X11296Y10705
X12296Y10705
X13296Y10705
X14296Y10705
X15296Y10705
T05
X1446Y955
X1446Y11455
X17446Y11455
X17446Y955
M30
