G75*
%MOIN*%
%OFA0B0*%
%FSLAX24Y24*%
%IPPOS*%
%LPD*%
%AMOC8*
5,1,8,0,0,1.08239X$1,22.5*
%
%ADD10R,0.0555X0.0555*%
%ADD11C,0.0555*%
%ADD12C,0.0088*%
%ADD13C,0.0250*%
%ADD14C,0.0740*%
%ADD15R,0.0276X0.0669*%
%ADD16R,0.0500X0.0220*%
%ADD17R,0.0220X0.0500*%
%ADD18R,0.0640X0.0640*%
%ADD19OC8,0.0640*%
%ADD20R,0.0650X0.0650*%
%ADD21C,0.0650*%
%ADD22C,0.0075*%
%ADD23R,0.0709X0.0630*%
%ADD24R,0.0272X0.0472*%
%ADD25C,0.0340*%
%ADD26C,0.0240*%
%ADD27C,0.0100*%
%ADD28C,0.0320*%
%ADD29C,0.0070*%
%ADD30C,0.0120*%
%ADD31C,0.0160*%
D10*
X003496Y002924D03*
X003496Y007124D03*
X015396Y005286D03*
X015396Y009486D03*
D11*
X015396Y008699D03*
X015396Y007911D03*
X015396Y007124D03*
X015396Y004499D03*
X015396Y003711D03*
X015396Y002924D03*
X003496Y003711D03*
X003496Y004499D03*
X003496Y005286D03*
X003496Y007911D03*
X003496Y008699D03*
X003496Y009486D03*
D12*
X004727Y009536D02*
X004727Y009274D01*
X004465Y009274D01*
X004465Y009536D01*
X004727Y009536D01*
X004727Y009361D02*
X004465Y009361D01*
X004465Y009448D02*
X004727Y009448D01*
X004727Y009535D02*
X004465Y009535D01*
X004727Y009874D02*
X004727Y010136D01*
X004727Y009874D02*
X004465Y009874D01*
X004465Y010136D01*
X004727Y010136D01*
X004727Y009961D02*
X004465Y009961D01*
X004465Y010048D02*
X004727Y010048D01*
X004727Y010135D02*
X004465Y010135D01*
X003627Y010874D02*
X003365Y010874D01*
X003365Y011136D01*
X003627Y011136D01*
X003627Y010874D01*
X003627Y010961D02*
X003365Y010961D01*
X003365Y011048D02*
X003627Y011048D01*
X003627Y011135D02*
X003365Y011135D01*
X003027Y010874D02*
X002765Y010874D01*
X002765Y011136D01*
X003027Y011136D01*
X003027Y010874D01*
X003027Y010961D02*
X002765Y010961D01*
X002765Y011048D02*
X003027Y011048D01*
X003027Y011135D02*
X002765Y011135D01*
X004465Y008936D02*
X004465Y008674D01*
X004465Y008936D02*
X004727Y008936D01*
X004727Y008674D01*
X004465Y008674D01*
X004465Y008761D02*
X004727Y008761D01*
X004727Y008848D02*
X004465Y008848D01*
X004465Y008935D02*
X004727Y008935D01*
X005727Y008936D02*
X005727Y008674D01*
X005465Y008674D01*
X005465Y008936D01*
X005727Y008936D01*
X005727Y008761D02*
X005465Y008761D01*
X005465Y008848D02*
X005727Y008848D01*
X005727Y008935D02*
X005465Y008935D01*
X005727Y008336D02*
X005727Y008074D01*
X005465Y008074D01*
X005465Y008336D01*
X005727Y008336D01*
X005727Y008161D02*
X005465Y008161D01*
X005465Y008248D02*
X005727Y008248D01*
X005727Y008335D02*
X005465Y008335D01*
X004465Y008336D02*
X004465Y008074D01*
X004465Y008336D02*
X004727Y008336D01*
X004727Y008074D01*
X004465Y008074D01*
X004465Y008161D02*
X004727Y008161D01*
X004727Y008248D02*
X004465Y008248D01*
X004465Y008335D02*
X004727Y008335D01*
X004727Y007736D02*
X004727Y007474D01*
X004465Y007474D01*
X004465Y007736D01*
X004727Y007736D01*
X004727Y007561D02*
X004465Y007561D01*
X004465Y007648D02*
X004727Y007648D01*
X004727Y007735D02*
X004465Y007735D01*
X004727Y007136D02*
X004727Y006874D01*
X004465Y006874D01*
X004465Y007136D01*
X004727Y007136D01*
X004727Y006961D02*
X004465Y006961D01*
X004465Y007048D02*
X004727Y007048D01*
X004727Y007135D02*
X004465Y007135D01*
X004727Y005736D02*
X004727Y005474D01*
X004465Y005474D01*
X004465Y005736D01*
X004727Y005736D01*
X004727Y005561D02*
X004465Y005561D01*
X004465Y005648D02*
X004727Y005648D01*
X004727Y005735D02*
X004465Y005735D01*
X004727Y005136D02*
X004727Y004874D01*
X004465Y004874D01*
X004465Y005136D01*
X004727Y005136D01*
X004727Y004961D02*
X004465Y004961D01*
X004465Y005048D02*
X004727Y005048D01*
X004727Y005135D02*
X004465Y005135D01*
X004727Y004536D02*
X004727Y004274D01*
X004465Y004274D01*
X004465Y004536D01*
X004727Y004536D01*
X004727Y004361D02*
X004465Y004361D01*
X004465Y004448D02*
X004727Y004448D01*
X004727Y004535D02*
X004465Y004535D01*
X004727Y003936D02*
X004727Y003674D01*
X004465Y003674D01*
X004465Y003936D01*
X004727Y003936D01*
X004727Y003761D02*
X004465Y003761D01*
X004465Y003848D02*
X004727Y003848D01*
X004727Y003935D02*
X004465Y003935D01*
X004465Y003336D02*
X004465Y003074D01*
X004465Y003336D02*
X004727Y003336D01*
X004727Y003074D01*
X004465Y003074D01*
X004465Y003161D02*
X004727Y003161D01*
X004727Y003248D02*
X004465Y003248D01*
X004465Y003335D02*
X004727Y003335D01*
X005465Y003336D02*
X005465Y003074D01*
X005465Y003336D02*
X005727Y003336D01*
X005727Y003074D01*
X005465Y003074D01*
X005465Y003161D02*
X005727Y003161D01*
X005727Y003248D02*
X005465Y003248D01*
X005465Y003335D02*
X005727Y003335D01*
X005465Y003674D02*
X005465Y003936D01*
X005727Y003936D01*
X005727Y003674D01*
X005465Y003674D01*
X005465Y003761D02*
X005727Y003761D01*
X005727Y003848D02*
X005465Y003848D01*
X005465Y003935D02*
X005727Y003935D01*
X005465Y004274D02*
X005465Y004536D01*
X005727Y004536D01*
X005727Y004274D01*
X005465Y004274D01*
X005465Y004361D02*
X005727Y004361D01*
X005727Y004448D02*
X005465Y004448D01*
X005465Y004535D02*
X005727Y004535D01*
X005727Y004874D02*
X005727Y005136D01*
X005727Y004874D02*
X005465Y004874D01*
X005465Y005136D01*
X005727Y005136D01*
X005727Y004961D02*
X005465Y004961D01*
X005465Y005048D02*
X005727Y005048D01*
X005727Y005135D02*
X005465Y005135D01*
X005727Y005474D02*
X005727Y005736D01*
X005727Y005474D02*
X005465Y005474D01*
X005465Y005736D01*
X005727Y005736D01*
X005727Y005561D02*
X005465Y005561D01*
X005465Y005648D02*
X005727Y005648D01*
X005727Y005735D02*
X005465Y005735D01*
X006665Y005736D02*
X006665Y005474D01*
X006665Y005736D02*
X006927Y005736D01*
X006927Y005474D01*
X006665Y005474D01*
X006665Y005561D02*
X006927Y005561D01*
X006927Y005648D02*
X006665Y005648D01*
X006665Y005735D02*
X006927Y005735D01*
X006665Y005136D02*
X006665Y004874D01*
X006665Y005136D02*
X006927Y005136D01*
X006927Y004874D01*
X006665Y004874D01*
X006665Y004961D02*
X006927Y004961D01*
X006927Y005048D02*
X006665Y005048D01*
X006665Y005135D02*
X006927Y005135D01*
X006665Y004536D02*
X006665Y004274D01*
X006665Y004536D02*
X006927Y004536D01*
X006927Y004274D01*
X006665Y004274D01*
X006665Y004361D02*
X006927Y004361D01*
X006927Y004448D02*
X006665Y004448D01*
X006665Y004535D02*
X006927Y004535D01*
X006665Y003936D02*
X006665Y003674D01*
X006665Y003936D02*
X006927Y003936D01*
X006927Y003674D01*
X006665Y003674D01*
X006665Y003761D02*
X006927Y003761D01*
X006927Y003848D02*
X006665Y003848D01*
X006665Y003935D02*
X006927Y003935D01*
X006665Y003336D02*
X006665Y003074D01*
X006665Y003336D02*
X006927Y003336D01*
X006927Y003074D01*
X006665Y003074D01*
X006665Y003161D02*
X006927Y003161D01*
X006927Y003248D02*
X006665Y003248D01*
X006665Y003335D02*
X006927Y003335D01*
X007627Y003336D02*
X007627Y003074D01*
X007365Y003074D01*
X007365Y003336D01*
X007627Y003336D01*
X007627Y003161D02*
X007365Y003161D01*
X007365Y003248D02*
X007627Y003248D01*
X007627Y003335D02*
X007365Y003335D01*
X007627Y002736D02*
X007627Y002474D01*
X007365Y002474D01*
X007365Y002736D01*
X007627Y002736D01*
X007627Y002561D02*
X007365Y002561D01*
X007365Y002648D02*
X007627Y002648D01*
X007627Y002735D02*
X007365Y002735D01*
X006665Y002736D02*
X006665Y002474D01*
X006665Y002736D02*
X006927Y002736D01*
X006927Y002474D01*
X006665Y002474D01*
X006665Y002561D02*
X006927Y002561D01*
X006927Y002648D02*
X006665Y002648D01*
X006665Y002735D02*
X006927Y002735D01*
X005465Y002736D02*
X005465Y002474D01*
X005465Y002736D02*
X005727Y002736D01*
X005727Y002474D01*
X005465Y002474D01*
X005465Y002561D02*
X005727Y002561D01*
X005727Y002648D02*
X005465Y002648D01*
X005465Y002735D02*
X005727Y002735D01*
X004465Y002736D02*
X004465Y002474D01*
X004465Y002736D02*
X004727Y002736D01*
X004727Y002474D01*
X004465Y002474D01*
X004465Y002561D02*
X004727Y002561D01*
X004727Y002648D02*
X004465Y002648D01*
X004465Y002735D02*
X004727Y002735D01*
X006665Y006774D02*
X006665Y007036D01*
X006927Y007036D01*
X006927Y006774D01*
X006665Y006774D01*
X006665Y006861D02*
X006927Y006861D01*
X006927Y006948D02*
X006665Y006948D01*
X006665Y007035D02*
X006927Y007035D01*
X006665Y007374D02*
X006665Y007636D01*
X006927Y007636D01*
X006927Y007374D01*
X006665Y007374D01*
X006665Y007461D02*
X006927Y007461D01*
X006927Y007548D02*
X006665Y007548D01*
X006665Y007635D02*
X006927Y007635D01*
X012627Y006736D02*
X012627Y006474D01*
X012365Y006474D01*
X012365Y006736D01*
X012627Y006736D01*
X012627Y006561D02*
X012365Y006561D01*
X012365Y006648D02*
X012627Y006648D01*
X012627Y006735D02*
X012365Y006735D01*
X012627Y006136D02*
X012627Y005874D01*
X012365Y005874D01*
X012365Y006136D01*
X012627Y006136D01*
X012627Y005961D02*
X012365Y005961D01*
X012365Y006048D02*
X012627Y006048D01*
X012627Y006135D02*
X012365Y006135D01*
X014327Y005836D02*
X014327Y005574D01*
X014065Y005574D01*
X014065Y005836D01*
X014327Y005836D01*
X014327Y005661D02*
X014065Y005661D01*
X014065Y005748D02*
X014327Y005748D01*
X014327Y005835D02*
X014065Y005835D01*
X014327Y005236D02*
X014327Y004974D01*
X014065Y004974D01*
X014065Y005236D01*
X014327Y005236D01*
X014327Y005061D02*
X014065Y005061D01*
X014065Y005148D02*
X014327Y005148D01*
X014327Y005235D02*
X014065Y005235D01*
X014065Y004636D02*
X014065Y004374D01*
X014065Y004636D02*
X014327Y004636D01*
X014327Y004374D01*
X014065Y004374D01*
X014065Y004461D02*
X014327Y004461D01*
X014327Y004548D02*
X014065Y004548D01*
X014065Y004635D02*
X014327Y004635D01*
X014065Y004036D02*
X014065Y003774D01*
X014065Y004036D02*
X014327Y004036D01*
X014327Y003774D01*
X014065Y003774D01*
X014065Y003861D02*
X014327Y003861D01*
X014327Y003948D02*
X014065Y003948D01*
X014065Y004035D02*
X014327Y004035D01*
X014065Y003436D02*
X014065Y003174D01*
X014065Y003436D02*
X014327Y003436D01*
X014327Y003174D01*
X014065Y003174D01*
X014065Y003261D02*
X014327Y003261D01*
X014327Y003348D02*
X014065Y003348D01*
X014065Y003435D02*
X014327Y003435D01*
X014065Y002836D02*
X014065Y002574D01*
X014065Y002836D02*
X014327Y002836D01*
X014327Y002574D01*
X014065Y002574D01*
X014065Y002661D02*
X014327Y002661D01*
X014327Y002748D02*
X014065Y002748D01*
X014065Y002835D02*
X014327Y002835D01*
X014327Y006674D02*
X014327Y006936D01*
X014327Y006674D02*
X014065Y006674D01*
X014065Y006936D01*
X014327Y006936D01*
X014327Y006761D02*
X014065Y006761D01*
X014065Y006848D02*
X014327Y006848D01*
X014327Y006935D02*
X014065Y006935D01*
X014327Y007274D02*
X014327Y007536D01*
X014327Y007274D02*
X014065Y007274D01*
X014065Y007536D01*
X014327Y007536D01*
X014327Y007361D02*
X014065Y007361D01*
X014065Y007448D02*
X014327Y007448D01*
X014327Y007535D02*
X014065Y007535D01*
X014065Y007874D02*
X014065Y008136D01*
X014327Y008136D01*
X014327Y007874D01*
X014065Y007874D01*
X014065Y007961D02*
X014327Y007961D01*
X014327Y008048D02*
X014065Y008048D01*
X014065Y008135D02*
X014327Y008135D01*
X014065Y008474D02*
X014065Y008736D01*
X014327Y008736D01*
X014327Y008474D01*
X014065Y008474D01*
X014065Y008561D02*
X014327Y008561D01*
X014327Y008648D02*
X014065Y008648D01*
X014065Y008735D02*
X014327Y008735D01*
X014327Y009074D02*
X014327Y009336D01*
X014327Y009074D02*
X014065Y009074D01*
X014065Y009336D01*
X014327Y009336D01*
X014327Y009161D02*
X014065Y009161D01*
X014065Y009248D02*
X014327Y009248D01*
X014327Y009335D02*
X014065Y009335D01*
X014327Y009674D02*
X014327Y009936D01*
X014327Y009674D02*
X014065Y009674D01*
X014065Y009936D01*
X014327Y009936D01*
X014327Y009761D02*
X014065Y009761D01*
X014065Y009848D02*
X014327Y009848D01*
X014327Y009935D02*
X014065Y009935D01*
X015965Y011136D02*
X016227Y011136D01*
X016227Y010874D01*
X015965Y010874D01*
X015965Y011136D01*
X015965Y010961D02*
X016227Y010961D01*
X016227Y011048D02*
X015965Y011048D01*
X015965Y011135D02*
X016227Y011135D01*
X016565Y011136D02*
X016827Y011136D01*
X016827Y010874D01*
X016565Y010874D01*
X016565Y011136D01*
X016565Y010961D02*
X016827Y010961D01*
X016827Y011048D02*
X016565Y011048D01*
X016565Y011135D02*
X016827Y011135D01*
D13*
X002096Y001205D03*
X015596Y001205D03*
X015596Y011405D03*
X002096Y011405D03*
D14*
X002796Y000705D03*
X003796Y000705D03*
X004796Y000705D03*
D15*
X011624Y008105D03*
X012096Y008105D03*
X012569Y008105D03*
D16*
X011586Y007307D03*
X011586Y006992D03*
X011586Y006677D03*
X011586Y006362D03*
X011586Y006048D03*
X011586Y005733D03*
X011586Y005418D03*
X011586Y005103D03*
X008206Y005103D03*
X008206Y005418D03*
X008206Y005733D03*
X008206Y006048D03*
X008206Y006362D03*
X008206Y006677D03*
X008206Y006992D03*
X008206Y007307D03*
D17*
X008794Y007895D03*
X009109Y007895D03*
X009424Y007895D03*
X009739Y007895D03*
X010054Y007895D03*
X010369Y007895D03*
X010684Y007895D03*
X010999Y007895D03*
X010999Y004515D03*
X010684Y004515D03*
X010369Y004515D03*
X010054Y004515D03*
X009739Y004515D03*
X009424Y004515D03*
X009109Y004515D03*
X008794Y004515D03*
D18*
X015296Y010705D03*
D19*
X014296Y010705D03*
X013296Y010705D03*
X012296Y010705D03*
X011296Y010705D03*
X010296Y010705D03*
X009296Y010705D03*
X008296Y010705D03*
X007296Y010705D03*
X006296Y010705D03*
X005296Y010705D03*
X004296Y010705D03*
X006296Y009605D03*
X007296Y009605D03*
X008296Y009605D03*
X008296Y001705D03*
X007296Y001705D03*
X006296Y001705D03*
X005296Y001705D03*
X004296Y001705D03*
X006296Y000705D03*
X007296Y000705D03*
X009296Y001705D03*
X010296Y001705D03*
X011296Y001705D03*
X012296Y001705D03*
X013296Y001705D03*
X014296Y001705D03*
X015296Y001705D03*
D20*
X014296Y000705D03*
D21*
X013296Y000705D03*
X012296Y000705D03*
X011296Y000705D03*
X010296Y000705D03*
X009296Y000705D03*
D22*
X003609Y011743D02*
X003383Y011743D01*
X003609Y011743D02*
X003609Y011467D01*
X003383Y011467D01*
X003383Y011743D01*
X003383Y011541D02*
X003609Y011541D01*
X003609Y011615D02*
X003383Y011615D01*
X003383Y011689D02*
X003609Y011689D01*
X003009Y011743D02*
X002783Y011743D01*
X003009Y011743D02*
X003009Y011467D01*
X002783Y011467D01*
X002783Y011743D01*
X002783Y011541D02*
X003009Y011541D01*
X003009Y011615D02*
X002783Y011615D01*
X002783Y011689D02*
X003009Y011689D01*
X015983Y011743D02*
X016209Y011743D01*
X016209Y011467D01*
X015983Y011467D01*
X015983Y011743D01*
X015983Y011541D02*
X016209Y011541D01*
X016209Y011615D02*
X015983Y011615D01*
X015983Y011689D02*
X016209Y011689D01*
X016583Y011743D02*
X016809Y011743D01*
X016809Y011467D01*
X016583Y011467D01*
X016583Y011743D01*
X016583Y011541D02*
X016809Y011541D01*
X016809Y011615D02*
X016583Y011615D01*
X016583Y011689D02*
X016809Y011689D01*
D23*
X012996Y004056D03*
X012996Y002954D03*
D24*
X006270Y006593D03*
X005896Y006593D03*
X005522Y006593D03*
X005522Y007617D03*
X006270Y007617D03*
D25*
X007296Y008405D03*
X007796Y008005D03*
X007696Y007405D03*
X007296Y006705D03*
X008796Y006305D03*
X008796Y005805D03*
X009096Y005105D03*
X008196Y004705D03*
X007296Y005205D03*
X007696Y005605D03*
X006196Y005605D03*
X006196Y005005D03*
X006196Y003805D03*
X007996Y003305D03*
X008896Y002605D03*
X008296Y002305D03*
X009996Y003405D03*
X009596Y003605D03*
X009196Y003905D03*
X010369Y002977D03*
X010696Y002605D03*
X013496Y004705D03*
X013196Y005205D03*
X012596Y005105D03*
X010996Y005705D03*
X010496Y005105D03*
X009996Y006105D03*
X010996Y006705D03*
X010696Y007205D03*
X010196Y007205D03*
X009696Y007305D03*
X008696Y008405D03*
X009096Y008805D03*
X010096Y009605D03*
X008796Y011405D03*
X006196Y008805D03*
X004096Y008805D03*
X004096Y008105D03*
X004078Y007405D03*
X002096Y008705D03*
X002596Y010405D03*
X001596Y006405D03*
X002096Y006005D03*
X003196Y006005D03*
X002096Y004505D03*
X002096Y002205D03*
X005096Y002305D03*
X012196Y007405D03*
X013196Y006705D03*
X013796Y006305D03*
X015496Y006405D03*
X016196Y007205D03*
X016696Y007905D03*
X016696Y006405D03*
X014696Y009205D03*
X015996Y010505D03*
X016696Y010005D03*
X016696Y003705D03*
X015096Y000505D03*
D26*
X014196Y002705D02*
X013096Y002705D01*
X012996Y002805D01*
X012996Y002954D01*
X013696Y003405D02*
X013696Y003905D01*
X013596Y004005D01*
X013048Y004005D01*
X012996Y004056D01*
X012996Y003905D01*
X013696Y003405D02*
X013796Y003305D01*
X014196Y003305D01*
X014796Y003305D01*
X015203Y003711D01*
X015396Y003711D01*
X012496Y005805D02*
X012424Y005733D01*
X011996Y005733D01*
X012096Y005833D01*
X012096Y006305D01*
X012039Y006362D01*
X011586Y006362D01*
X011586Y005733D02*
X011024Y005733D01*
X011586Y005733D02*
X011996Y005733D01*
X012496Y005805D02*
X012496Y006005D01*
X014196Y006805D02*
X014696Y006805D01*
X015096Y006405D01*
X015496Y006405D01*
X015396Y007124D02*
X015115Y007405D01*
X014196Y007405D01*
X015303Y008005D02*
X015396Y007911D01*
X012196Y007405D02*
X012096Y007505D01*
X012096Y008105D01*
X008206Y006992D02*
X007584Y006992D01*
X007296Y006705D01*
X006796Y006905D02*
X006796Y006105D01*
X006854Y006048D01*
X007206Y006048D01*
X008206Y006048D01*
X007296Y005505D02*
X007196Y005605D01*
X006796Y005605D01*
X006196Y005605D01*
X005596Y005605D01*
X005096Y005853D02*
X005522Y006279D01*
X005522Y006593D01*
X005522Y006279D02*
X005696Y006105D01*
X006196Y006105D01*
X006270Y006179D01*
X006270Y006593D01*
X006596Y007105D02*
X006796Y006905D01*
X006596Y007105D02*
X005896Y007105D01*
X005896Y008105D01*
X005796Y008205D01*
X005596Y008205D01*
X005196Y008705D02*
X005196Y007625D01*
X005196Y006605D01*
X004996Y006405D01*
X005096Y005853D02*
X005096Y005005D01*
X005596Y005005D01*
X005096Y005005D02*
X005096Y003205D01*
X005596Y003205D01*
X005596Y003805D01*
X005096Y003205D02*
X005096Y002305D01*
X004596Y002605D02*
X004396Y002405D01*
X003996Y002405D01*
X003696Y002105D01*
X003496Y002924D02*
X004015Y002924D01*
X004296Y003205D01*
X004596Y003205D01*
X004596Y003805D02*
X003590Y003805D01*
X003496Y003711D01*
X004203Y004499D02*
X004296Y004405D01*
X004596Y004405D01*
X004596Y005005D01*
X004596Y005605D02*
X003496Y005605D01*
X003496Y005286D01*
X003496Y004499D02*
X004203Y004499D01*
X005596Y004405D02*
X006796Y004405D01*
X007196Y004405D01*
X007296Y004505D01*
X007296Y005205D01*
X007296Y005505D01*
X006796Y005605D02*
X006796Y006105D01*
X006796Y005005D02*
X006196Y005005D01*
X005596Y002605D02*
X005596Y002005D01*
X005296Y001705D01*
X006796Y007505D02*
X006685Y007617D01*
X006270Y007617D01*
X005196Y008705D02*
X005296Y008805D01*
X005396Y008805D01*
X005296Y008905D01*
X005296Y010705D01*
X004596Y009405D02*
X004196Y009405D01*
X004096Y009305D01*
X004096Y008805D01*
X003603Y008805D01*
X003496Y008699D01*
X005396Y008805D02*
X005596Y008805D01*
D27*
X005921Y008633D02*
X005925Y008624D01*
X006015Y008534D01*
X006133Y008485D01*
X006260Y008485D01*
X006366Y008529D01*
X006366Y008010D01*
X006373Y008003D01*
X006073Y008003D01*
X005985Y007915D01*
X005985Y007318D01*
X006073Y007231D01*
X006468Y007231D01*
X006501Y007264D01*
X006585Y007180D01*
X006587Y007180D01*
X006565Y007167D01*
X006534Y007137D01*
X006513Y007099D01*
X006501Y007058D01*
X006501Y006946D01*
X006468Y006979D01*
X005466Y006979D01*
X005466Y007231D01*
X005720Y007231D01*
X005808Y007318D01*
X005808Y007915D01*
X005798Y007925D01*
X005828Y007943D01*
X005859Y007973D01*
X005880Y008011D01*
X005891Y008052D01*
X005891Y008167D01*
X005634Y008167D01*
X005634Y008243D01*
X005891Y008243D01*
X005891Y008358D01*
X005880Y008399D01*
X005859Y008437D01*
X005828Y008467D01*
X005806Y008480D01*
X005808Y008480D01*
X005921Y008593D01*
X005921Y008633D01*
X005921Y008605D02*
X005944Y008605D01*
X005896Y008568D02*
X005896Y006979D01*
X005796Y006979D02*
X005796Y007307D01*
X005795Y007305D02*
X005998Y007305D01*
X005996Y007307D02*
X005996Y006979D01*
X006096Y006979D02*
X006096Y007231D01*
X006196Y007231D02*
X006196Y006979D01*
X006296Y006979D02*
X006296Y007231D01*
X006396Y007231D02*
X006396Y006979D01*
X006496Y006951D02*
X006496Y007259D01*
X006560Y007205D02*
X005466Y007205D01*
X005496Y007231D02*
X005496Y006979D01*
X005466Y007005D02*
X006501Y007005D01*
X006516Y007105D02*
X005466Y007105D01*
X005596Y006979D02*
X005596Y007231D01*
X005696Y007231D02*
X005696Y006979D01*
X005808Y007405D02*
X005985Y007405D01*
X005985Y007505D02*
X005808Y007505D01*
X005808Y007605D02*
X005985Y007605D01*
X005985Y007705D02*
X005808Y007705D01*
X005808Y007805D02*
X005985Y007805D01*
X005985Y007905D02*
X005808Y007905D01*
X005877Y008005D02*
X006371Y008005D01*
X006296Y008003D02*
X006296Y008500D01*
X006308Y008505D02*
X006366Y008505D01*
X006366Y008405D02*
X005877Y008405D01*
X005891Y008305D02*
X006366Y008305D01*
X006366Y008205D02*
X005634Y008205D01*
X005696Y008167D02*
X005696Y008243D01*
X005796Y008243D02*
X005796Y008167D01*
X005891Y008105D02*
X006366Y008105D01*
X006196Y008003D02*
X006196Y008485D01*
X006096Y008500D02*
X006096Y008003D01*
X005996Y007927D02*
X005996Y008552D01*
X006085Y008505D02*
X005833Y008505D01*
X006196Y008805D02*
X005696Y009305D01*
X005696Y010105D01*
X006296Y010705D01*
X006766Y010705D02*
X006826Y010705D01*
X006826Y010605D02*
X006766Y010605D01*
X006766Y010510D02*
X006766Y010900D01*
X006491Y011175D01*
X006102Y011175D01*
X005826Y010900D01*
X005826Y010518D01*
X005614Y010305D01*
X005566Y010305D01*
X005566Y010310D02*
X005766Y010510D01*
X005766Y010900D01*
X005491Y011175D01*
X005102Y011175D01*
X004826Y010900D01*
X004826Y010510D01*
X005026Y010310D01*
X005026Y008917D01*
X004968Y008858D01*
X004926Y008759D01*
X004926Y007783D01*
X004921Y007771D01*
X004921Y007817D01*
X004833Y007905D01*
X004926Y007905D01*
X004896Y007842D02*
X004896Y007968D01*
X004921Y007993D02*
X004833Y007905D01*
X004921Y007993D02*
X004921Y008417D01*
X004833Y008505D01*
X004926Y008505D01*
X004896Y008442D02*
X004896Y008568D01*
X004921Y008593D02*
X004833Y008505D01*
X004921Y008593D02*
X004921Y009017D01*
X004833Y009105D01*
X005026Y009105D01*
X005026Y009205D02*
X004921Y009205D01*
X004921Y009193D02*
X004921Y009617D01*
X004808Y009730D01*
X004806Y009730D01*
X004828Y009743D01*
X004859Y009773D01*
X004880Y009811D01*
X004891Y009852D01*
X004891Y009967D01*
X004634Y009967D01*
X004634Y010043D01*
X004559Y010043D01*
X004559Y010300D01*
X004514Y010300D01*
X004736Y010523D01*
X004736Y010655D01*
X004346Y010655D01*
X004346Y010265D01*
X004362Y010265D01*
X004334Y010237D01*
X004313Y010199D01*
X004301Y010158D01*
X004301Y010043D01*
X004559Y010043D01*
X004559Y009967D01*
X004317Y009967D01*
X003696Y010588D01*
X003696Y010680D01*
X003708Y010680D01*
X003821Y010793D01*
X003821Y011217D01*
X003722Y011316D01*
X003796Y011390D01*
X003796Y011820D01*
X003687Y011930D01*
X003306Y011930D01*
X003196Y011820D01*
X003196Y012025D01*
X003096Y012025D02*
X003096Y011874D01*
X003106Y011869D02*
X003070Y011889D01*
X003030Y011900D01*
X002996Y011900D01*
X002996Y012025D01*
X015896Y012025D01*
X015896Y011920D01*
X015796Y011820D01*
X015796Y012025D01*
X015696Y012025D02*
X015696Y011661D01*
X015651Y011680D02*
X015752Y011638D01*
X015796Y011594D01*
X015796Y011820D01*
X015796Y011805D02*
X003796Y011805D01*
X003796Y011705D02*
X015796Y011705D01*
X015785Y011605D02*
X015796Y011605D01*
X015651Y011680D02*
X015542Y011680D01*
X015441Y011638D01*
X015363Y011561D01*
X015321Y011460D01*
X015321Y011350D01*
X015363Y011249D01*
X015438Y011175D01*
X014914Y011175D01*
X014826Y011087D01*
X014826Y010518D01*
X014714Y010405D01*
X014661Y010405D01*
X014766Y010510D01*
X014766Y010900D01*
X014491Y011175D01*
X014102Y011175D01*
X013826Y010900D01*
X013826Y010732D01*
X013766Y010672D01*
X013766Y010900D01*
X013491Y011175D01*
X013102Y011175D01*
X012826Y010900D01*
X012826Y010510D01*
X013086Y010250D01*
X013086Y009315D01*
X012403Y009315D01*
X012506Y009418D01*
X012506Y010250D01*
X012766Y010510D01*
X012766Y010900D01*
X012491Y011175D01*
X012102Y011175D01*
X011826Y010900D01*
X011826Y010510D01*
X012086Y010250D01*
X012086Y009615D01*
X010509Y009615D01*
X010403Y009508D01*
X010416Y009541D01*
X010416Y009669D01*
X010368Y009786D01*
X010321Y009833D01*
X010383Y009895D01*
X010783Y009895D01*
X010906Y010018D01*
X011123Y010235D01*
X011491Y010235D01*
X011766Y010510D01*
X011766Y010900D01*
X011491Y011175D01*
X011102Y011175D01*
X010826Y010900D01*
X010826Y010532D01*
X010609Y010315D01*
X010571Y010315D01*
X010766Y010510D01*
X010766Y010900D01*
X010491Y011175D01*
X010102Y011175D01*
X009826Y010900D01*
X009826Y010532D01*
X009706Y010412D01*
X009706Y010450D01*
X009766Y010510D01*
X009766Y010900D01*
X009491Y011175D01*
X009102Y011175D01*
X008826Y010900D01*
X008826Y010510D01*
X009102Y010235D01*
X009286Y010235D01*
X009286Y009068D01*
X009278Y009076D01*
X009160Y009125D01*
X009033Y009125D01*
X008915Y009076D01*
X008825Y008986D01*
X008776Y008869D01*
X008776Y008741D01*
X008788Y008713D01*
X008760Y008725D01*
X008633Y008725D01*
X008515Y008676D01*
X008425Y008586D01*
X008416Y008565D01*
X008416Y008982D01*
X008233Y009165D01*
X008246Y009165D01*
X008246Y009555D01*
X008346Y009555D01*
X008346Y009165D01*
X008479Y009165D01*
X008736Y009423D01*
X008736Y009555D01*
X008346Y009555D01*
X008346Y009655D01*
X008246Y009655D01*
X008246Y010045D01*
X008114Y010045D01*
X008006Y009937D01*
X008006Y010118D01*
X008123Y010235D01*
X008491Y010235D01*
X008766Y010510D01*
X008766Y010900D01*
X008491Y011175D01*
X008102Y011175D01*
X007826Y010900D01*
X007826Y010532D01*
X007586Y010292D01*
X007586Y009980D01*
X007491Y010075D01*
X007102Y010075D01*
X006996Y009970D01*
X006996Y010122D01*
X007109Y010235D01*
X007491Y010235D01*
X007766Y010510D01*
X007766Y010900D01*
X007491Y011175D01*
X007102Y011175D01*
X006826Y010900D01*
X006826Y010518D01*
X006596Y010288D01*
X006596Y010340D01*
X006614Y010305D02*
X006561Y010305D01*
X006596Y010288D02*
X006596Y009970D01*
X006491Y010075D01*
X006102Y010075D01*
X005896Y009870D01*
X005896Y010022D01*
X006109Y010235D01*
X006491Y010235D01*
X006766Y010510D01*
X006761Y010505D02*
X006814Y010505D01*
X006796Y010488D02*
X006796Y012025D01*
X006696Y012025D02*
X006696Y010970D01*
X006661Y011005D02*
X006932Y011005D01*
X006896Y010970D02*
X006896Y012025D01*
X006996Y012025D02*
X006996Y011070D01*
X007032Y011105D02*
X006561Y011105D01*
X006596Y011070D02*
X006596Y012025D01*
X006496Y012025D02*
X006496Y011170D01*
X006396Y011175D02*
X006396Y012025D01*
X006296Y012025D02*
X006296Y011175D01*
X006196Y011175D02*
X006196Y012025D01*
X006096Y012025D02*
X006096Y011170D01*
X006032Y011105D02*
X005561Y011105D01*
X005596Y011070D02*
X005596Y012025D01*
X005496Y012025D02*
X005496Y011170D01*
X005396Y011175D02*
X005396Y012025D01*
X005296Y012025D02*
X005296Y011175D01*
X005196Y011175D02*
X005196Y012025D01*
X005096Y012025D02*
X005096Y011170D01*
X005032Y011105D02*
X004519Y011105D01*
X004496Y011127D02*
X004496Y012025D01*
X004396Y012025D02*
X004396Y011145D01*
X004346Y011145D02*
X004346Y010755D01*
X004246Y010755D01*
X004246Y010655D01*
X003856Y010655D01*
X003856Y010523D01*
X004114Y010265D01*
X004246Y010265D01*
X004246Y010655D01*
X004346Y010655D01*
X004346Y010755D01*
X004736Y010755D01*
X004736Y010887D01*
X004479Y011145D01*
X004346Y011145D01*
X004346Y011105D02*
X004246Y011105D01*
X004246Y011145D02*
X004114Y011145D01*
X003856Y010887D01*
X003856Y010755D01*
X004246Y010755D01*
X004246Y011145D01*
X004196Y011145D02*
X004196Y012025D01*
X004096Y012025D02*
X004096Y011127D01*
X004074Y011105D02*
X003821Y011105D01*
X003821Y011005D02*
X003974Y011005D01*
X003996Y011027D02*
X003996Y012025D01*
X003896Y012025D02*
X003896Y010927D01*
X003874Y010905D02*
X003821Y010905D01*
X003821Y010805D02*
X003856Y010805D01*
X003896Y010755D02*
X003896Y010655D01*
X003856Y010605D02*
X003696Y010605D01*
X003696Y010588D02*
X003696Y010680D01*
X003733Y010705D02*
X004246Y010705D01*
X004196Y010655D02*
X004196Y010755D01*
X004246Y010805D02*
X004346Y010805D01*
X004296Y010755D02*
X004296Y012025D01*
X004596Y012025D02*
X004596Y011027D01*
X004619Y011005D02*
X004932Y011005D01*
X004896Y010970D02*
X004896Y012025D01*
X004796Y012025D02*
X004796Y010286D01*
X004791Y010289D02*
X004749Y010300D01*
X004634Y010300D01*
X004634Y010043D01*
X004891Y010043D01*
X004891Y010158D01*
X004880Y010199D01*
X004859Y010237D01*
X004828Y010267D01*
X004791Y010289D01*
X004696Y010300D02*
X004696Y010483D01*
X004719Y010505D02*
X004832Y010505D01*
X004896Y010440D02*
X004896Y009642D01*
X004921Y009605D02*
X005026Y009605D01*
X005026Y009505D02*
X004921Y009505D01*
X004921Y009405D02*
X005026Y009405D01*
X005026Y009305D02*
X004921Y009305D01*
X004921Y009193D02*
X004833Y009105D01*
X004896Y009042D02*
X004896Y009168D01*
X004921Y009005D02*
X005026Y009005D01*
X005015Y008905D02*
X004921Y008905D01*
X004996Y008887D02*
X004996Y010340D01*
X005026Y010305D02*
X004519Y010305D01*
X004559Y010205D02*
X004634Y010205D01*
X004634Y010105D02*
X004559Y010105D01*
X004596Y010043D02*
X004596Y010383D01*
X004619Y010405D02*
X004932Y010405D01*
X004826Y010605D02*
X004736Y010605D01*
X004696Y010655D02*
X004696Y010755D01*
X004736Y010805D02*
X004826Y010805D01*
X004826Y010705D02*
X004346Y010705D01*
X004296Y010655D02*
X004296Y009988D01*
X004279Y010005D02*
X004559Y010005D01*
X004496Y009967D02*
X004496Y010043D01*
X004396Y010043D02*
X004396Y009967D01*
X004301Y010105D02*
X004179Y010105D01*
X004196Y010088D02*
X004196Y010265D01*
X004246Y010305D02*
X004346Y010305D01*
X004346Y010405D02*
X004246Y010405D01*
X004246Y010505D02*
X004346Y010505D01*
X004346Y010605D02*
X004246Y010605D01*
X004096Y010655D02*
X004096Y010755D01*
X003996Y010755D02*
X003996Y010655D01*
X003874Y010505D02*
X003779Y010505D01*
X003796Y010488D02*
X003796Y010768D01*
X003496Y011005D02*
X003496Y010505D01*
X004596Y009405D01*
X004833Y009705D02*
X005026Y009705D01*
X005026Y009805D02*
X004877Y009805D01*
X004891Y009905D02*
X005026Y009905D01*
X005026Y010005D02*
X004634Y010005D01*
X004696Y009967D02*
X004696Y010043D01*
X004796Y010043D02*
X004796Y009967D01*
X004891Y010105D02*
X005026Y010105D01*
X005026Y010205D02*
X004877Y010205D01*
X004316Y010205D02*
X004079Y010205D01*
X004096Y010188D02*
X004096Y010283D01*
X004074Y010305D02*
X003979Y010305D01*
X003996Y010288D02*
X003996Y010383D01*
X003974Y010405D02*
X003879Y010405D01*
X003896Y010388D02*
X003896Y010483D01*
X003596Y010122D02*
X003596Y009871D01*
X003612Y009868D02*
X003536Y009884D01*
X003525Y009884D01*
X003525Y009515D01*
X003468Y009515D01*
X003468Y009884D01*
X003457Y009884D01*
X003381Y009868D01*
X003308Y009838D01*
X003243Y009795D01*
X003188Y009739D01*
X003144Y009674D01*
X003114Y009602D01*
X003099Y009525D01*
X003099Y009515D01*
X003468Y009515D01*
X003468Y009457D01*
X003099Y009457D01*
X003099Y009447D01*
X003114Y009370D01*
X003144Y009298D01*
X003188Y009233D01*
X003243Y009177D01*
X003308Y009134D01*
X003369Y009109D01*
X003254Y009061D01*
X003202Y009009D01*
X002996Y009009D01*
X002996Y010680D01*
X003108Y010680D01*
X003196Y010768D01*
X003196Y009748D01*
X003165Y009705D02*
X002996Y009705D01*
X002996Y009605D02*
X003115Y009605D01*
X003196Y009515D02*
X003196Y009457D01*
X003296Y009457D02*
X003296Y009515D01*
X003396Y009515D02*
X003396Y009457D01*
X003468Y009505D02*
X002996Y009505D01*
X002996Y009405D02*
X003107Y009405D01*
X003141Y009305D02*
X002996Y009305D01*
X002996Y009205D02*
X003215Y009205D01*
X003196Y009224D02*
X003196Y009009D01*
X003096Y009009D02*
X003096Y010680D01*
X003133Y010705D02*
X003260Y010705D01*
X003285Y010680D02*
X003296Y010680D01*
X003296Y010422D01*
X003296Y009831D01*
X003258Y009805D02*
X002996Y009805D01*
X002996Y009905D02*
X003814Y009905D01*
X003796Y009922D02*
X003796Y009748D01*
X003805Y009739D02*
X003750Y009795D01*
X003685Y009838D01*
X003612Y009868D01*
X003696Y009831D02*
X003696Y010022D01*
X003714Y010005D02*
X002996Y010005D01*
X002996Y010105D02*
X003614Y010105D01*
X003514Y010205D02*
X002996Y010205D01*
X002996Y010305D02*
X003414Y010305D01*
X004073Y009646D01*
X004044Y009634D01*
X003968Y009558D01*
X003868Y009458D01*
X003867Y009457D01*
X003525Y009457D01*
X003525Y009515D01*
X003894Y009515D01*
X003894Y009525D01*
X003879Y009602D01*
X003849Y009674D01*
X003805Y009739D01*
X003828Y009705D02*
X004014Y009705D01*
X003996Y009722D02*
X003996Y009587D01*
X004015Y009605D02*
X003877Y009605D01*
X003915Y009505D02*
X003525Y009505D01*
X003496Y009515D02*
X003496Y010222D01*
X003414Y010305D02*
X003296Y010422D01*
X003314Y010405D02*
X002996Y010405D01*
X002996Y010505D02*
X003296Y010505D01*
X003296Y010605D02*
X002996Y010605D01*
X002996Y010680D02*
X002996Y009009D01*
X002996Y009105D02*
X003360Y009105D01*
X003296Y009079D02*
X003296Y009142D01*
X003624Y009109D02*
X003705Y009075D01*
X003826Y009075D01*
X003826Y009265D01*
X003805Y009233D01*
X003750Y009177D01*
X003685Y009134D01*
X003624Y009109D01*
X003633Y009105D02*
X003826Y009105D01*
X003796Y009075D02*
X003796Y009224D01*
X003777Y009205D02*
X003826Y009205D01*
X003696Y009142D02*
X003696Y009079D01*
X003696Y009457D02*
X003696Y009515D01*
X003596Y009515D02*
X003596Y009457D01*
X003525Y009605D02*
X003468Y009605D01*
X003468Y009705D02*
X003525Y009705D01*
X003525Y009805D02*
X003468Y009805D01*
X003396Y009871D02*
X003396Y010322D01*
X003285Y010680D02*
X003196Y010768D01*
X002896Y011005D02*
X003496Y011605D01*
X003196Y011605D02*
X002996Y011605D01*
X002996Y011580D02*
X002996Y011630D01*
X003166Y011630D01*
X003166Y011763D01*
X003156Y011803D01*
X003135Y011839D01*
X003106Y011869D01*
X003155Y011805D02*
X003196Y011805D01*
X003196Y011820D02*
X003196Y011588D01*
X003166Y011558D01*
X003166Y011580D01*
X002996Y011580D01*
X002996Y011630D01*
X003096Y011630D02*
X003096Y011580D01*
X003166Y011705D02*
X003196Y011705D01*
X003281Y011905D02*
X002996Y011905D01*
X002996Y011900D02*
X002996Y012025D01*
X002996Y012005D02*
X015896Y012005D01*
X015881Y011905D02*
X003712Y011905D01*
X003696Y011920D02*
X003696Y012025D01*
X003596Y012025D02*
X003596Y011930D01*
X003496Y011930D02*
X003496Y012025D01*
X003396Y012025D02*
X003396Y011930D01*
X003296Y011920D02*
X003296Y012025D01*
X003796Y012025D02*
X003796Y011242D01*
X003821Y011205D02*
X015408Y011205D01*
X015396Y011216D02*
X015396Y011175D01*
X015296Y011175D02*
X015296Y012025D01*
X015196Y012025D02*
X015196Y011175D01*
X015096Y011175D02*
X015096Y012025D01*
X014996Y012025D02*
X014996Y011175D01*
X014896Y011157D02*
X014896Y012025D01*
X014796Y012025D02*
X014796Y010488D01*
X014814Y010505D02*
X014761Y010505D01*
X014696Y010440D02*
X014696Y010405D01*
X014714Y010405D02*
X014661Y010405D01*
X014766Y010605D02*
X014826Y010605D01*
X014826Y010705D02*
X014766Y010705D01*
X014766Y010805D02*
X014826Y010805D01*
X014826Y010905D02*
X014761Y010905D01*
X014696Y010970D02*
X014696Y012025D01*
X014596Y012025D02*
X014596Y011070D01*
X014561Y011105D02*
X014844Y011105D01*
X014826Y011005D02*
X014661Y011005D01*
X014496Y011170D02*
X014496Y012025D01*
X014396Y012025D02*
X014396Y011175D01*
X014296Y011175D02*
X014296Y012025D01*
X014196Y012025D02*
X014196Y011175D01*
X014096Y011170D02*
X014096Y012025D01*
X013996Y012025D02*
X013996Y011070D01*
X014032Y011105D02*
X013561Y011105D01*
X013596Y011070D02*
X013596Y012025D01*
X013496Y012025D02*
X013496Y011170D01*
X013396Y011175D02*
X013396Y012025D01*
X013296Y012025D02*
X013296Y011175D01*
X013196Y011175D02*
X013196Y012025D01*
X013096Y012025D02*
X013096Y011170D01*
X013032Y011105D02*
X012561Y011105D01*
X012596Y011070D02*
X012596Y012025D01*
X012496Y012025D02*
X012496Y011170D01*
X012396Y011175D02*
X012396Y012025D01*
X012296Y012025D02*
X012296Y011175D01*
X012196Y011175D02*
X012196Y012025D01*
X012096Y012025D02*
X012096Y011170D01*
X012032Y011105D02*
X011561Y011105D01*
X011596Y011070D02*
X011596Y012025D01*
X011496Y012025D02*
X011496Y011170D01*
X011396Y011175D02*
X011396Y012025D01*
X011296Y012025D02*
X011296Y011175D01*
X011196Y011175D02*
X011196Y012025D01*
X011096Y012025D02*
X011096Y011170D01*
X011032Y011105D02*
X010561Y011105D01*
X010596Y011070D02*
X010596Y012025D01*
X010496Y012025D02*
X010496Y011170D01*
X010396Y011175D02*
X010396Y012025D01*
X010296Y012025D02*
X010296Y011175D01*
X010196Y011175D02*
X010196Y012025D01*
X010096Y012025D02*
X010096Y011170D01*
X010032Y011105D02*
X009561Y011105D01*
X009596Y011070D02*
X009596Y012025D01*
X009496Y012025D02*
X009496Y011170D01*
X009396Y011175D02*
X009396Y012025D01*
X009296Y012025D02*
X009296Y011175D01*
X009196Y011175D02*
X009196Y012025D01*
X009096Y012025D02*
X009096Y011170D01*
X009032Y011105D02*
X008561Y011105D01*
X008596Y011070D02*
X008596Y012025D01*
X008496Y012025D02*
X008496Y011170D01*
X008396Y011175D02*
X008396Y012025D01*
X008296Y012025D02*
X008296Y011175D01*
X008196Y011175D02*
X008196Y012025D01*
X008096Y012025D02*
X008096Y011170D01*
X008032Y011105D02*
X007561Y011105D01*
X007596Y011070D02*
X007596Y012025D01*
X007496Y012025D02*
X007496Y011170D01*
X007396Y011175D02*
X007396Y012025D01*
X007296Y012025D02*
X007296Y011175D01*
X007196Y011175D02*
X007196Y012025D01*
X007096Y012025D02*
X007096Y011170D01*
X006832Y010905D02*
X006761Y010905D01*
X006766Y010805D02*
X006826Y010805D01*
X007296Y010705D02*
X006796Y010205D01*
X006796Y009405D01*
X006896Y009305D01*
X006896Y008505D01*
X006996Y008405D01*
X007296Y008405D01*
X007185Y008705D02*
X007096Y008705D01*
X007115Y008676D02*
X007096Y008658D01*
X007096Y009008D01*
X007209Y008895D01*
X007386Y008718D01*
X007386Y008714D01*
X007360Y008725D01*
X007233Y008725D01*
X007115Y008676D01*
X007096Y008658D02*
X007096Y009008D01*
X007096Y009005D02*
X007099Y009005D01*
X007096Y008905D02*
X007199Y008905D01*
X007196Y008908D02*
X007196Y008710D01*
X007296Y008725D02*
X007296Y008808D01*
X007299Y008805D02*
X007096Y008805D01*
X007527Y009171D02*
X007586Y009230D01*
X007586Y009218D01*
X007709Y009095D01*
X007996Y008808D01*
X007996Y008258D01*
X007978Y008276D01*
X007860Y008325D01*
X007806Y008325D01*
X007806Y008892D01*
X007527Y009171D01*
X007561Y009205D02*
X007599Y009205D01*
X007596Y009208D02*
X007596Y009102D01*
X007593Y009105D02*
X007699Y009105D01*
X007696Y009108D02*
X007696Y009002D01*
X007693Y009005D02*
X007799Y009005D01*
X007796Y009008D02*
X007796Y008902D01*
X007793Y008905D02*
X007899Y008905D01*
X007896Y008908D02*
X007896Y008310D01*
X007908Y008305D02*
X007996Y008305D01*
X007996Y008405D02*
X007806Y008405D01*
X007806Y008505D02*
X007996Y008505D01*
X007996Y008605D02*
X007806Y008605D01*
X007806Y008705D02*
X007996Y008705D01*
X007996Y008805D02*
X007806Y008805D01*
X008293Y009105D02*
X008985Y009105D01*
X008996Y009110D02*
X008996Y010340D01*
X009032Y010305D02*
X008561Y010305D01*
X008596Y010340D02*
X008596Y009927D01*
X008619Y009905D02*
X009286Y009905D01*
X009286Y009805D02*
X008719Y009805D01*
X008736Y009787D02*
X008479Y010045D01*
X008346Y010045D01*
X008346Y009655D01*
X008736Y009655D01*
X008736Y009787D01*
X008696Y009827D02*
X008696Y010440D01*
X008661Y010405D02*
X008932Y010405D01*
X008896Y010440D02*
X008896Y009058D01*
X008844Y009005D02*
X008393Y009005D01*
X008396Y009002D02*
X008396Y009165D01*
X008346Y009205D02*
X008246Y009205D01*
X008246Y009305D02*
X008346Y009305D01*
X008346Y009405D02*
X008246Y009405D01*
X008246Y009505D02*
X008346Y009505D01*
X008296Y009555D02*
X008296Y009102D01*
X008496Y009183D02*
X008496Y008658D01*
X008444Y008605D02*
X008416Y008605D01*
X008416Y008705D02*
X008585Y008705D01*
X008596Y008710D02*
X008596Y009283D01*
X008619Y009305D02*
X009286Y009305D01*
X009286Y009205D02*
X008519Y009205D01*
X008696Y009383D02*
X008696Y008725D01*
X008776Y008805D02*
X008416Y008805D01*
X008416Y008905D02*
X008792Y008905D01*
X008796Y008917D02*
X008796Y012025D01*
X008696Y012025D02*
X008696Y010970D01*
X008661Y011005D02*
X008932Y011005D01*
X008896Y010970D02*
X008896Y012025D01*
X008996Y012025D02*
X008996Y011070D01*
X008832Y010905D02*
X008761Y010905D01*
X008766Y010805D02*
X008826Y010805D01*
X008826Y010705D02*
X008766Y010705D01*
X008766Y010605D02*
X008826Y010605D01*
X008832Y010505D02*
X008761Y010505D01*
X008496Y010240D02*
X008496Y010027D01*
X008519Y010005D02*
X009286Y010005D01*
X009286Y010105D02*
X008006Y010105D01*
X008006Y010005D02*
X008074Y010005D01*
X008096Y010027D02*
X008096Y010208D01*
X008093Y010205D02*
X009286Y010205D01*
X009196Y010235D02*
X009196Y009110D01*
X009208Y009105D02*
X009286Y009105D01*
X009096Y009125D02*
X009096Y010240D01*
X009761Y010505D02*
X009799Y010505D01*
X009796Y010502D02*
X009796Y012025D01*
X009696Y012025D02*
X009696Y010970D01*
X009661Y011005D02*
X009932Y011005D01*
X009896Y010970D02*
X009896Y012025D01*
X009996Y012025D02*
X009996Y011070D01*
X009832Y010905D02*
X009761Y010905D01*
X009766Y010805D02*
X009826Y010805D01*
X009826Y010705D02*
X009766Y010705D01*
X009766Y010605D02*
X009826Y010605D01*
X010123Y010235D02*
X010129Y010235D01*
X010009Y010115D01*
X009949Y010055D01*
X009949Y010061D01*
X010123Y010235D01*
X010096Y010208D02*
X010096Y010202D01*
X010093Y010205D02*
X010099Y010205D01*
X009999Y010105D02*
X009993Y010105D01*
X009996Y010102D02*
X009996Y010108D01*
X010349Y009805D02*
X012086Y009805D01*
X012086Y009705D02*
X010401Y009705D01*
X010396Y009717D02*
X010396Y009895D01*
X010496Y009895D02*
X010496Y009602D01*
X010499Y009605D02*
X010416Y009605D01*
X010596Y009615D02*
X010596Y009895D01*
X010696Y009895D02*
X010696Y009615D01*
X010796Y009615D02*
X010796Y009908D01*
X010793Y009905D02*
X012086Y009905D01*
X012086Y010005D02*
X010893Y010005D01*
X010896Y010008D02*
X010896Y009615D01*
X010996Y009615D02*
X010996Y010108D01*
X010993Y010105D02*
X012086Y010105D01*
X012086Y010205D02*
X011093Y010205D01*
X011096Y010208D02*
X011096Y009615D01*
X011196Y009615D02*
X011196Y010235D01*
X011296Y010235D02*
X011296Y009615D01*
X011396Y009615D02*
X011396Y010235D01*
X011496Y010240D02*
X011496Y009615D01*
X011596Y009615D02*
X011596Y010340D01*
X011561Y010305D02*
X012032Y010305D01*
X011996Y010340D02*
X011996Y009615D01*
X011896Y009615D02*
X011896Y010440D01*
X011932Y010405D02*
X011661Y010405D01*
X011696Y010440D02*
X011696Y009615D01*
X011796Y009615D02*
X011796Y012025D01*
X011696Y012025D02*
X011696Y010970D01*
X011661Y011005D02*
X011932Y011005D01*
X011896Y010970D02*
X011896Y012025D01*
X011996Y012025D02*
X011996Y011070D01*
X011832Y010905D02*
X011761Y010905D01*
X011766Y010805D02*
X011826Y010805D01*
X011826Y010705D02*
X011766Y010705D01*
X011766Y010605D02*
X011826Y010605D01*
X011832Y010505D02*
X011761Y010505D01*
X012506Y010205D02*
X013086Y010205D01*
X013086Y010105D02*
X012506Y010105D01*
X012506Y010005D02*
X013086Y010005D01*
X013086Y009905D02*
X012506Y009905D01*
X012506Y009805D02*
X013086Y009805D01*
X013086Y009705D02*
X012506Y009705D01*
X012506Y009605D02*
X013086Y009605D01*
X013086Y009505D02*
X012506Y009505D01*
X012496Y009408D02*
X012496Y009315D01*
X012493Y009405D02*
X013086Y009405D01*
X012996Y009315D02*
X012996Y010340D01*
X013032Y010305D02*
X012561Y010305D01*
X012596Y010340D02*
X012596Y009315D01*
X012696Y009315D02*
X012696Y010440D01*
X012661Y010405D02*
X012932Y010405D01*
X012896Y010440D02*
X012896Y009315D01*
X012796Y009315D02*
X012796Y012025D01*
X012696Y012025D02*
X012696Y010970D01*
X012661Y011005D02*
X012932Y011005D01*
X012896Y010970D02*
X012896Y012025D01*
X012996Y012025D02*
X012996Y011070D01*
X012832Y010905D02*
X012761Y010905D01*
X012766Y010805D02*
X012826Y010805D01*
X012826Y010705D02*
X012766Y010705D01*
X012766Y010605D02*
X012826Y010605D01*
X012832Y010505D02*
X012761Y010505D01*
X013766Y010705D02*
X013799Y010705D01*
X013796Y010702D02*
X013796Y012025D01*
X013696Y012025D02*
X013696Y010970D01*
X013661Y011005D02*
X013932Y011005D01*
X013896Y010970D02*
X013896Y012025D01*
X013832Y010905D02*
X013761Y010905D01*
X013766Y010805D02*
X013826Y010805D01*
X013896Y010205D02*
X013796Y010105D01*
X013796Y008705D01*
X013796Y008495D02*
X013796Y006625D01*
X013733Y006625D02*
X013860Y006625D01*
X013871Y006620D01*
X013871Y007017D01*
X013985Y007130D01*
X013987Y007130D01*
X013965Y007143D01*
X013934Y007173D01*
X013913Y007211D01*
X013901Y007252D01*
X013901Y007367D01*
X014159Y007367D01*
X014159Y007443D01*
X013901Y007443D01*
X013901Y007558D01*
X013913Y007599D01*
X013934Y007637D01*
X013965Y007667D01*
X013987Y007680D01*
X013985Y007680D01*
X013871Y007793D01*
X013871Y008217D01*
X013960Y008305D01*
X012857Y008305D01*
X012857Y008205D02*
X013871Y008205D01*
X013896Y008242D02*
X013896Y008368D01*
X013871Y008393D02*
X013960Y008305D01*
X013871Y008393D02*
X013871Y008495D01*
X012857Y008495D01*
X012857Y007708D01*
X012779Y007630D01*
X012779Y007190D01*
X012523Y006935D01*
X012974Y006935D01*
X013015Y006976D01*
X013133Y007025D01*
X013260Y007025D01*
X013378Y006976D01*
X013468Y006886D01*
X013516Y006769D01*
X013516Y006641D01*
X013468Y006524D01*
X013378Y006434D01*
X013260Y006385D01*
X013133Y006385D01*
X013015Y006434D01*
X012974Y006475D01*
X012821Y006475D01*
X012821Y006393D01*
X012708Y006280D01*
X012706Y006280D01*
X012728Y006267D01*
X012759Y006237D01*
X012780Y006199D01*
X012791Y006158D01*
X012791Y006043D01*
X012534Y006043D01*
X012534Y005967D01*
X012534Y005710D01*
X012649Y005710D01*
X012691Y005721D01*
X012728Y005743D01*
X012759Y005773D01*
X012780Y005811D01*
X012791Y005852D01*
X012791Y005967D01*
X012534Y005967D01*
X012459Y005967D01*
X012459Y005710D01*
X012344Y005710D01*
X012302Y005721D01*
X012265Y005743D01*
X012234Y005773D01*
X012213Y005811D01*
X012201Y005852D01*
X012201Y005967D01*
X012459Y005967D01*
X012459Y006043D01*
X012201Y006043D01*
X012201Y006158D01*
X012213Y006199D01*
X012234Y006237D01*
X012265Y006267D01*
X012287Y006280D01*
X012285Y006280D01*
X012171Y006393D01*
X012171Y006795D01*
X011986Y006795D01*
X011986Y006505D01*
X012171Y006505D01*
X012171Y006405D02*
X011956Y006405D01*
X011956Y006367D02*
X011956Y006475D01*
X011986Y006505D01*
X011986Y006605D02*
X012171Y006605D01*
X012171Y006705D02*
X011986Y006705D01*
X011996Y006795D02*
X011996Y005628D01*
X011956Y005628D02*
X011956Y005728D01*
X011591Y005728D01*
X011591Y005738D01*
X011956Y005738D01*
X011956Y005845D01*
X011986Y005875D01*
X011986Y006220D01*
X011956Y006250D01*
X011956Y006357D01*
X011591Y006357D01*
X011591Y006367D01*
X011956Y006367D01*
X011896Y006357D02*
X011896Y006367D01*
X011956Y006305D02*
X012260Y006305D01*
X012196Y006368D02*
X012196Y005515D01*
X012206Y005505D02*
X013085Y005505D01*
X013096Y005510D02*
X013096Y006400D01*
X013085Y006405D02*
X012821Y006405D01*
X012796Y006368D02*
X012796Y005358D01*
X012778Y005376D02*
X012660Y005425D01*
X012533Y005425D01*
X012415Y005376D01*
X012325Y005286D01*
X012276Y005169D01*
X012276Y005082D01*
X012206Y005012D01*
X012206Y005505D01*
X012083Y005628D01*
X011956Y005628D01*
X011956Y005705D02*
X013871Y005705D01*
X013871Y005605D02*
X012106Y005605D01*
X012096Y005615D02*
X012096Y006795D01*
X012596Y006935D02*
X012596Y007008D01*
X012593Y007005D02*
X013085Y007005D01*
X013096Y007010D02*
X013096Y008495D01*
X012996Y008495D02*
X012996Y006958D01*
X012896Y006935D02*
X012896Y008495D01*
X012857Y008405D02*
X013871Y008405D01*
X013696Y008495D02*
X013696Y006610D01*
X013685Y006605D02*
X013501Y006605D01*
X013496Y006593D02*
X013496Y006417D01*
X013492Y006405D02*
X013308Y006405D01*
X013296Y006400D02*
X013296Y005510D01*
X013308Y005505D02*
X013871Y005505D01*
X013871Y005493D02*
X013960Y005405D01*
X013449Y005405D01*
X013960Y005405D01*
X013896Y005405D02*
X013896Y005468D01*
X013871Y005493D02*
X013871Y005917D01*
X013985Y006030D01*
X014408Y006030D01*
X014521Y005917D01*
X014521Y005905D01*
X014614Y005905D01*
X014521Y005905D01*
X014496Y005942D02*
X014496Y006022D01*
X014514Y006005D02*
X014433Y006005D01*
X014396Y006030D02*
X014396Y006105D01*
X014414Y006105D02*
X014614Y005905D01*
X014596Y005905D02*
X014596Y005922D01*
X014796Y006005D02*
X014496Y006305D01*
X013796Y006305D01*
X013476Y006305D02*
X012733Y006305D01*
X012777Y006205D02*
X013492Y006205D01*
X013496Y006193D02*
X013496Y005405D01*
X013449Y005405D02*
X013378Y005476D01*
X013260Y005525D01*
X013133Y005525D01*
X013015Y005476D01*
X012925Y005386D01*
X012876Y005269D01*
X012876Y005265D01*
X012868Y005286D01*
X012778Y005376D01*
X012708Y005405D02*
X012944Y005405D01*
X012996Y005458D02*
X012996Y006452D01*
X012896Y006475D02*
X012896Y005317D01*
X012892Y005305D02*
X012849Y005305D01*
X012696Y005410D02*
X012696Y005724D01*
X012596Y005710D02*
X012596Y005425D01*
X012496Y005410D02*
X012496Y005967D01*
X012459Y006005D02*
X011986Y006005D01*
X011986Y005905D02*
X012201Y005905D01*
X012216Y005805D02*
X011956Y005805D01*
X011896Y005738D02*
X011896Y005728D01*
X011796Y005728D02*
X011796Y005738D01*
X011696Y005728D02*
X011696Y005738D01*
X011596Y005728D02*
X011596Y005738D01*
X011581Y005738D02*
X011581Y005728D01*
X011216Y005728D01*
X011216Y005620D01*
X011186Y005590D01*
X011186Y004931D01*
X011196Y004921D01*
X011196Y004889D01*
X011171Y004915D01*
X010759Y004915D01*
X010768Y004924D01*
X010816Y005041D01*
X010816Y005142D01*
X010896Y005222D01*
X010896Y005980D01*
X010901Y005975D01*
X011059Y005818D01*
X011216Y005818D01*
X011216Y005738D01*
X011581Y005738D01*
X011496Y005728D02*
X011496Y005738D01*
X011396Y005728D02*
X011396Y005738D01*
X011296Y005728D02*
X011296Y005738D01*
X011216Y005705D02*
X010896Y005705D01*
X010896Y005605D02*
X011202Y005605D01*
X011196Y005600D02*
X011196Y005818D01*
X011216Y005805D02*
X010896Y005805D01*
X010896Y005905D02*
X010971Y005905D01*
X010996Y005880D02*
X010996Y004915D01*
X010896Y004915D02*
X010896Y005980D01*
X011096Y005818D02*
X011096Y004915D01*
X011181Y004905D02*
X011196Y004905D01*
X011186Y005005D02*
X010801Y005005D01*
X010796Y004993D02*
X010796Y004915D01*
X010816Y005105D02*
X011186Y005105D01*
X011186Y005205D02*
X010879Y005205D01*
X010896Y005305D02*
X011186Y005305D01*
X011186Y005405D02*
X010896Y005405D01*
X010896Y005505D02*
X011186Y005505D01*
X010696Y005305D02*
X010696Y007205D01*
X010446Y007408D02*
X010378Y007476D01*
X010333Y007495D01*
X010560Y007495D01*
X010515Y007476D01*
X010446Y007408D01*
X010396Y007458D02*
X010396Y007495D01*
X010496Y007495D02*
X010496Y007458D01*
X010833Y007495D02*
X011171Y007495D01*
X011259Y007583D01*
X011259Y008207D01*
X011209Y008257D01*
X011209Y008495D01*
X011336Y008495D01*
X011336Y007708D01*
X011376Y007668D01*
X011376Y007567D01*
X011274Y007567D01*
X011186Y007479D01*
X011186Y006968D01*
X011178Y006976D01*
X011060Y007025D01*
X010968Y007025D01*
X011016Y007141D01*
X011016Y007269D01*
X010968Y007386D01*
X010878Y007476D01*
X010833Y007495D01*
X010896Y007495D02*
X010896Y007458D01*
X010949Y007405D02*
X011186Y007405D01*
X011196Y007489D02*
X011196Y007521D01*
X011181Y007505D02*
X011212Y007505D01*
X011296Y007567D02*
X011296Y008495D01*
X011336Y008405D02*
X011209Y008405D01*
X011209Y008305D02*
X011336Y008305D01*
X011336Y008205D02*
X011259Y008205D01*
X011259Y008105D02*
X011336Y008105D01*
X011336Y008005D02*
X011259Y008005D01*
X011259Y007905D02*
X011336Y007905D01*
X011336Y007805D02*
X011259Y007805D01*
X011259Y007705D02*
X011339Y007705D01*
X011376Y007605D02*
X011259Y007605D01*
X011096Y007495D02*
X011096Y007010D01*
X011108Y007005D02*
X011186Y007005D01*
X011186Y007105D02*
X011001Y007105D01*
X010996Y007093D02*
X010996Y007025D01*
X011016Y007205D02*
X011186Y007205D01*
X011186Y007305D02*
X011001Y007305D01*
X010996Y007317D02*
X010996Y007495D01*
X011796Y007567D02*
X011796Y007620D01*
X011824Y007620D01*
X011881Y007678D01*
X011885Y007674D01*
X011912Y007659D01*
X011943Y007650D01*
X012078Y007650D01*
X012078Y008086D01*
X012115Y008086D01*
X012115Y007650D01*
X012250Y007650D01*
X012281Y007659D01*
X012308Y007674D01*
X012311Y007678D01*
X012359Y007630D01*
X012359Y007364D01*
X012209Y007215D01*
X011986Y007215D01*
X011986Y007479D01*
X011899Y007567D01*
X011796Y007567D01*
X011796Y007620D01*
X011796Y007605D02*
X012359Y007605D01*
X012296Y007668D02*
X012296Y007302D01*
X012299Y007305D02*
X011986Y007305D01*
X011996Y007215D02*
X011996Y007650D01*
X012078Y007705D02*
X012115Y007705D01*
X012196Y007650D02*
X012196Y007215D01*
X012096Y007215D02*
X012096Y008086D01*
X012078Y008005D02*
X012115Y008005D01*
X012115Y007905D02*
X012078Y007905D01*
X012078Y007805D02*
X012115Y007805D01*
X011896Y007668D02*
X011896Y007567D01*
X011961Y007505D02*
X012359Y007505D01*
X012359Y007405D02*
X011986Y007405D01*
X012693Y007105D02*
X013960Y007105D01*
X013896Y007042D02*
X013896Y007768D01*
X013871Y007805D02*
X012857Y007805D01*
X012857Y007905D02*
X013871Y007905D01*
X013871Y008005D02*
X012857Y008005D01*
X012857Y008105D02*
X013871Y008105D01*
X014196Y008005D02*
X014703Y008005D01*
X015396Y008699D01*
X014969Y008705D02*
X014521Y008705D01*
X014521Y008605D02*
X014973Y008605D01*
X014969Y008614D02*
X014986Y008572D01*
X014620Y008205D01*
X014521Y008205D01*
X014521Y008217D01*
X014433Y008305D01*
X014720Y008305D01*
X014696Y008282D02*
X014696Y008885D01*
X014633Y008885D02*
X014760Y008885D01*
X014878Y008934D01*
X014968Y009024D01*
X015004Y009111D01*
X015057Y009059D01*
X015152Y009059D01*
X015034Y008941D01*
X014969Y008784D01*
X014969Y008614D01*
X014920Y008505D02*
X014521Y008505D01*
X014521Y008405D02*
X014820Y008405D01*
X014796Y008382D02*
X014796Y008900D01*
X014808Y008905D02*
X015019Y008905D01*
X014996Y008850D02*
X014996Y009093D01*
X015001Y009105D02*
X015010Y009105D01*
X015096Y009059D02*
X015096Y009003D01*
X015098Y009005D02*
X014949Y009005D01*
X014896Y008952D02*
X014896Y008482D01*
X014978Y008805D02*
X014521Y008805D01*
X014521Y008817D02*
X014433Y008905D01*
X014585Y008905D01*
X014596Y008900D02*
X014596Y008205D01*
X014620Y008205D02*
X014521Y008205D01*
X014496Y008242D02*
X014496Y008368D01*
X014521Y008393D02*
X014521Y008817D01*
X014496Y008842D02*
X014496Y008952D01*
X014488Y008960D02*
X014515Y008934D01*
X014633Y008885D01*
X014488Y008960D02*
X014433Y008905D01*
X014196Y008605D02*
X014096Y008705D01*
X014433Y008305D02*
X014521Y008393D01*
X014969Y007988D02*
X014969Y007826D01*
X015034Y007669D01*
X015154Y007549D01*
X015269Y007501D01*
X015208Y007476D01*
X015143Y007433D01*
X015088Y007377D01*
X015044Y007312D01*
X015014Y007240D01*
X014999Y007163D01*
X014999Y007153D01*
X015368Y007153D01*
X015368Y007095D01*
X015425Y007095D01*
X015425Y006726D01*
X015436Y006726D01*
X015512Y006742D01*
X015585Y006772D01*
X015650Y006815D01*
X015705Y006871D01*
X015749Y006936D01*
X015779Y007008D01*
X015794Y007085D01*
X015794Y007095D01*
X015425Y007095D01*
X015425Y007153D01*
X015794Y007153D01*
X015794Y007163D01*
X015779Y007240D01*
X015749Y007312D01*
X015705Y007377D01*
X015650Y007433D01*
X015585Y007476D01*
X015524Y007501D01*
X015639Y007549D01*
X015685Y007595D01*
X015896Y007595D01*
X015896Y006715D01*
X015584Y006715D01*
X015560Y006725D01*
X015433Y006725D01*
X015315Y006676D01*
X015314Y006675D01*
X015208Y006675D01*
X014849Y007034D01*
X014750Y007075D01*
X014463Y007075D01*
X014408Y007130D01*
X014406Y007130D01*
X014428Y007143D01*
X014459Y007173D01*
X014480Y007211D01*
X014491Y007252D01*
X014491Y007367D01*
X014234Y007367D01*
X014234Y007443D01*
X014491Y007443D01*
X014491Y007558D01*
X014480Y007599D01*
X014459Y007637D01*
X014428Y007667D01*
X014406Y007680D01*
X014408Y007680D01*
X014521Y007793D01*
X014521Y007805D01*
X014786Y007805D01*
X014978Y007805D01*
X014996Y007760D02*
X014996Y006887D01*
X014978Y006905D02*
X015065Y006905D01*
X015044Y006936D02*
X015088Y006871D01*
X015143Y006815D01*
X015208Y006772D01*
X015281Y006742D01*
X015357Y006726D01*
X015368Y006726D01*
X015368Y007095D01*
X014999Y007095D01*
X014999Y007085D01*
X015014Y007008D01*
X015044Y006936D01*
X015015Y007005D02*
X014878Y007005D01*
X014896Y006987D02*
X014896Y007916D01*
X014886Y007905D02*
X014969Y007905D01*
X014969Y007988D02*
X014786Y007805D01*
X014796Y007816D02*
X014796Y007056D01*
X014696Y007075D02*
X014696Y007805D01*
X014596Y007805D02*
X014596Y007075D01*
X014496Y007075D02*
X014496Y007768D01*
X014433Y007705D02*
X015019Y007705D01*
X015096Y007607D02*
X015096Y007386D01*
X015115Y007405D02*
X014234Y007405D01*
X014296Y007367D02*
X014296Y007443D01*
X014396Y007443D02*
X014396Y007367D01*
X014491Y007305D02*
X015041Y007305D01*
X015007Y007205D02*
X014477Y007205D01*
X014433Y007105D02*
X015368Y007105D01*
X015396Y007095D02*
X015396Y006710D01*
X015385Y006705D02*
X015178Y006705D01*
X015196Y006687D02*
X015196Y006779D01*
X015158Y006805D02*
X015078Y006805D01*
X015096Y006787D02*
X015096Y006862D01*
X015296Y006739D02*
X015296Y006675D01*
X015368Y006805D02*
X015425Y006805D01*
X015496Y006739D02*
X015496Y006725D01*
X015596Y006715D02*
X015596Y006779D01*
X015635Y006805D02*
X015896Y006805D01*
X015896Y006905D02*
X015728Y006905D01*
X015696Y006862D02*
X015696Y006715D01*
X015796Y006715D02*
X015796Y007595D01*
X015696Y007595D02*
X015696Y007386D01*
X015677Y007405D02*
X015896Y007405D01*
X015896Y007305D02*
X015752Y007305D01*
X015786Y007205D02*
X015896Y007205D01*
X015896Y007105D02*
X015425Y007105D01*
X015496Y007095D02*
X015496Y007153D01*
X015596Y007153D02*
X015596Y007095D01*
X015696Y007095D02*
X015696Y007153D01*
X015777Y007005D02*
X015896Y007005D01*
X015425Y007005D02*
X015368Y007005D01*
X015368Y006905D02*
X015425Y006905D01*
X015296Y007095D02*
X015296Y007153D01*
X015196Y007153D02*
X015196Y007095D01*
X015096Y007095D02*
X015096Y007153D01*
X015196Y007468D02*
X015196Y007531D01*
X015260Y007505D02*
X014491Y007505D01*
X014477Y007605D02*
X015098Y007605D01*
X015533Y007505D02*
X015896Y007505D01*
X015596Y007531D02*
X015596Y007468D01*
X015697Y008215D02*
X015639Y008274D01*
X015563Y008305D01*
X015896Y008305D01*
X015896Y008215D02*
X015697Y008215D01*
X015696Y008216D02*
X015696Y008394D01*
X015707Y008405D02*
X015896Y008405D01*
X015896Y008505D02*
X015779Y008505D01*
X015796Y008547D02*
X015796Y008215D01*
X015896Y008215D02*
X015896Y010200D01*
X015815Y010234D01*
X015746Y010303D01*
X015679Y010235D01*
X015109Y010235D01*
X014996Y010122D01*
X014879Y010005D01*
X015896Y010005D01*
X015896Y010105D02*
X014979Y010105D01*
X014996Y010122D02*
X014996Y010005D01*
X014896Y010005D02*
X014896Y010022D01*
X014879Y010005D02*
X014521Y010005D01*
X014521Y010005D01*
X015160Y010005D01*
X015252Y009914D01*
X015736Y009914D01*
X015824Y009826D01*
X015824Y009146D01*
X015736Y009059D01*
X015641Y009059D01*
X015759Y008941D01*
X015824Y008784D01*
X015824Y008614D01*
X015759Y008457D01*
X015639Y008336D01*
X015563Y008305D01*
X015596Y008291D02*
X015596Y008319D01*
X015820Y008605D02*
X015896Y008605D01*
X015896Y008705D02*
X015824Y008705D01*
X015815Y008805D02*
X015896Y008805D01*
X015896Y008905D02*
X015774Y008905D01*
X015796Y008850D02*
X015796Y009119D01*
X015782Y009105D02*
X015896Y009105D01*
X015896Y009205D02*
X015824Y009205D01*
X015824Y009305D02*
X015896Y009305D01*
X015896Y009405D02*
X015824Y009405D01*
X015824Y009505D02*
X015896Y009505D01*
X015896Y009605D02*
X015824Y009605D01*
X015824Y009705D02*
X015896Y009705D01*
X015896Y009805D02*
X015824Y009805D01*
X015796Y009853D02*
X015796Y010252D01*
X015696Y010253D02*
X015696Y009914D01*
X015745Y009905D02*
X015896Y009905D01*
X015596Y009914D02*
X015596Y010235D01*
X015496Y010235D02*
X015496Y009914D01*
X015396Y009914D02*
X015396Y010235D01*
X015296Y010235D02*
X015296Y009914D01*
X015196Y009969D02*
X015196Y010235D01*
X015096Y010222D02*
X015096Y010005D01*
X015079Y010205D02*
X015885Y010205D01*
X015766Y010728D02*
X015766Y011087D01*
X015702Y011151D01*
X015752Y011172D01*
X015771Y011191D01*
X015771Y010793D01*
X015786Y010778D01*
X015786Y010748D01*
X015766Y010728D01*
X015766Y010805D02*
X015771Y010805D01*
X015766Y010905D02*
X015771Y010905D01*
X015766Y011005D02*
X015771Y011005D01*
X015771Y011105D02*
X015749Y011105D01*
X015848Y011293D02*
X015871Y011316D01*
X015861Y011325D01*
X015848Y011293D01*
X015853Y011305D02*
X015860Y011305D01*
X016096Y011605D02*
X016696Y011005D01*
X016696Y011605D02*
X016696Y011705D01*
X016996Y012005D01*
X017696Y012005D01*
X017996Y011705D01*
X017996Y010105D01*
X017896Y010005D01*
X016696Y010005D01*
X015396Y009486D02*
X015078Y009805D01*
X014196Y009805D01*
X014521Y009605D02*
X014969Y009605D01*
X014969Y009383D01*
X014968Y009386D01*
X014878Y009476D01*
X014760Y009525D01*
X014633Y009525D01*
X014515Y009476D01*
X014488Y009450D01*
X014433Y009505D01*
X014585Y009505D01*
X014596Y009510D02*
X014596Y009605D01*
X014521Y009593D02*
X014521Y009605D01*
X014521Y009593D02*
X014433Y009505D01*
X014496Y009458D02*
X014496Y009568D01*
X014696Y009605D02*
X014696Y009525D01*
X014796Y009510D02*
X014796Y009605D01*
X014896Y009605D02*
X014896Y009458D01*
X014949Y009405D02*
X014969Y009405D01*
X014969Y009505D02*
X014808Y009505D01*
X014696Y009205D02*
X014196Y009205D01*
X013596Y008495D02*
X013596Y006558D01*
X013615Y006576D02*
X013525Y006486D01*
X013476Y006369D01*
X013476Y006241D01*
X013525Y006124D01*
X013615Y006034D01*
X013733Y005985D01*
X013860Y005985D01*
X013978Y006034D01*
X014049Y006105D01*
X014414Y006105D01*
X014296Y006105D02*
X014296Y006030D01*
X014196Y006030D02*
X014196Y006105D01*
X014096Y006105D02*
X014096Y006030D01*
X013996Y006030D02*
X013996Y006052D01*
X013960Y006005D02*
X013908Y006005D01*
X013896Y006000D02*
X013896Y005942D01*
X013871Y005905D02*
X012791Y005905D01*
X012777Y005805D02*
X013871Y005805D01*
X013796Y005985D02*
X013796Y005405D01*
X013696Y005405D02*
X013696Y006000D01*
X013685Y006005D02*
X012534Y006005D01*
X012596Y005967D02*
X012596Y006043D01*
X012696Y006043D02*
X012696Y005967D01*
X012791Y006105D02*
X013544Y006105D01*
X013596Y006052D02*
X013596Y005405D01*
X013396Y005458D02*
X013396Y006452D01*
X013449Y006505D02*
X013544Y006505D01*
X013615Y006576D02*
X013733Y006625D01*
X013871Y006705D02*
X013516Y006705D01*
X013501Y006805D02*
X013871Y006805D01*
X013871Y006905D02*
X013449Y006905D01*
X013396Y006958D02*
X013396Y008495D01*
X013296Y008495D02*
X013296Y007010D01*
X013308Y007005D02*
X013871Y007005D01*
X013916Y007205D02*
X012779Y007205D01*
X012779Y007305D02*
X013901Y007305D01*
X013996Y007367D02*
X013996Y007443D01*
X014096Y007443D02*
X014096Y007367D01*
X014159Y007405D02*
X012779Y007405D01*
X012779Y007505D02*
X013901Y007505D01*
X013916Y007605D02*
X012779Y007605D01*
X012796Y007648D02*
X012796Y006935D01*
X012696Y006935D02*
X012696Y007108D01*
X013196Y007025D02*
X013196Y008495D01*
X013496Y008495D02*
X013496Y006817D01*
X013196Y006385D02*
X013196Y005525D01*
X013196Y005205D02*
X014096Y005205D01*
X014196Y005105D01*
X014521Y005105D02*
X014969Y005105D01*
X014969Y005005D02*
X014521Y005005D01*
X014521Y004905D02*
X015010Y004905D01*
X014996Y004919D02*
X014996Y004650D01*
X014978Y004605D02*
X014521Y004605D01*
X014521Y004505D02*
X014969Y004505D01*
X014969Y004584D02*
X014969Y004414D01*
X014986Y004372D01*
X014720Y004105D01*
X014521Y004105D01*
X014521Y004117D01*
X014433Y004205D01*
X014820Y004205D01*
X014796Y004182D02*
X014796Y005505D01*
X014895Y005505D02*
X014969Y005431D01*
X014969Y004946D01*
X015057Y004859D01*
X015152Y004859D01*
X015034Y004741D01*
X014969Y004584D01*
X015019Y004705D02*
X014521Y004705D01*
X014521Y004717D02*
X014433Y004805D01*
X015098Y004805D01*
X015096Y004803D02*
X015096Y004859D01*
X015396Y004499D02*
X014803Y003905D01*
X014196Y003905D01*
X013896Y004142D02*
X013896Y004268D01*
X013871Y004293D02*
X013871Y004305D01*
X013614Y004305D01*
X013501Y004305D01*
X013501Y004275D02*
X013501Y004385D01*
X013534Y004385D01*
X013614Y004305D01*
X013596Y004322D02*
X013596Y004275D01*
X013650Y004275D02*
X013501Y004275D01*
X013650Y004275D02*
X013749Y004234D01*
X013825Y004158D01*
X013871Y004112D01*
X013871Y004117D01*
X013960Y004205D01*
X013871Y004293D01*
X013796Y004305D02*
X013796Y004187D01*
X013778Y004205D02*
X013960Y004205D01*
X013696Y004256D02*
X013696Y004305D01*
X013696Y004505D02*
X013496Y004705D01*
X013696Y004505D02*
X014196Y004505D01*
X014521Y004405D02*
X014973Y004405D01*
X014920Y004305D02*
X014521Y004305D01*
X014521Y004293D02*
X014521Y004717D01*
X014496Y004742D02*
X014496Y004868D01*
X014521Y004893D02*
X014521Y005317D01*
X014433Y005405D01*
X014969Y005405D01*
X014969Y005305D02*
X014521Y005305D01*
X014496Y005342D02*
X014496Y005468D01*
X014521Y005493D02*
X014521Y005505D01*
X014895Y005505D01*
X014896Y005503D02*
X014896Y004282D01*
X014720Y004105D02*
X014521Y004105D01*
X014496Y004142D02*
X014496Y004268D01*
X014521Y004293D02*
X014433Y004205D01*
X014596Y004105D02*
X014596Y005505D01*
X014521Y005493D02*
X014433Y005405D01*
X014696Y005505D02*
X014696Y004105D01*
X014696Y003705D02*
X014696Y003587D01*
X014685Y003575D02*
X014463Y003575D01*
X014433Y003605D01*
X014715Y003605D01*
X014685Y003575D02*
X014815Y003705D01*
X014521Y003705D01*
X014521Y003693D01*
X014433Y003605D01*
X014496Y003575D02*
X014496Y003668D01*
X014596Y003705D02*
X014596Y003575D01*
X014796Y003687D02*
X014796Y003705D01*
X015178Y003305D02*
X015260Y003305D01*
X015269Y003301D02*
X015208Y003276D01*
X015143Y003233D01*
X015088Y003177D01*
X015044Y003112D01*
X015014Y003040D01*
X014999Y002963D01*
X014999Y002953D01*
X015368Y002953D01*
X015368Y002895D01*
X015425Y002895D01*
X015425Y002526D01*
X015436Y002526D01*
X015512Y002542D01*
X015585Y002572D01*
X015650Y002615D01*
X015705Y002671D01*
X015749Y002736D01*
X015779Y002808D01*
X015794Y002885D01*
X015794Y002895D01*
X015425Y002895D01*
X015425Y002953D01*
X015794Y002953D01*
X015794Y002963D01*
X015779Y003040D01*
X015749Y003112D01*
X015705Y003177D01*
X015650Y003233D01*
X015585Y003276D01*
X015524Y003301D01*
X015639Y003349D01*
X015691Y003401D01*
X015896Y003401D01*
X015896Y001905D01*
X015761Y001905D01*
X015491Y002175D01*
X015102Y002175D01*
X014826Y001900D01*
X014826Y001510D01*
X015022Y001315D01*
X015012Y001315D01*
X014892Y001435D01*
X014691Y001435D01*
X014766Y001510D01*
X014766Y001900D01*
X014491Y002175D01*
X014102Y002175D01*
X013826Y001900D01*
X013826Y001510D01*
X013902Y001435D01*
X013691Y001435D01*
X013766Y001510D01*
X013766Y001900D01*
X013491Y002175D01*
X013123Y002175D01*
X012783Y002515D01*
X012406Y002515D01*
X012406Y004618D01*
X012573Y004785D01*
X012660Y004785D01*
X012778Y004834D01*
X012868Y004924D01*
X012916Y005041D01*
X012916Y005045D01*
X012925Y005024D01*
X013015Y004934D01*
X013133Y004885D01*
X013225Y004885D01*
X013176Y004769D01*
X013176Y004641D01*
X013225Y004524D01*
X013228Y004521D01*
X012580Y004521D01*
X012492Y004433D01*
X012492Y003679D01*
X012580Y003591D01*
X013413Y003591D01*
X013426Y003605D01*
X013426Y003363D01*
X013424Y003365D01*
X013397Y003381D01*
X013367Y003389D01*
X013046Y003389D01*
X013046Y003004D01*
X012946Y003004D01*
X012946Y002904D01*
X012522Y002904D01*
X012522Y002623D01*
X012530Y002593D01*
X012546Y002565D01*
X012568Y002543D01*
X012596Y002527D01*
X012626Y002519D01*
X012946Y002519D01*
X012946Y002904D01*
X013046Y002904D01*
X013046Y002519D01*
X013367Y002519D01*
X013397Y002527D01*
X013424Y002543D01*
X013447Y002565D01*
X013463Y002593D01*
X013471Y002623D01*
X013471Y002904D01*
X013046Y002904D01*
X013046Y003004D01*
X013471Y003004D01*
X013471Y003249D01*
X013544Y003176D01*
X013644Y003076D01*
X013743Y003035D01*
X013930Y003035D01*
X013985Y002980D01*
X013987Y002980D01*
X013965Y002967D01*
X013934Y002937D01*
X013913Y002899D01*
X013901Y002858D01*
X013901Y002743D01*
X014159Y002743D01*
X014159Y002667D01*
X014234Y002667D01*
X014234Y002410D01*
X014349Y002410D01*
X014391Y002421D01*
X014428Y002443D01*
X014459Y002473D01*
X014480Y002511D01*
X014491Y002552D01*
X014491Y002667D01*
X014234Y002667D01*
X014234Y002743D01*
X014491Y002743D01*
X014491Y002858D01*
X014480Y002899D01*
X014459Y002937D01*
X014428Y002967D01*
X014406Y002980D01*
X014408Y002980D01*
X014463Y003035D01*
X014850Y003035D01*
X014949Y003076D01*
X015025Y003152D01*
X015202Y003329D01*
X015269Y003301D01*
X015196Y003323D02*
X015196Y003268D01*
X015115Y003205D02*
X015078Y003205D01*
X015096Y003223D02*
X015096Y003186D01*
X015025Y003152D02*
X015025Y003152D01*
X014996Y003123D02*
X014996Y002070D01*
X015032Y002105D02*
X014561Y002105D01*
X014596Y002070D02*
X014596Y003035D01*
X014496Y003035D02*
X014496Y002170D01*
X014396Y002175D02*
X014396Y002424D01*
X014296Y002410D02*
X014296Y002175D01*
X014196Y002175D02*
X014196Y002667D01*
X014159Y002667D02*
X014159Y002410D01*
X014044Y002410D01*
X014002Y002421D01*
X013965Y002443D01*
X013934Y002473D01*
X013913Y002511D01*
X013901Y002552D01*
X013901Y002667D01*
X014159Y002667D01*
X014159Y002705D02*
X013471Y002705D01*
X013471Y002805D02*
X013901Y002805D01*
X013916Y002905D02*
X013046Y002905D01*
X012996Y002904D02*
X012996Y002302D01*
X012993Y002305D02*
X015896Y002305D01*
X015896Y002205D02*
X013093Y002205D01*
X013096Y002202D02*
X013096Y002519D01*
X013046Y002605D02*
X012946Y002605D01*
X012896Y002519D02*
X012896Y002402D01*
X012893Y002405D02*
X015896Y002405D01*
X015896Y002505D02*
X014477Y002505D01*
X014491Y002605D02*
X015158Y002605D01*
X015143Y002615D02*
X015208Y002572D01*
X015281Y002542D01*
X015357Y002526D01*
X015368Y002526D01*
X015368Y002895D01*
X014999Y002895D01*
X014999Y002885D01*
X015014Y002808D01*
X015044Y002736D01*
X015088Y002671D01*
X015143Y002615D01*
X015196Y002579D02*
X015196Y002175D01*
X015096Y002170D02*
X015096Y002662D01*
X015065Y002705D02*
X014234Y002705D01*
X014296Y002667D02*
X014296Y002743D01*
X014396Y002743D02*
X014396Y002667D01*
X014491Y002805D02*
X015015Y002805D01*
X015096Y002895D02*
X015096Y002953D01*
X015196Y002953D02*
X015196Y002895D01*
X015296Y002895D02*
X015296Y002953D01*
X015368Y002905D02*
X014477Y002905D01*
X014433Y003005D02*
X015007Y003005D01*
X014978Y003105D02*
X015041Y003105D01*
X014896Y003054D02*
X014896Y001970D01*
X014932Y002005D02*
X014661Y002005D01*
X014696Y001970D02*
X014696Y003035D01*
X014796Y003035D02*
X014796Y001435D01*
X014761Y001505D02*
X014832Y001505D01*
X014896Y001440D02*
X014896Y001430D01*
X014922Y001405D02*
X014932Y001405D01*
X014996Y001340D02*
X014996Y001330D01*
X015205Y001235D02*
X015321Y001235D01*
X015321Y001150D01*
X015344Y001096D01*
X015205Y001235D01*
X015235Y001205D02*
X015321Y001205D01*
X015296Y001235D02*
X015296Y001143D01*
X015335Y001105D02*
X015340Y001105D01*
X015379Y001034D02*
X015441Y000972D01*
X015542Y000930D01*
X015651Y000930D01*
X015752Y000972D01*
X015830Y001049D01*
X015871Y001150D01*
X015871Y001260D01*
X015830Y001361D01*
X015752Y001438D01*
X015711Y001455D01*
X015761Y001505D01*
X015896Y001505D01*
X015896Y000385D01*
X015393Y000385D01*
X015416Y000441D01*
X015416Y000569D01*
X015406Y000593D01*
X015406Y000967D01*
X015379Y001034D01*
X015396Y001016D02*
X015396Y000991D01*
X015391Y001005D02*
X015408Y001005D01*
X015406Y000905D02*
X015896Y000905D01*
X015896Y001005D02*
X015785Y001005D01*
X015796Y001016D02*
X015796Y000385D01*
X015696Y000385D02*
X015696Y000949D01*
X015596Y000930D02*
X015596Y000385D01*
X015496Y000385D02*
X015496Y000949D01*
X015406Y000805D02*
X015896Y000805D01*
X015896Y000705D02*
X015406Y000705D01*
X015406Y000605D02*
X015896Y000605D01*
X015896Y000505D02*
X015416Y000505D01*
X015401Y000405D02*
X015896Y000405D01*
X015396Y000385D02*
X015396Y000393D01*
X014800Y000385D02*
X014741Y000385D01*
X014741Y000667D01*
X014334Y000667D01*
X014334Y000743D01*
X014741Y000743D01*
X014741Y000822D01*
X014786Y000777D01*
X014786Y000593D01*
X014776Y000569D01*
X014776Y000441D01*
X014800Y000385D01*
X014796Y000385D02*
X014796Y000393D01*
X014792Y000405D02*
X014741Y000405D01*
X014741Y000505D02*
X014776Y000505D01*
X014786Y000605D02*
X014741Y000605D01*
X014696Y000667D02*
X014696Y000743D01*
X014741Y000805D02*
X014758Y000805D01*
X014786Y000705D02*
X014334Y000705D01*
X014396Y000667D02*
X014396Y000743D01*
X014496Y000743D02*
X014496Y000667D01*
X014596Y000667D02*
X014596Y000743D01*
X014259Y000743D02*
X014259Y000667D01*
X013851Y000667D01*
X013851Y000385D01*
X013606Y000385D01*
X013636Y000415D01*
X013677Y000472D01*
X013709Y000534D01*
X013730Y000601D01*
X013741Y000667D01*
X013334Y000667D01*
X013334Y000743D01*
X013741Y000743D01*
X013730Y000809D01*
X013709Y000876D01*
X013677Y000938D01*
X013650Y000975D01*
X013851Y000975D01*
X013851Y000743D01*
X014259Y000743D01*
X014259Y000705D02*
X013334Y000705D01*
X013396Y000667D02*
X013396Y000743D01*
X013496Y000743D02*
X013496Y000667D01*
X013596Y000667D02*
X013596Y000743D01*
X013696Y000743D02*
X013696Y000667D01*
X013731Y000605D02*
X013851Y000605D01*
X013896Y000667D02*
X013896Y000743D01*
X013851Y000805D02*
X013731Y000805D01*
X013696Y000900D02*
X013696Y000975D01*
X013694Y000905D02*
X013851Y000905D01*
X013796Y000975D02*
X013796Y000385D01*
X013851Y000405D02*
X013626Y000405D01*
X013696Y000385D02*
X013696Y000510D01*
X013694Y000505D02*
X013851Y000505D01*
X013996Y000667D02*
X013996Y000743D01*
X014096Y000743D02*
X014096Y000667D01*
X014196Y000667D02*
X014196Y000743D01*
X013259Y000743D02*
X013259Y000667D01*
X012852Y000667D01*
X012862Y000601D01*
X012884Y000534D01*
X012916Y000472D01*
X012957Y000415D01*
X012987Y000385D01*
X012648Y000385D01*
X012699Y000436D01*
X012771Y000611D01*
X012771Y000755D01*
X012880Y000863D01*
X012862Y000809D01*
X012852Y000743D01*
X013259Y000743D01*
X013259Y000705D02*
X012771Y000705D01*
X012796Y000780D02*
X012796Y000385D01*
X012696Y000385D02*
X012696Y000433D01*
X012668Y000405D02*
X012967Y000405D01*
X012896Y000385D02*
X012896Y000510D01*
X012899Y000505D02*
X012728Y000505D01*
X012769Y000605D02*
X012862Y000605D01*
X012896Y000667D02*
X012896Y000743D01*
X012862Y000805D02*
X012822Y000805D01*
X012996Y000743D02*
X012996Y000667D01*
X013096Y000667D02*
X013096Y000743D01*
X013196Y000743D02*
X013196Y000667D01*
X012666Y001300D02*
X012501Y001135D01*
X012391Y001180D01*
X012202Y001180D01*
X012027Y001108D01*
X011894Y000974D01*
X011821Y000799D01*
X011821Y000611D01*
X011894Y000436D01*
X011945Y000385D01*
X011648Y000385D01*
X011699Y000436D01*
X011771Y000611D01*
X011771Y000799D01*
X011699Y000974D01*
X011566Y001108D01*
X011391Y001180D01*
X011202Y001180D01*
X011133Y001151D01*
X010879Y001405D01*
X010661Y001405D01*
X010766Y001510D01*
X010766Y001605D01*
X010779Y001605D01*
X010826Y001605D01*
X010796Y001622D02*
X010796Y001405D01*
X010696Y001405D02*
X010696Y001440D01*
X010661Y001405D02*
X010932Y001405D01*
X010896Y001388D02*
X010896Y001440D01*
X010832Y001505D02*
X010761Y001505D01*
X010826Y001510D02*
X010826Y001652D01*
X010779Y001605D01*
X010826Y001510D02*
X011102Y001235D01*
X011491Y001235D01*
X011766Y001510D01*
X011766Y001838D01*
X011826Y001778D01*
X011826Y001510D01*
X012102Y001235D01*
X012491Y001235D01*
X012766Y001510D01*
X012766Y001900D01*
X012571Y002095D01*
X012609Y002095D01*
X012826Y001878D01*
X012826Y001510D01*
X012902Y001435D01*
X012801Y001435D01*
X012666Y001300D01*
X012671Y001305D02*
X012561Y001305D01*
X012596Y001340D02*
X012596Y001230D01*
X012571Y001205D02*
X011079Y001205D01*
X011096Y001188D02*
X011096Y001240D01*
X011032Y001305D02*
X010979Y001305D01*
X010996Y001288D02*
X010996Y001340D01*
X011196Y001235D02*
X011196Y001178D01*
X011296Y001180D02*
X011296Y001235D01*
X011396Y001235D02*
X011396Y001178D01*
X011496Y001136D02*
X011496Y001240D01*
X011561Y001305D02*
X012032Y001305D01*
X011996Y001340D02*
X011996Y001077D01*
X012025Y001105D02*
X011568Y001105D01*
X011596Y001077D02*
X011596Y001340D01*
X011661Y001405D02*
X011932Y001405D01*
X011896Y001440D02*
X011896Y000977D01*
X011925Y001005D02*
X011668Y001005D01*
X011696Y000977D02*
X011696Y001440D01*
X011761Y001505D02*
X011832Y001505D01*
X011826Y001605D02*
X011766Y001605D01*
X011766Y001705D02*
X011826Y001705D01*
X011799Y001805D02*
X011766Y001805D01*
X011796Y001808D02*
X011796Y000385D01*
X011696Y000385D02*
X011696Y000433D01*
X011668Y000405D02*
X011925Y000405D01*
X011896Y000385D02*
X011896Y000433D01*
X011865Y000505D02*
X011728Y000505D01*
X011769Y000605D02*
X011824Y000605D01*
X011821Y000705D02*
X011771Y000705D01*
X011769Y000805D02*
X011824Y000805D01*
X011865Y000905D02*
X011728Y000905D01*
X012096Y001136D02*
X012096Y001240D01*
X012196Y001235D02*
X012196Y001178D01*
X012296Y001180D02*
X012296Y001235D01*
X012396Y001235D02*
X012396Y001178D01*
X012496Y001136D02*
X012496Y001240D01*
X012696Y001330D02*
X012696Y001440D01*
X012661Y001405D02*
X012771Y001405D01*
X012796Y001430D02*
X012796Y001908D01*
X012799Y001905D02*
X012761Y001905D01*
X012696Y001970D02*
X012696Y002008D01*
X012699Y002005D02*
X012661Y002005D01*
X012596Y002070D02*
X012596Y002095D01*
X012766Y001805D02*
X012826Y001805D01*
X012826Y001705D02*
X012766Y001705D01*
X012766Y001605D02*
X012826Y001605D01*
X012832Y001505D02*
X012761Y001505D01*
X012896Y001440D02*
X012896Y001435D01*
X013696Y001435D02*
X013696Y001440D01*
X013761Y001505D02*
X013832Y001505D01*
X013796Y001435D02*
X013796Y003035D01*
X013896Y003035D02*
X013896Y001970D01*
X013932Y002005D02*
X013661Y002005D01*
X013696Y001970D02*
X013696Y003054D01*
X013615Y003105D02*
X013471Y003105D01*
X013471Y003005D02*
X013960Y003005D01*
X013996Y002743D02*
X013996Y002667D01*
X014096Y002667D02*
X014096Y002743D01*
X014159Y002605D02*
X014234Y002605D01*
X014234Y002505D02*
X014159Y002505D01*
X014096Y002410D02*
X014096Y002170D01*
X014032Y002105D02*
X013561Y002105D01*
X013596Y002070D02*
X013596Y003123D01*
X013515Y003205D02*
X013471Y003205D01*
X013496Y003223D02*
X013496Y002170D01*
X013396Y002175D02*
X013396Y002527D01*
X013296Y002519D02*
X013296Y002175D01*
X013196Y002175D02*
X013196Y002519D01*
X013046Y002705D02*
X012946Y002705D01*
X012946Y002805D02*
X013046Y002805D01*
X013096Y002904D02*
X013096Y003004D01*
X013046Y003005D02*
X012946Y003005D01*
X012946Y003004D02*
X012946Y003389D01*
X012626Y003389D01*
X012596Y003381D01*
X012568Y003365D01*
X012546Y003342D01*
X012530Y003315D01*
X012522Y003285D01*
X012522Y003004D01*
X012946Y003004D01*
X012896Y003004D02*
X012896Y002904D01*
X012946Y002905D02*
X012406Y002905D01*
X012406Y002805D02*
X012522Y002805D01*
X012522Y002705D02*
X012406Y002705D01*
X012406Y002605D02*
X012527Y002605D01*
X012496Y002515D02*
X012496Y003675D01*
X012492Y003705D02*
X012406Y003705D01*
X012406Y003605D02*
X012566Y003605D01*
X012596Y003591D02*
X012596Y003381D01*
X012696Y003389D02*
X012696Y003591D01*
X012796Y003591D02*
X012796Y003389D01*
X012896Y003389D02*
X012896Y003591D01*
X012996Y003591D02*
X012996Y003004D01*
X012946Y003105D02*
X013046Y003105D01*
X013046Y003205D02*
X012946Y003205D01*
X012946Y003305D02*
X013046Y003305D01*
X013096Y003389D02*
X013096Y003591D01*
X013196Y003591D02*
X013196Y003389D01*
X013296Y003389D02*
X013296Y003591D01*
X013396Y003591D02*
X013396Y003381D01*
X013426Y003405D02*
X012406Y003405D01*
X012406Y003305D02*
X012528Y003305D01*
X012522Y003205D02*
X012406Y003205D01*
X012406Y003105D02*
X012522Y003105D01*
X012522Y003005D02*
X012406Y003005D01*
X012596Y003004D02*
X012596Y002904D01*
X012696Y002904D02*
X012696Y003004D01*
X012796Y003004D02*
X012796Y002904D01*
X013196Y002904D02*
X013196Y003004D01*
X013296Y003004D02*
X013296Y002904D01*
X013396Y002904D02*
X013396Y003004D01*
X013466Y002605D02*
X013901Y002605D01*
X013916Y002505D02*
X012793Y002505D01*
X012796Y002502D02*
X012796Y002519D01*
X012696Y002515D02*
X012696Y002519D01*
X012596Y002515D02*
X012596Y002527D01*
X012099Y002205D02*
X012006Y002205D01*
X012006Y002192D02*
X012006Y002298D01*
X012086Y002218D01*
X012129Y002175D01*
X012102Y002175D01*
X012063Y002136D01*
X012006Y002192D01*
X012096Y002208D02*
X012096Y002170D01*
X011586Y002205D02*
X011496Y002205D01*
X011496Y002170D02*
X011496Y004022D01*
X011586Y004112D01*
X011586Y002080D01*
X011496Y002170D01*
X011496Y004022D01*
X011496Y004005D02*
X011586Y004005D01*
X011586Y003905D02*
X011496Y003905D01*
X011496Y003805D02*
X011586Y003805D01*
X011586Y003705D02*
X011496Y003705D01*
X011496Y003605D02*
X011586Y003605D01*
X011586Y003505D02*
X011496Y003505D01*
X011496Y003405D02*
X011586Y003405D01*
X011586Y003305D02*
X011496Y003305D01*
X011496Y003205D02*
X011586Y003205D01*
X011586Y003105D02*
X011496Y003105D01*
X011496Y003005D02*
X011586Y003005D01*
X011586Y002905D02*
X011496Y002905D01*
X011496Y002805D02*
X011586Y002805D01*
X011586Y002705D02*
X011496Y002705D01*
X011496Y002605D02*
X011586Y002605D01*
X011586Y002505D02*
X011496Y002505D01*
X011496Y002405D02*
X011586Y002405D01*
X011586Y002305D02*
X011496Y002305D01*
X011561Y002105D02*
X011586Y002105D01*
X011296Y001705D02*
X011296Y004105D01*
X011396Y004205D01*
X011396Y004913D01*
X011586Y005103D01*
X011609Y004843D02*
X011637Y004843D01*
X011596Y004802D01*
X011596Y004830D01*
X011609Y004843D01*
X011596Y004830D02*
X011596Y004802D01*
X011596Y004805D02*
X011599Y004805D01*
X010999Y004515D02*
X010999Y002107D01*
X010696Y001805D01*
X010396Y001805D01*
X010296Y001705D01*
X009826Y001705D02*
X009766Y001705D01*
X009766Y001618D02*
X009766Y001900D01*
X009496Y002170D01*
X009496Y002722D01*
X009579Y002805D01*
X010094Y002805D01*
X010098Y002796D01*
X010188Y002706D01*
X010305Y002657D01*
X010376Y002657D01*
X010376Y002541D01*
X010425Y002424D01*
X010515Y002334D01*
X010633Y002285D01*
X010760Y002285D01*
X010799Y002301D01*
X010799Y002190D01*
X010637Y002029D01*
X010491Y002175D01*
X010102Y002175D01*
X009826Y001900D01*
X009826Y001558D01*
X009766Y001618D01*
X009779Y001605D02*
X009826Y001605D01*
X009796Y001588D02*
X009796Y002805D01*
X009696Y002805D02*
X009696Y001970D01*
X009661Y002005D02*
X009932Y002005D01*
X009896Y001970D02*
X009896Y002805D01*
X009996Y002805D02*
X009996Y002070D01*
X010032Y002105D02*
X009561Y002105D01*
X009596Y002070D02*
X009596Y002805D01*
X009496Y002722D02*
X009496Y002170D01*
X009496Y002205D02*
X010799Y002205D01*
X010796Y002188D02*
X010796Y002300D01*
X010696Y002285D02*
X010696Y002088D01*
X010714Y002105D02*
X010561Y002105D01*
X010596Y002070D02*
X010596Y002300D01*
X010585Y002305D02*
X009496Y002305D01*
X009496Y002405D02*
X010444Y002405D01*
X010496Y002352D02*
X010496Y002170D01*
X010396Y002175D02*
X010396Y002493D01*
X010392Y002505D02*
X009496Y002505D01*
X009496Y002605D02*
X010376Y002605D01*
X010296Y002661D02*
X010296Y002175D01*
X010196Y002175D02*
X010196Y002703D01*
X010190Y002705D02*
X009496Y002705D01*
X009296Y002805D02*
X009496Y003005D01*
X010341Y003005D01*
X010369Y002977D01*
X010096Y002799D02*
X010096Y002170D01*
X009832Y001905D02*
X009761Y001905D01*
X009766Y001805D02*
X009826Y001805D01*
X009396Y001705D02*
X009896Y001205D01*
X010796Y001205D01*
X011296Y000705D01*
X010821Y000705D02*
X010771Y000705D01*
X010771Y000611D02*
X010771Y000799D01*
X010699Y000974D01*
X010668Y001005D01*
X010714Y001005D01*
X010850Y000869D01*
X010821Y000799D01*
X010821Y000611D01*
X010894Y000436D01*
X010945Y000385D01*
X010648Y000385D01*
X010699Y000436D01*
X010771Y000611D01*
X010769Y000605D02*
X010824Y000605D01*
X010865Y000505D02*
X010728Y000505D01*
X010696Y000433D02*
X010696Y000385D01*
X010668Y000405D02*
X010925Y000405D01*
X010896Y000385D02*
X010896Y000433D01*
X010796Y000385D02*
X010796Y000922D01*
X010814Y000905D02*
X010728Y000905D01*
X010696Y000977D02*
X010696Y001005D01*
X010769Y000805D02*
X010824Y000805D01*
X010296Y000705D02*
X010096Y000905D01*
X009796Y000905D01*
X009496Y001205D01*
X008496Y001205D01*
X008296Y001405D01*
X008296Y001705D01*
X008896Y002305D01*
X008896Y002605D01*
X008576Y002605D02*
X008496Y002605D01*
X008496Y002558D02*
X008496Y004122D01*
X008556Y004181D01*
X008622Y004115D01*
X008954Y004115D01*
X008925Y004086D01*
X008876Y003969D01*
X008876Y003841D01*
X008925Y003724D01*
X009015Y003634D01*
X009133Y003585D01*
X009260Y003585D01*
X009276Y003592D01*
X009276Y003541D01*
X009325Y003424D01*
X009415Y003334D01*
X009533Y003285D01*
X009660Y003285D01*
X009694Y003299D01*
X009725Y003224D01*
X009744Y003205D01*
X009414Y003205D01*
X009296Y003088D01*
X009296Y003493D01*
X009292Y003505D02*
X008496Y003505D01*
X008496Y003405D02*
X009344Y003405D01*
X009396Y003352D02*
X009396Y003188D01*
X009496Y003205D02*
X009496Y003300D01*
X009485Y003305D02*
X008496Y003305D01*
X008496Y003205D02*
X009744Y003205D01*
X009696Y003205D02*
X009696Y003293D01*
X009596Y003285D02*
X009596Y003205D01*
X009314Y003105D02*
X008496Y003105D01*
X008496Y003005D02*
X009214Y003005D01*
X009196Y002988D02*
X009196Y003585D01*
X009096Y003600D02*
X009096Y002888D01*
X009096Y002858D01*
X009078Y002876D01*
X008960Y002925D01*
X008833Y002925D01*
X008715Y002876D01*
X008625Y002786D01*
X008576Y002669D01*
X008576Y002541D01*
X008625Y002424D01*
X008679Y002370D01*
X008616Y002308D01*
X008616Y002369D01*
X008568Y002486D01*
X008496Y002558D01*
X008496Y004122D01*
X008496Y004105D02*
X008944Y004105D01*
X008896Y004115D02*
X008896Y004017D01*
X008892Y004005D02*
X008496Y004005D01*
X008496Y003905D02*
X008876Y003905D01*
X008892Y003805D02*
X008496Y003805D01*
X008496Y003705D02*
X008944Y003705D01*
X008996Y003652D02*
X008996Y002910D01*
X009008Y002905D02*
X009114Y002905D01*
X009096Y002888D02*
X009296Y003088D01*
X008896Y002925D02*
X008896Y003793D01*
X009085Y003605D02*
X008496Y003605D01*
X008096Y003610D02*
X008096Y004122D01*
X008096Y004288D01*
X008096Y004400D01*
X008085Y004405D02*
X007906Y004405D01*
X007906Y004305D02*
X008114Y004305D01*
X008096Y004288D02*
X008194Y004385D01*
X008133Y004385D01*
X008015Y004434D01*
X007925Y004524D01*
X007906Y004569D01*
X007906Y004069D01*
X007919Y004049D01*
X007906Y003984D01*
X007906Y003918D01*
X007890Y003901D01*
X007885Y003879D01*
X007830Y003842D01*
X007783Y003795D01*
X007760Y003795D01*
X007530Y003642D01*
X007483Y003595D01*
X007460Y003595D01*
X007441Y003582D01*
X007376Y003595D01*
X007121Y003595D01*
X007121Y003593D01*
X007033Y003505D01*
X007260Y003505D01*
X007285Y003530D02*
X007171Y003417D01*
X007171Y003405D01*
X007121Y003405D01*
X007121Y003417D01*
X007033Y003505D01*
X007096Y003442D02*
X007096Y003568D01*
X007196Y003595D02*
X007196Y003442D01*
X007171Y003405D02*
X007121Y003405D01*
X007285Y003530D02*
X007708Y003530D01*
X007738Y003500D01*
X007815Y003576D01*
X007933Y003625D01*
X008060Y003625D01*
X008096Y003610D01*
X008096Y003705D02*
X007625Y003705D01*
X007596Y003686D02*
X007596Y003530D01*
X007496Y003530D02*
X007496Y003608D01*
X007493Y003605D02*
X007885Y003605D01*
X007896Y003610D02*
X007896Y003908D01*
X007893Y003905D02*
X008096Y003905D01*
X008096Y003805D02*
X007793Y003805D01*
X007796Y003808D02*
X007796Y003558D01*
X007744Y003505D02*
X007733Y003505D01*
X007696Y003530D02*
X007696Y003753D01*
X007396Y003591D02*
X007396Y003530D01*
X007296Y003530D02*
X007296Y003595D01*
X007296Y004015D02*
X007296Y006385D01*
X007233Y006385D02*
X007360Y006385D01*
X007478Y006434D01*
X007568Y006524D01*
X007616Y006641D01*
X007616Y006643D01*
X007696Y006722D01*
X007806Y006722D01*
X007806Y006190D01*
X007836Y006160D01*
X007836Y006053D01*
X008201Y006053D01*
X008201Y006043D01*
X007836Y006043D01*
X007836Y005935D01*
X007807Y005905D01*
X007760Y005925D01*
X007633Y005925D01*
X007515Y005876D01*
X007425Y005786D01*
X007376Y005669D01*
X007376Y005541D01*
X007425Y005424D01*
X007486Y005362D01*
X007486Y004117D01*
X007333Y004015D01*
X007121Y004015D01*
X007121Y004017D01*
X007008Y004130D01*
X007006Y004130D01*
X007028Y004143D01*
X007059Y004173D01*
X007080Y004211D01*
X007091Y004252D01*
X007091Y004367D01*
X006834Y004367D01*
X006834Y004443D01*
X007091Y004443D01*
X007091Y004558D01*
X007080Y004599D01*
X007059Y004637D01*
X007028Y004667D01*
X007006Y004680D01*
X007008Y004680D01*
X007121Y004793D01*
X007121Y005217D01*
X007008Y005330D01*
X007006Y005330D01*
X007028Y005343D01*
X007059Y005373D01*
X007080Y005411D01*
X007091Y005452D01*
X007091Y005567D01*
X006834Y005567D01*
X006834Y005643D01*
X006759Y005643D01*
X006759Y005900D01*
X006644Y005900D01*
X006602Y005889D01*
X006565Y005867D01*
X006534Y005837D01*
X006513Y005799D01*
X006501Y005758D01*
X006501Y005643D01*
X006759Y005643D01*
X006759Y005567D01*
X006501Y005567D01*
X006501Y005452D01*
X006513Y005411D01*
X006534Y005373D01*
X006565Y005343D01*
X006587Y005330D01*
X006585Y005330D01*
X006530Y005275D01*
X006379Y005275D01*
X006378Y005276D01*
X006260Y005325D01*
X006133Y005325D01*
X006015Y005276D01*
X005925Y005186D01*
X005921Y005177D01*
X005921Y005217D01*
X005808Y005330D01*
X005806Y005330D01*
X005828Y005343D01*
X005859Y005373D01*
X005880Y005411D01*
X005891Y005452D01*
X005891Y005567D01*
X005634Y005567D01*
X005634Y005643D01*
X005634Y005839D01*
X005559Y005870D01*
X005559Y005643D01*
X005634Y005643D01*
X005891Y005643D01*
X005891Y005758D01*
X005880Y005799D01*
X005860Y005835D01*
X006250Y005835D01*
X006349Y005876D01*
X006425Y005952D01*
X006499Y006026D01*
X006540Y006125D01*
X006540Y006279D01*
X006556Y006295D01*
X006556Y006651D01*
X006565Y006643D01*
X006602Y006621D01*
X006644Y006610D01*
X006759Y006610D01*
X006759Y006867D01*
X006834Y006867D01*
X006834Y006610D01*
X006949Y006610D01*
X006985Y006620D01*
X007025Y006524D01*
X007115Y006434D01*
X007233Y006385D01*
X007196Y006400D02*
X007196Y004015D01*
X007096Y004042D02*
X007096Y004768D01*
X007121Y004805D02*
X007486Y004805D01*
X007486Y004705D02*
X007033Y004705D01*
X007077Y004605D02*
X007486Y004605D01*
X007486Y004505D02*
X007091Y004505D01*
X006996Y004443D02*
X006996Y004367D01*
X006896Y004367D02*
X006896Y004443D01*
X006834Y004405D02*
X007486Y004405D01*
X007486Y004305D02*
X007091Y004305D01*
X007077Y004205D02*
X007486Y004205D01*
X007468Y004105D02*
X007033Y004105D01*
X007396Y004057D02*
X007396Y005493D01*
X007392Y005505D02*
X007091Y005505D01*
X007077Y005405D02*
X007444Y005405D01*
X007486Y005305D02*
X007033Y005305D01*
X007096Y005242D02*
X007096Y006452D01*
X007044Y006505D02*
X006556Y006505D01*
X006556Y006405D02*
X007185Y006405D01*
X007396Y006400D02*
X007396Y005717D01*
X007392Y005705D02*
X007091Y005705D01*
X007091Y005758D02*
X007080Y005799D01*
X007059Y005837D01*
X007028Y005867D01*
X006991Y005889D01*
X006949Y005900D01*
X006834Y005900D01*
X006834Y005643D01*
X007091Y005643D01*
X007091Y005758D01*
X007077Y005805D02*
X007444Y005805D01*
X007496Y005858D02*
X007496Y006452D01*
X007549Y006505D02*
X007806Y006505D01*
X007806Y006405D02*
X007408Y006405D01*
X007596Y006593D02*
X007596Y005910D01*
X007585Y005905D02*
X006378Y005905D01*
X006396Y005923D02*
X006396Y005275D01*
X006308Y005305D02*
X006560Y005305D01*
X006496Y005275D02*
X006496Y006023D01*
X006478Y006005D02*
X007836Y006005D01*
X007896Y006043D02*
X007896Y006053D01*
X007836Y006105D02*
X006532Y006105D01*
X006540Y006205D02*
X007806Y006205D01*
X007806Y006305D02*
X006556Y006305D01*
X006556Y006605D02*
X006992Y006605D01*
X006996Y006593D02*
X006996Y005886D01*
X006896Y005900D02*
X006896Y006610D01*
X006834Y006705D02*
X006759Y006705D01*
X006759Y006805D02*
X006834Y006805D01*
X006796Y006867D02*
X006796Y005643D01*
X006759Y005605D02*
X005634Y005605D01*
X005596Y005643D02*
X005596Y005854D01*
X005559Y005805D02*
X005634Y005805D01*
X005634Y005705D02*
X005559Y005705D01*
X005696Y005643D02*
X005696Y005567D01*
X005796Y005567D02*
X005796Y005643D01*
X005891Y005705D02*
X006501Y005705D01*
X006516Y005805D02*
X005877Y005805D01*
X005896Y005835D02*
X005896Y005242D01*
X005921Y005205D02*
X005944Y005205D01*
X005996Y005258D02*
X005996Y005835D01*
X006096Y005835D02*
X006096Y005310D01*
X006085Y005305D02*
X005833Y005305D01*
X005877Y005405D02*
X006516Y005405D01*
X006501Y005505D02*
X005891Y005505D01*
X006196Y005325D02*
X006196Y005835D01*
X006296Y005854D02*
X006296Y005310D01*
X006596Y005567D02*
X006596Y005643D01*
X006696Y005643D02*
X006696Y005567D01*
X006834Y005605D02*
X007376Y005605D01*
X006996Y005567D02*
X006996Y005643D01*
X006896Y005643D02*
X006896Y005567D01*
X006834Y005705D02*
X006759Y005705D01*
X006759Y005805D02*
X006834Y005805D01*
X006696Y005900D02*
X006696Y006610D01*
X006596Y006624D02*
X006596Y005886D01*
X007121Y005205D02*
X007486Y005205D01*
X007486Y005105D02*
X007121Y005105D01*
X007121Y005005D02*
X007486Y005005D01*
X007486Y004905D02*
X007121Y004905D01*
X006587Y004680D02*
X006565Y004667D01*
X006534Y004637D01*
X006513Y004599D01*
X006501Y004558D01*
X006501Y004443D01*
X006759Y004443D01*
X006759Y004367D01*
X006501Y004367D01*
X006501Y004252D01*
X006513Y004211D01*
X006534Y004173D01*
X006565Y004143D01*
X006587Y004130D01*
X006585Y004130D01*
X006471Y004017D01*
X006471Y003977D01*
X006468Y003986D01*
X006378Y004076D01*
X006260Y004125D01*
X006133Y004125D01*
X006015Y004076D01*
X005925Y003986D01*
X005921Y003977D01*
X005921Y004017D01*
X005808Y004130D01*
X005806Y004130D01*
X005828Y004143D01*
X005859Y004173D01*
X005880Y004211D01*
X005891Y004252D01*
X005891Y004367D01*
X005634Y004367D01*
X005634Y004443D01*
X005891Y004443D01*
X005891Y004558D01*
X005880Y004599D01*
X005859Y004637D01*
X005828Y004667D01*
X005806Y004680D01*
X005808Y004680D01*
X005921Y004793D01*
X005921Y004833D01*
X005925Y004824D01*
X006015Y004734D01*
X006133Y004685D01*
X006260Y004685D01*
X006378Y004734D01*
X006379Y004735D01*
X006530Y004735D01*
X006585Y004680D01*
X006587Y004680D01*
X006560Y004705D02*
X006308Y004705D01*
X006296Y004700D02*
X006296Y004110D01*
X006308Y004105D02*
X006560Y004105D01*
X006496Y004042D02*
X006496Y004735D01*
X006396Y004735D02*
X006396Y004058D01*
X006449Y004005D02*
X006471Y004005D01*
X006516Y004205D02*
X005877Y004205D01*
X005891Y004305D02*
X006501Y004305D01*
X006596Y004367D02*
X006596Y004443D01*
X006696Y004443D02*
X006696Y004367D01*
X006759Y004405D02*
X005634Y004405D01*
X005696Y004367D02*
X005696Y004443D01*
X005796Y004443D02*
X005796Y004367D01*
X005891Y004505D02*
X006501Y004505D01*
X006516Y004605D02*
X005877Y004605D01*
X005833Y004705D02*
X006085Y004705D01*
X006096Y004700D02*
X006096Y004110D01*
X006085Y004105D02*
X005833Y004105D01*
X005896Y004042D02*
X005896Y004768D01*
X005921Y004805D02*
X005944Y004805D01*
X005996Y004752D02*
X005996Y004058D01*
X005944Y004005D02*
X005921Y004005D01*
X006196Y004125D02*
X006196Y004685D01*
X006196Y003805D02*
X005996Y003605D01*
X005996Y002105D01*
X006296Y001805D01*
X006296Y001705D01*
X005896Y001440D02*
X005896Y001405D01*
X005932Y001405D02*
X005661Y001405D01*
X005766Y001510D01*
X005766Y001793D01*
X005825Y001852D01*
X005826Y001855D01*
X005826Y001510D01*
X005932Y001405D01*
X005661Y001405D01*
X005696Y001405D02*
X005696Y001440D01*
X005761Y001505D02*
X005832Y001505D01*
X005826Y001605D02*
X005766Y001605D01*
X005766Y001705D02*
X005826Y001705D01*
X005826Y001805D02*
X005778Y001805D01*
X005796Y001823D02*
X005796Y001405D01*
X005796Y001005D02*
X005796Y000385D01*
X005696Y000385D02*
X005696Y001005D01*
X005596Y001005D02*
X005596Y000385D01*
X005496Y000385D02*
X005496Y001005D01*
X005396Y001005D02*
X005396Y000385D01*
X005296Y000385D02*
X005296Y000553D01*
X005276Y000505D02*
X005832Y000505D01*
X005826Y000510D02*
X005952Y000385D01*
X005212Y000385D01*
X005237Y000410D01*
X005316Y000602D01*
X005316Y000808D01*
X005237Y001000D01*
X005232Y001005D01*
X005932Y001005D01*
X005826Y000900D01*
X005826Y000510D01*
X005826Y000605D02*
X005316Y000605D01*
X005316Y000705D02*
X005826Y000705D01*
X005826Y000805D02*
X005316Y000805D01*
X005296Y000857D02*
X005296Y001005D01*
X005276Y000905D02*
X005832Y000905D01*
X005896Y000970D02*
X005896Y001005D01*
X005896Y000440D02*
X005896Y000385D01*
X005932Y000405D02*
X005232Y000405D01*
X004381Y000385D02*
X004212Y000385D01*
X004237Y000410D01*
X004296Y000553D01*
X004296Y000385D01*
X004356Y000410D02*
X004296Y000553D01*
X004276Y000505D02*
X004316Y000505D01*
X004356Y000410D02*
X004381Y000385D01*
X004361Y000405D02*
X004232Y000405D01*
X004296Y000857D02*
X004237Y001000D01*
X004232Y001005D01*
X004361Y001005D01*
X004356Y001000D01*
X004296Y000857D01*
X004296Y001005D01*
X004276Y000905D02*
X004316Y000905D01*
X004619Y001405D02*
X004736Y001523D01*
X004736Y001655D01*
X004346Y001655D01*
X004346Y001755D01*
X004736Y001755D01*
X004736Y001887D01*
X004479Y002145D01*
X004474Y002145D01*
X004549Y002176D01*
X004625Y002252D01*
X004653Y002280D01*
X004776Y002280D01*
X004776Y002241D01*
X004825Y002124D01*
X004915Y002034D01*
X004947Y002020D01*
X004826Y001900D01*
X004826Y001510D01*
X004932Y001405D01*
X004619Y001405D01*
X004932Y001405D01*
X004896Y001405D02*
X004896Y001440D01*
X004832Y001505D02*
X004719Y001505D01*
X004696Y001483D02*
X004696Y001405D01*
X004796Y001405D02*
X004796Y002193D01*
X004792Y002205D02*
X004578Y002205D01*
X004596Y002223D02*
X004596Y002027D01*
X004619Y002005D02*
X004932Y002005D01*
X004896Y001970D02*
X004896Y002052D01*
X004844Y002105D02*
X004519Y002105D01*
X004496Y002127D02*
X004496Y002154D01*
X004696Y002280D02*
X004696Y001927D01*
X004719Y001905D02*
X004832Y001905D01*
X004826Y001805D02*
X004736Y001805D01*
X004696Y001755D02*
X004696Y001655D01*
X004736Y001605D02*
X004826Y001605D01*
X004826Y001705D02*
X004346Y001705D01*
X004396Y001655D02*
X004396Y001755D01*
X004496Y001755D02*
X004496Y001655D01*
X004596Y001655D02*
X004596Y001755D01*
X003696Y001205D02*
X006696Y001205D01*
X006796Y001305D01*
X006796Y002605D01*
X006471Y002605D02*
X006196Y002605D01*
X006196Y002505D02*
X006471Y002505D01*
X006471Y002405D02*
X006196Y002405D01*
X006196Y002305D02*
X006560Y002305D01*
X006585Y002280D02*
X006596Y002280D01*
X006596Y002070D01*
X006491Y002175D01*
X006209Y002175D01*
X006196Y002188D01*
X006196Y003485D01*
X006260Y003485D01*
X006378Y003534D01*
X006468Y003624D01*
X006471Y003633D01*
X006471Y003593D01*
X006560Y003505D01*
X006308Y003505D01*
X006296Y003500D02*
X006296Y002175D01*
X006196Y002188D02*
X006196Y003485D01*
X006196Y003405D02*
X006471Y003405D01*
X006471Y003417D02*
X006471Y002993D01*
X006560Y002905D01*
X006196Y002905D01*
X006196Y002805D02*
X006471Y002805D01*
X006471Y002817D02*
X006471Y002393D01*
X006585Y002280D01*
X006596Y002205D02*
X006196Y002205D01*
X006396Y002175D02*
X006396Y003552D01*
X006449Y003605D02*
X006471Y003605D01*
X006496Y003568D02*
X006496Y003442D01*
X006471Y003417D02*
X006560Y003505D01*
X006471Y003305D02*
X006196Y003305D01*
X006196Y003205D02*
X006471Y003205D01*
X006471Y003105D02*
X006196Y003105D01*
X006196Y003005D02*
X006471Y003005D01*
X006496Y002968D02*
X006496Y002842D01*
X006471Y002817D02*
X006560Y002905D01*
X006471Y002705D02*
X006196Y002705D01*
X006496Y002368D02*
X006496Y002170D01*
X006561Y002105D02*
X006596Y002105D01*
X006996Y002105D02*
X007032Y002105D01*
X006996Y002070D02*
X006996Y002280D01*
X007008Y002280D01*
X007121Y002393D01*
X007121Y002817D01*
X007033Y002905D01*
X007260Y002905D01*
X007171Y002817D01*
X007171Y002393D01*
X007285Y002280D01*
X007596Y002280D01*
X007596Y002070D01*
X007491Y002175D01*
X007102Y002175D01*
X006996Y002070D01*
X006996Y002280D01*
X007033Y002305D02*
X007260Y002305D01*
X007296Y002280D02*
X007296Y002175D01*
X007196Y002175D02*
X007196Y002368D01*
X007171Y002405D02*
X007121Y002405D01*
X007096Y002368D02*
X007096Y002170D01*
X006996Y002205D02*
X007596Y002205D01*
X007596Y002105D02*
X007561Y002105D01*
X007496Y002170D02*
X007496Y002280D01*
X007396Y002280D02*
X007396Y002175D01*
X007796Y002405D02*
X007796Y001405D01*
X008196Y001005D01*
X008996Y001005D01*
X009296Y000705D01*
X008945Y000385D02*
X007599Y000385D01*
X007736Y000523D01*
X007736Y000655D01*
X007346Y000655D01*
X007346Y000755D01*
X007246Y000755D01*
X007246Y000655D01*
X006856Y000655D01*
X006856Y000523D01*
X006994Y000385D01*
X006641Y000385D01*
X006766Y000510D01*
X006766Y000900D01*
X006661Y001005D01*
X006779Y001005D01*
X006974Y001005D01*
X006996Y001027D02*
X006996Y001340D01*
X007102Y001235D01*
X007491Y001235D01*
X007596Y001340D01*
X007596Y001322D01*
X007596Y001027D01*
X007619Y001005D02*
X007914Y001005D01*
X007896Y001022D02*
X007896Y000385D01*
X007796Y000385D02*
X007796Y001122D01*
X007814Y001105D02*
X007519Y001105D01*
X007496Y001127D02*
X007496Y001240D01*
X007561Y001305D02*
X007614Y001305D01*
X007596Y001322D02*
X007996Y000922D01*
X007996Y000385D01*
X008096Y000385D02*
X008096Y000822D01*
X008114Y000805D02*
X007736Y000805D01*
X007736Y000755D02*
X007736Y000887D01*
X007479Y001145D01*
X007346Y001145D01*
X007346Y000755D01*
X007736Y000755D01*
X007696Y000755D02*
X007696Y000655D01*
X007736Y000605D02*
X008824Y000605D01*
X008821Y000611D02*
X008894Y000436D01*
X008945Y000385D01*
X008925Y000405D02*
X007619Y000405D01*
X007696Y000385D02*
X007696Y000483D01*
X007719Y000505D02*
X008865Y000505D01*
X008896Y000433D02*
X008896Y000385D01*
X008796Y000385D02*
X008796Y000805D01*
X008821Y000799D02*
X008824Y000805D01*
X008114Y000805D01*
X007996Y000922D01*
X008014Y000905D02*
X007719Y000905D01*
X007696Y000927D02*
X007696Y001222D01*
X007714Y001205D02*
X006979Y001205D01*
X006996Y001222D02*
X006879Y001105D01*
X007074Y001105D01*
X007096Y001127D02*
X007096Y001240D01*
X007032Y001305D02*
X006996Y001305D01*
X006996Y001340D02*
X006996Y001222D01*
X006896Y001122D02*
X006896Y000927D01*
X006874Y000905D02*
X006761Y000905D01*
X006696Y000970D02*
X006696Y001005D01*
X006779Y001005D02*
X006879Y001105D01*
X006796Y001022D02*
X006796Y000385D01*
X006696Y000385D02*
X006696Y000440D01*
X006661Y000405D02*
X006974Y000405D01*
X006896Y000385D02*
X006896Y000483D01*
X006874Y000505D02*
X006761Y000505D01*
X006766Y000605D02*
X006856Y000605D01*
X006896Y000655D02*
X006896Y000755D01*
X006856Y000755D02*
X007246Y000755D01*
X007246Y001145D01*
X007114Y001145D01*
X006856Y000887D01*
X006856Y000755D01*
X006856Y000805D02*
X006766Y000805D01*
X006766Y000705D02*
X007246Y000705D01*
X007196Y000655D02*
X007196Y000755D01*
X007246Y000805D02*
X007346Y000805D01*
X007296Y000755D02*
X007296Y001235D01*
X007196Y001235D02*
X007196Y001145D01*
X007246Y001105D02*
X007346Y001105D01*
X007396Y001145D02*
X007396Y001235D01*
X007346Y001005D02*
X007246Y001005D01*
X007246Y000905D02*
X007346Y000905D01*
X007396Y000755D02*
X007396Y000655D01*
X007346Y000705D02*
X008821Y000705D01*
X008821Y000799D02*
X008821Y000611D01*
X008696Y000805D02*
X008696Y000385D01*
X008596Y000385D02*
X008596Y000805D01*
X008496Y000805D02*
X008496Y000385D01*
X008396Y000385D02*
X008396Y000805D01*
X008296Y000805D02*
X008296Y000385D01*
X008196Y000385D02*
X008196Y000805D01*
X007596Y000755D02*
X007596Y000655D01*
X007496Y000655D02*
X007496Y000755D01*
X007096Y000755D02*
X007096Y000655D01*
X006996Y000655D02*
X006996Y000755D01*
X008661Y001405D02*
X008766Y001510D01*
X008766Y001892D01*
X009096Y002222D01*
X009096Y002352D01*
X009096Y002352D01*
X009096Y002170D01*
X008826Y001900D01*
X008826Y001510D01*
X008932Y001405D01*
X008661Y001405D01*
X008932Y001405D01*
X008896Y001405D02*
X008896Y001440D01*
X008832Y001505D02*
X008761Y001505D01*
X008696Y001440D02*
X008696Y001405D01*
X008796Y001405D02*
X008796Y001922D01*
X008779Y001905D02*
X008832Y001905D01*
X008896Y001970D02*
X008896Y002022D01*
X008879Y002005D02*
X008932Y002005D01*
X008996Y002070D02*
X008996Y002122D01*
X008979Y002105D02*
X009032Y002105D01*
X009079Y002205D02*
X009096Y002205D01*
X009096Y002305D02*
X009096Y002305D01*
X008644Y002405D02*
X008601Y002405D01*
X008596Y002417D02*
X008596Y002493D01*
X008592Y002505D02*
X008549Y002505D01*
X008592Y002705D02*
X008496Y002705D01*
X008496Y002805D02*
X008644Y002805D01*
X008696Y002858D02*
X008696Y004115D01*
X008796Y004115D02*
X008796Y002910D01*
X008785Y002905D02*
X008496Y002905D01*
X008596Y002717D02*
X008596Y004141D01*
X008296Y004205D02*
X008596Y004505D01*
X008784Y004505D01*
X008794Y004515D01*
X008534Y004705D02*
X008516Y004705D01*
X008516Y004769D01*
X008486Y004843D01*
X008519Y004843D01*
X008606Y004931D01*
X008606Y005218D01*
X008797Y005218D01*
X008776Y005169D01*
X008776Y005041D01*
X008825Y004924D01*
X008834Y004915D01*
X008622Y004915D01*
X008534Y004827D01*
X008534Y004705D01*
X008516Y004705D01*
X008501Y004805D02*
X008534Y004805D01*
X008496Y004817D02*
X008496Y004843D01*
X008581Y004905D02*
X008612Y004905D01*
X008596Y004889D02*
X008596Y004921D01*
X008606Y005005D02*
X008792Y005005D01*
X008796Y004993D02*
X008796Y004915D01*
X008696Y004915D02*
X008696Y005218D01*
X008606Y005205D02*
X008792Y005205D01*
X008796Y005217D02*
X008796Y005218D01*
X008776Y005105D02*
X008606Y005105D01*
X008206Y005418D02*
X010009Y005418D01*
X010296Y005705D01*
X010296Y006705D01*
X010196Y006805D01*
X009896Y006805D01*
X009696Y007005D01*
X009696Y007305D01*
X009985Y007446D02*
X009968Y007486D01*
X009959Y007495D01*
X010060Y007495D01*
X010015Y007476D01*
X009985Y007446D01*
X009996Y007458D02*
X009996Y007495D01*
X010196Y007205D02*
X010496Y006905D01*
X010496Y005605D01*
X010054Y005162D01*
X010054Y004515D01*
X010054Y003462D01*
X009996Y003405D01*
X009739Y003648D02*
X009596Y003605D01*
X009739Y003648D02*
X009739Y004515D01*
X009424Y004515D02*
X009424Y003933D01*
X009196Y003905D01*
X008296Y004205D02*
X008296Y002305D01*
X007996Y002193D02*
X007996Y002070D01*
X007996Y002193D01*
X008025Y002124D01*
X008038Y002111D01*
X007996Y002070D01*
X007996Y002105D02*
X008032Y002105D01*
X007996Y002417D02*
X007996Y002488D01*
X007879Y002605D01*
X008096Y002605D01*
X008096Y002558D02*
X008025Y002486D01*
X007996Y002417D01*
X007996Y002985D01*
X007933Y002985D02*
X008060Y002985D01*
X008096Y003000D01*
X008096Y002558D01*
X008044Y002505D02*
X007979Y002505D01*
X007896Y002588D02*
X007896Y003000D01*
X007885Y003005D02*
X007933Y002985D01*
X007885Y003005D02*
X007821Y003005D01*
X007821Y002993D01*
X007733Y002905D01*
X008096Y002905D01*
X008096Y002805D02*
X007821Y002805D01*
X007821Y002817D02*
X007821Y002663D01*
X007879Y002605D01*
X007821Y002705D02*
X008096Y002705D01*
X007821Y002817D02*
X007733Y002905D01*
X007796Y002842D02*
X007796Y002968D01*
X007896Y003205D02*
X007496Y003205D01*
X006796Y003205D01*
X007121Y003005D02*
X007171Y003005D01*
X007171Y002993D01*
X007260Y002905D01*
X007196Y002842D02*
X007196Y002968D01*
X007121Y002993D02*
X007033Y002905D01*
X007096Y002842D02*
X007096Y002968D01*
X007121Y002993D02*
X007121Y003005D01*
X007121Y002805D02*
X007171Y002805D01*
X007171Y002705D02*
X007121Y002705D01*
X007121Y002605D02*
X007171Y002605D01*
X007171Y002505D02*
X007121Y002505D01*
X007496Y002605D02*
X007596Y002605D01*
X007796Y002405D01*
X008766Y001805D02*
X008826Y001805D01*
X008826Y001705D02*
X008766Y001705D01*
X008766Y001605D02*
X008826Y001605D01*
X009296Y001705D02*
X009396Y001705D01*
X009296Y001705D02*
X009296Y002805D01*
X007996Y003305D02*
X007896Y003205D01*
X007996Y003625D02*
X007996Y004452D01*
X007944Y004505D02*
X007906Y004505D01*
X007906Y004205D02*
X008096Y004205D01*
X008096Y004105D02*
X007906Y004105D01*
X007911Y004005D02*
X008096Y004005D01*
X009359Y004915D02*
X009368Y004924D01*
X009416Y005041D01*
X009416Y005169D01*
X009396Y005218D01*
X009854Y005218D01*
X009854Y005080D01*
X009854Y004915D01*
X009359Y004915D01*
X009396Y004915D02*
X009396Y004993D01*
X009401Y005005D02*
X009854Y005005D01*
X009854Y005105D02*
X009416Y005105D01*
X009401Y005205D02*
X009854Y005205D01*
X009796Y005218D02*
X009796Y004915D01*
X009696Y004915D02*
X009696Y005218D01*
X009596Y005218D02*
X009596Y004915D01*
X009496Y004915D02*
X009496Y005218D01*
X009396Y005217D02*
X009396Y005218D01*
X009396Y005618D02*
X009396Y005922D01*
X009414Y005905D02*
X009101Y005905D01*
X009096Y005917D02*
X009096Y006193D01*
X009101Y006205D02*
X009196Y006205D01*
X009196Y006122D02*
X009196Y005618D01*
X009096Y005618D02*
X009096Y005693D01*
X009101Y005705D02*
X010014Y005705D01*
X009996Y005688D02*
X009996Y005785D01*
X009933Y005785D02*
X010060Y005785D01*
X010096Y005800D01*
X010096Y005788D01*
X009926Y005618D01*
X009062Y005618D01*
X009068Y005624D01*
X009116Y005741D01*
X009116Y005869D01*
X009068Y005986D01*
X008999Y006055D01*
X009068Y006124D01*
X009116Y006241D01*
X009116Y006369D01*
X009071Y006477D01*
X009196Y006477D01*
X009196Y006122D01*
X009296Y006022D01*
X009296Y005618D01*
X009496Y005618D02*
X009496Y005905D01*
X009414Y005905D02*
X009296Y006022D01*
X009314Y006005D02*
X009049Y006005D01*
X009049Y006105D02*
X009214Y006105D01*
X009396Y006205D02*
X009496Y006105D01*
X009996Y006105D01*
X009744Y005905D02*
X009815Y005834D01*
X009933Y005785D01*
X009896Y005800D02*
X009896Y005618D01*
X009796Y005618D02*
X009796Y005852D01*
X009744Y005905D02*
X009414Y005905D01*
X009596Y005905D02*
X009596Y005618D01*
X009696Y005618D02*
X009696Y005905D01*
X009885Y005805D02*
X009116Y005805D01*
X009396Y006205D02*
X009396Y006605D01*
X009324Y006677D01*
X008206Y006677D01*
X007806Y006705D02*
X007678Y006705D01*
X007696Y006722D02*
X007696Y005925D01*
X007796Y005910D02*
X007796Y006722D01*
X007806Y006605D02*
X007601Y006605D01*
X007996Y006053D02*
X007996Y006043D01*
X008096Y006043D02*
X008096Y006053D01*
X008196Y006043D02*
X008196Y006053D01*
X009116Y006305D02*
X009196Y006305D01*
X009196Y006405D02*
X009101Y006405D01*
X009096Y006417D02*
X009096Y006477D01*
X009596Y006505D02*
X010096Y006505D01*
X010060Y006425D02*
X009933Y006425D01*
X009815Y006376D01*
X009744Y006305D01*
X009596Y006305D01*
X009596Y006688D01*
X009479Y006805D01*
X009614Y006805D01*
X009814Y006605D01*
X009596Y006605D01*
X009579Y006705D02*
X009714Y006705D01*
X009696Y006722D02*
X009696Y006305D01*
X009744Y006305D02*
X009596Y006305D01*
X009596Y006822D01*
X009614Y006805D02*
X009496Y006922D01*
X009496Y006788D01*
X009479Y006805D02*
X009407Y006877D01*
X008606Y006877D01*
X008606Y007479D01*
X008519Y007567D01*
X008416Y007567D01*
X008416Y008245D01*
X008425Y008224D01*
X008515Y008134D01*
X008534Y008126D01*
X008534Y007583D01*
X008622Y007495D01*
X009434Y007495D01*
X009425Y007486D01*
X009376Y007369D01*
X009376Y007241D01*
X009425Y007124D01*
X009496Y007052D01*
X009496Y006922D01*
X009514Y006905D02*
X008606Y006905D01*
X008696Y006877D02*
X008696Y007495D01*
X008612Y007505D02*
X008581Y007505D01*
X008596Y007489D02*
X008596Y007521D01*
X008534Y007605D02*
X008416Y007605D01*
X008496Y007567D02*
X008496Y008152D01*
X008534Y008105D02*
X008416Y008105D01*
X008416Y008005D02*
X008534Y008005D01*
X008534Y007905D02*
X008416Y007905D01*
X008416Y007805D02*
X008534Y007805D01*
X008534Y007705D02*
X008416Y007705D01*
X007996Y007705D02*
X007908Y007705D01*
X007896Y007700D02*
X007896Y007658D01*
X007878Y007676D02*
X007857Y007685D01*
X007860Y007685D01*
X007978Y007734D01*
X007996Y007752D01*
X007996Y007567D01*
X007976Y007567D01*
X007968Y007586D01*
X007878Y007676D01*
X007949Y007605D02*
X007996Y007605D01*
X007636Y007725D02*
X007633Y007725D01*
X007526Y007681D01*
X007526Y007822D01*
X007615Y007734D01*
X007636Y007725D01*
X007596Y007710D02*
X007596Y007752D01*
X007585Y007705D02*
X007526Y007705D01*
X007526Y007805D02*
X007544Y007805D01*
X007066Y007238D02*
X007066Y007123D01*
X007059Y007137D01*
X007028Y007167D01*
X007006Y007180D01*
X007008Y007180D01*
X007066Y007238D01*
X007066Y007205D02*
X007033Y007205D01*
X008606Y007205D02*
X009392Y007205D01*
X009396Y007193D02*
X009396Y006877D01*
X009296Y006877D02*
X009296Y007495D01*
X009196Y007495D02*
X009196Y006877D01*
X009096Y006877D02*
X009096Y007495D01*
X008996Y007495D02*
X008996Y006877D01*
X008896Y006877D02*
X008896Y007495D01*
X008796Y007495D02*
X008796Y006877D01*
X008606Y007005D02*
X009496Y007005D01*
X009444Y007105D02*
X008606Y007105D01*
X008606Y007305D02*
X009376Y007305D01*
X009392Y007405D02*
X008606Y007405D01*
X009396Y007417D02*
X009396Y007495D01*
X008444Y008205D02*
X008416Y008205D01*
X009949Y009055D02*
X009949Y009320D01*
X010033Y009285D01*
X010160Y009285D01*
X010193Y009299D01*
X009949Y009055D01*
X009949Y009105D02*
X009999Y009105D01*
X009996Y009102D02*
X009996Y009300D01*
X009985Y009305D02*
X009949Y009305D01*
X009949Y009205D02*
X010099Y009205D01*
X010096Y009202D02*
X010096Y009285D01*
X009286Y009405D02*
X008719Y009405D01*
X008736Y009505D02*
X009286Y009505D01*
X009286Y009605D02*
X008346Y009605D01*
X008296Y009655D02*
X008296Y010235D01*
X008196Y010235D02*
X008196Y010045D01*
X008246Y010005D02*
X008346Y010005D01*
X008396Y010045D02*
X008396Y010235D01*
X008346Y009905D02*
X008246Y009905D01*
X008246Y009805D02*
X008346Y009805D01*
X008346Y009705D02*
X008246Y009705D01*
X008396Y009655D02*
X008396Y009555D01*
X008496Y009555D02*
X008496Y009655D01*
X008596Y009655D02*
X008596Y009555D01*
X008696Y009555D02*
X008696Y009655D01*
X008736Y009705D02*
X009286Y009705D01*
X010596Y010315D02*
X010596Y010340D01*
X010661Y010405D02*
X010699Y010405D01*
X010696Y010402D02*
X010696Y010440D01*
X010761Y010505D02*
X010799Y010505D01*
X010796Y010502D02*
X010796Y012025D01*
X010696Y012025D02*
X010696Y010970D01*
X010661Y011005D02*
X010932Y011005D01*
X010896Y010970D02*
X010896Y012025D01*
X010996Y012025D02*
X010996Y011070D01*
X010832Y010905D02*
X010761Y010905D01*
X010766Y010805D02*
X010826Y010805D01*
X010826Y010705D02*
X010766Y010705D01*
X010766Y010605D02*
X010826Y010605D01*
X007996Y011070D02*
X007996Y012025D01*
X007896Y012025D02*
X007896Y010970D01*
X007932Y011005D02*
X007661Y011005D01*
X007696Y010970D02*
X007696Y012025D01*
X007796Y012025D02*
X007796Y010502D01*
X007799Y010505D02*
X007761Y010505D01*
X007696Y010440D02*
X007696Y010402D01*
X007699Y010405D02*
X007661Y010405D01*
X007596Y010340D02*
X007596Y010302D01*
X007599Y010305D02*
X007561Y010305D01*
X007496Y010240D02*
X007496Y010070D01*
X007561Y010005D02*
X007586Y010005D01*
X007586Y010105D02*
X006996Y010105D01*
X006996Y010122D02*
X006996Y009970D01*
X006996Y010005D02*
X007032Y010005D01*
X007096Y010070D02*
X007096Y010222D01*
X007079Y010205D02*
X007586Y010205D01*
X007396Y010235D02*
X007396Y010075D01*
X007296Y010075D02*
X007296Y010235D01*
X007196Y010235D02*
X007196Y010075D01*
X006714Y010405D02*
X006661Y010405D01*
X006696Y010388D02*
X006696Y010440D01*
X006596Y010205D02*
X006079Y010205D01*
X006096Y010222D02*
X006096Y010070D01*
X006032Y010005D02*
X005896Y010005D01*
X005896Y010022D02*
X005896Y009870D01*
X005896Y009905D02*
X005932Y009905D01*
X005996Y009970D02*
X005996Y010122D01*
X005979Y010105D02*
X006596Y010105D01*
X006596Y010005D02*
X006561Y010005D01*
X006496Y010070D02*
X006496Y010240D01*
X006396Y010235D02*
X006396Y010075D01*
X006296Y010075D02*
X006296Y010235D01*
X006196Y010235D02*
X006196Y010075D01*
X005796Y010488D02*
X005796Y012025D01*
X005696Y012025D02*
X005696Y010970D01*
X005661Y011005D02*
X005932Y011005D01*
X005896Y010970D02*
X005896Y012025D01*
X005996Y012025D02*
X005996Y011070D01*
X005832Y010905D02*
X005761Y010905D01*
X005766Y010805D02*
X005826Y010805D01*
X005826Y010705D02*
X005766Y010705D01*
X005766Y010605D02*
X005826Y010605D01*
X005814Y010505D02*
X005761Y010505D01*
X005696Y010440D02*
X005696Y010388D01*
X005714Y010405D02*
X005661Y010405D01*
X005596Y010340D02*
X005596Y010288D01*
X005614Y010305D02*
X005566Y010258D01*
X005566Y010310D01*
X004832Y010905D02*
X004719Y010905D01*
X004696Y010927D02*
X004696Y012025D01*
X004996Y012025D02*
X004996Y011070D01*
X004596Y010755D02*
X004596Y010655D01*
X004496Y010655D02*
X004496Y010755D01*
X004396Y010755D02*
X004396Y010655D01*
X004346Y010905D02*
X004246Y010905D01*
X004246Y011005D02*
X004346Y011005D01*
X003796Y011405D02*
X015321Y011405D01*
X015340Y011505D02*
X003796Y011505D01*
X003796Y011605D02*
X015408Y011605D01*
X015396Y011594D02*
X015396Y012025D01*
X015496Y012025D02*
X015496Y011661D01*
X015596Y011680D02*
X015596Y012025D01*
X015340Y011305D02*
X003733Y011305D01*
X002896Y011605D02*
X002796Y011605D01*
X002396Y011205D01*
X002396Y010605D01*
X002596Y010405D01*
X003735Y009805D02*
X003914Y009805D01*
X003896Y009822D02*
X003896Y009487D01*
X003796Y009515D02*
X003796Y009457D01*
X004921Y008805D02*
X004946Y008805D01*
X004926Y008705D02*
X004921Y008705D01*
X004921Y008605D02*
X004926Y008605D01*
X004921Y008405D02*
X004926Y008405D01*
X004921Y008305D02*
X004926Y008305D01*
X004921Y008205D02*
X004926Y008205D01*
X004921Y008105D02*
X004926Y008105D01*
X004921Y008005D02*
X004926Y008005D01*
X004921Y007805D02*
X004926Y007805D01*
X004921Y007479D02*
X004926Y007467D01*
X004926Y006717D01*
X004925Y006715D01*
X004843Y006715D01*
X004921Y006793D01*
X004921Y007217D01*
X004833Y007305D01*
X004926Y007305D01*
X004896Y007242D02*
X004896Y007368D01*
X004921Y007393D02*
X004833Y007305D01*
X004921Y007393D02*
X004921Y007479D01*
X004921Y007405D02*
X004926Y007405D01*
X004921Y007205D02*
X004926Y007205D01*
X004921Y007105D02*
X004926Y007105D01*
X004921Y007005D02*
X004926Y007005D01*
X004921Y006905D02*
X004926Y006905D01*
X004921Y006805D02*
X004926Y006805D01*
X004896Y006768D02*
X004896Y006715D01*
X004350Y006715D02*
X004290Y006775D01*
X003915Y006775D01*
X003855Y006715D01*
X004350Y006715D01*
X004296Y006715D02*
X004296Y006768D01*
X004196Y006775D02*
X004196Y006715D01*
X004096Y006715D02*
X004096Y006775D01*
X003996Y006775D02*
X003996Y006715D01*
X003896Y006715D02*
X003896Y006757D01*
X003138Y006715D02*
X002996Y006715D01*
X002996Y008389D01*
X003202Y008389D01*
X003254Y008336D01*
X003330Y008305D01*
X003254Y008274D01*
X003134Y008153D01*
X003069Y007996D01*
X003069Y007826D01*
X003134Y007669D01*
X003252Y007551D01*
X003157Y007551D01*
X003069Y007464D01*
X003069Y006784D01*
X003138Y006715D01*
X003096Y006715D02*
X003096Y006757D01*
X003069Y006805D02*
X002996Y006805D01*
X002996Y006715D02*
X002996Y008389D01*
X002996Y008305D02*
X003330Y008305D01*
X003296Y008291D02*
X003296Y008319D01*
X003196Y008389D02*
X003196Y008216D01*
X003186Y008205D02*
X002996Y008205D01*
X002996Y008105D02*
X003114Y008105D01*
X003096Y008063D02*
X003096Y008389D01*
X003073Y008005D02*
X002996Y008005D01*
X002996Y007905D02*
X003069Y007905D01*
X003078Y007805D02*
X002996Y007805D01*
X002996Y007705D02*
X003119Y007705D01*
X003096Y007760D02*
X003096Y007491D01*
X003110Y007505D02*
X002996Y007505D01*
X002996Y007405D02*
X003069Y007405D01*
X003069Y007305D02*
X002996Y007305D01*
X002996Y007205D02*
X003069Y007205D01*
X003069Y007105D02*
X002996Y007105D01*
X002996Y007005D02*
X003069Y007005D01*
X003069Y006905D02*
X002996Y006905D01*
X003196Y007551D02*
X003196Y007607D01*
X003198Y007605D02*
X002996Y007605D01*
X003741Y007551D02*
X003859Y007669D01*
X003924Y007826D01*
X003924Y007830D01*
X004033Y007785D01*
X004160Y007785D01*
X004278Y007834D01*
X004354Y007910D01*
X004360Y007905D01*
X004349Y007905D01*
X004360Y007905D02*
X004271Y007817D01*
X004271Y007664D01*
X004259Y007676D01*
X004141Y007725D01*
X004014Y007725D01*
X003896Y007676D01*
X003806Y007586D01*
X003792Y007551D01*
X003741Y007551D01*
X003796Y007563D02*
X003796Y007607D01*
X003795Y007605D02*
X003825Y007605D01*
X003896Y007676D02*
X003896Y007760D01*
X003915Y007805D02*
X003985Y007805D01*
X003996Y007800D02*
X003996Y007718D01*
X003966Y007705D02*
X003874Y007705D01*
X004096Y007725D02*
X004096Y007785D01*
X004196Y007800D02*
X004196Y007702D01*
X004189Y007705D02*
X004271Y007705D01*
X004271Y007805D02*
X004208Y007805D01*
X004296Y007842D02*
X004296Y007852D01*
X006149Y009135D02*
X006366Y009135D01*
X006366Y009081D01*
X006260Y009125D01*
X006159Y009125D01*
X006149Y009135D01*
X006196Y009135D02*
X006196Y009125D01*
X006296Y009135D02*
X006296Y009110D01*
X006308Y009105D02*
X006366Y009105D01*
X007766Y010605D02*
X007826Y010605D01*
X007826Y010705D02*
X007766Y010705D01*
X007766Y010805D02*
X007826Y010805D01*
X007832Y010905D02*
X007761Y010905D01*
X012853Y007705D02*
X013960Y007705D01*
X014463Y006535D02*
X014433Y006505D01*
X014615Y006505D01*
X014596Y006488D02*
X014596Y006523D01*
X014585Y006535D02*
X014463Y006535D01*
X014496Y006535D02*
X014496Y006505D01*
X014433Y006505D02*
X014579Y006505D01*
X014696Y006388D01*
X014879Y006205D01*
X014915Y006205D01*
X014879Y006205D01*
X014896Y006205D02*
X014896Y006223D01*
X014915Y006205D02*
X014868Y006252D01*
X014585Y006535D01*
X014696Y006423D02*
X014696Y006388D01*
X014679Y006405D02*
X014715Y006405D01*
X014796Y006323D02*
X014796Y006288D01*
X014779Y006305D02*
X014815Y006305D01*
X014796Y006005D02*
X017096Y006005D01*
X017196Y005905D01*
X017196Y001905D01*
X016996Y001705D01*
X015296Y001705D01*
X014826Y001705D02*
X014766Y001705D01*
X014766Y001605D02*
X014826Y001605D01*
X014696Y001440D02*
X014696Y001435D01*
X014766Y001805D02*
X014826Y001805D01*
X014832Y001905D02*
X014761Y001905D01*
X015296Y002175D02*
X015296Y002539D01*
X015368Y002605D02*
X015425Y002605D01*
X015496Y002539D02*
X015496Y002170D01*
X015561Y002105D02*
X015896Y002105D01*
X015896Y002005D02*
X015661Y002005D01*
X015696Y001970D02*
X015696Y002662D01*
X015728Y002705D02*
X015896Y002705D01*
X015896Y002805D02*
X015777Y002805D01*
X015696Y002895D02*
X015696Y002953D01*
X015596Y002953D02*
X015596Y002895D01*
X015496Y002895D02*
X015496Y002953D01*
X015425Y002905D02*
X015896Y002905D01*
X015896Y003005D02*
X015786Y003005D01*
X015752Y003105D02*
X015896Y003105D01*
X015896Y003205D02*
X015677Y003205D01*
X015696Y003186D02*
X015696Y003401D01*
X015796Y003401D02*
X015796Y001905D01*
X015761Y001905D02*
X015896Y001905D01*
X015596Y002070D02*
X015596Y002579D01*
X015635Y002605D02*
X015896Y002605D01*
X015425Y002705D02*
X015368Y002705D01*
X015368Y002805D02*
X015425Y002805D01*
X015396Y002895D02*
X015396Y002175D01*
X015796Y001505D02*
X015796Y001394D01*
X015785Y001405D02*
X015896Y001405D01*
X015896Y001305D02*
X015853Y001305D01*
X015871Y001205D02*
X015896Y001205D01*
X015896Y001105D02*
X015853Y001105D01*
X013996Y002070D02*
X013996Y002424D01*
X013832Y001905D02*
X013761Y001905D01*
X013766Y001805D02*
X013826Y001805D01*
X013826Y001705D02*
X013766Y001705D01*
X013766Y001605D02*
X013826Y001605D01*
X013896Y001440D02*
X013896Y001435D01*
X015533Y003305D02*
X015896Y003305D01*
X015596Y003331D02*
X015596Y003268D01*
X015691Y004021D02*
X015639Y004074D01*
X015563Y004105D01*
X015896Y004105D01*
X015896Y004021D02*
X015691Y004021D01*
X015696Y004021D02*
X015696Y004194D01*
X015707Y004205D02*
X015896Y004205D01*
X015896Y004305D02*
X015779Y004305D01*
X015796Y004347D02*
X015796Y004021D01*
X015896Y004021D02*
X015896Y005805D01*
X015160Y005805D01*
X015252Y005714D01*
X015736Y005714D01*
X015824Y005626D01*
X015824Y004946D01*
X015736Y004859D01*
X015641Y004859D01*
X015759Y004741D01*
X015824Y004584D01*
X015824Y004414D01*
X015759Y004257D01*
X015639Y004136D01*
X015563Y004105D01*
X015596Y004091D02*
X015596Y004119D01*
X015820Y004405D02*
X015896Y004405D01*
X015896Y004505D02*
X015824Y004505D01*
X015815Y004605D02*
X015896Y004605D01*
X015896Y004705D02*
X015774Y004705D01*
X015796Y004650D02*
X015796Y004919D01*
X015782Y004905D02*
X015896Y004905D01*
X015896Y004805D02*
X015695Y004805D01*
X015696Y004803D02*
X015696Y004859D01*
X015824Y005005D02*
X015896Y005005D01*
X015896Y005105D02*
X015824Y005105D01*
X015824Y005205D02*
X015896Y005205D01*
X015896Y005305D02*
X015824Y005305D01*
X015824Y005405D02*
X015896Y005405D01*
X015896Y005505D02*
X015824Y005505D01*
X015824Y005605D02*
X015896Y005605D01*
X015896Y005705D02*
X015745Y005705D01*
X015696Y005714D02*
X015696Y005805D01*
X015596Y005805D02*
X015596Y005714D01*
X015496Y005714D02*
X015496Y005805D01*
X015396Y005805D02*
X015396Y005714D01*
X015296Y005714D02*
X015296Y005805D01*
X015196Y005805D02*
X015196Y005769D01*
X014978Y005705D02*
X015396Y005286D01*
X014969Y005205D02*
X014521Y005205D01*
X014521Y004893D02*
X014433Y004805D01*
X013960Y004805D02*
X013871Y004717D01*
X013871Y004705D01*
X013816Y004705D01*
X013816Y004769D01*
X013768Y004886D01*
X013678Y004976D01*
X013608Y005005D01*
X013871Y005005D01*
X013871Y004893D01*
X013960Y004805D01*
X013801Y004805D01*
X013796Y004817D02*
X013796Y005005D01*
X013696Y005005D02*
X013696Y004958D01*
X013749Y004905D02*
X013871Y004905D01*
X013896Y004868D02*
X013896Y004742D01*
X013871Y004705D02*
X013816Y004705D01*
X013196Y004817D02*
X013196Y004885D01*
X013192Y004805D02*
X012708Y004805D01*
X012696Y004800D02*
X012696Y004521D01*
X012596Y004521D02*
X012596Y004785D01*
X012496Y004708D02*
X012496Y004438D01*
X012492Y004405D02*
X012406Y004405D01*
X012406Y004305D02*
X012492Y004305D01*
X012492Y004205D02*
X012406Y004205D01*
X012406Y004105D02*
X012492Y004105D01*
X012492Y004005D02*
X012406Y004005D01*
X012406Y003905D02*
X012492Y003905D01*
X012492Y003805D02*
X012406Y003805D01*
X012406Y003505D02*
X013426Y003505D01*
X013196Y004521D02*
X013196Y004593D01*
X013192Y004605D02*
X012406Y004605D01*
X012406Y004505D02*
X012564Y004505D01*
X012493Y004705D02*
X013176Y004705D01*
X013096Y004521D02*
X013096Y004900D01*
X013085Y004905D02*
X012849Y004905D01*
X012796Y004852D02*
X012796Y004521D01*
X012896Y004521D02*
X012896Y004993D01*
X012901Y005005D02*
X012944Y005005D01*
X012996Y004952D02*
X012996Y004521D01*
X012276Y005105D02*
X012206Y005105D01*
X012206Y005205D02*
X012292Y005205D01*
X012296Y005217D02*
X012296Y005724D01*
X012396Y005710D02*
X012396Y005358D01*
X012344Y005305D02*
X012206Y005305D01*
X012206Y005405D02*
X012485Y005405D01*
X012459Y005805D02*
X012534Y005805D01*
X012534Y005905D02*
X012459Y005905D01*
X012396Y005967D02*
X012396Y006043D01*
X012296Y006043D02*
X012296Y005967D01*
X012201Y006105D02*
X011986Y006105D01*
X011986Y006205D02*
X012216Y006205D01*
X011796Y006357D02*
X011796Y006367D01*
X011696Y006357D02*
X011696Y006367D01*
X011596Y006357D02*
X011596Y006367D01*
X010696Y005305D02*
X010496Y005105D01*
X011579Y004105D02*
X011586Y004105D01*
X014196Y005705D02*
X014978Y005705D01*
X015796Y005653D02*
X015796Y005805D01*
X015696Y009003D02*
X015696Y009059D01*
X015695Y009005D02*
X015896Y009005D01*
X014796Y010005D02*
X014796Y010005D01*
X014696Y010005D02*
X014696Y010005D01*
X014596Y010005D02*
X014596Y010005D01*
X014796Y010205D02*
X013896Y010205D01*
X014796Y010205D02*
X015296Y010705D01*
X010096Y006605D02*
X009814Y006605D01*
X009796Y006622D02*
X009796Y006358D01*
X009885Y006405D02*
X009596Y006405D01*
X009896Y006410D02*
X009896Y006605D01*
X009996Y006605D02*
X009996Y006425D01*
X010060Y006425D02*
X010096Y006410D01*
X010096Y006605D01*
X004957Y006095D02*
X004868Y006006D01*
X004826Y005907D01*
X004826Y005868D01*
X004791Y005889D01*
X004749Y005900D01*
X004634Y005900D01*
X004634Y005643D01*
X004559Y005643D01*
X004559Y005900D01*
X004444Y005900D01*
X004402Y005889D01*
X004365Y005867D01*
X004334Y005837D01*
X004313Y005799D01*
X004301Y005758D01*
X004301Y005643D01*
X004559Y005643D01*
X004559Y005567D01*
X004301Y005567D01*
X004301Y005452D01*
X004313Y005411D01*
X004334Y005373D01*
X004365Y005343D01*
X004387Y005330D01*
X004385Y005330D01*
X004271Y005217D01*
X004271Y004793D01*
X004324Y004741D01*
X004256Y004769D01*
X003831Y004769D01*
X003739Y004861D01*
X003624Y004909D01*
X003685Y004934D01*
X003750Y004977D01*
X003805Y005033D01*
X003849Y005098D01*
X003879Y005170D01*
X003894Y005247D01*
X003894Y005257D01*
X003525Y005257D01*
X003525Y005315D01*
X003468Y005315D01*
X003468Y005684D01*
X003457Y005684D01*
X003381Y005668D01*
X003308Y005638D01*
X003243Y005595D01*
X003188Y005539D01*
X003144Y005474D01*
X003114Y005402D01*
X003099Y005325D01*
X003099Y005315D01*
X003468Y005315D01*
X003468Y005257D01*
X003099Y005257D01*
X003099Y005247D01*
X003114Y005170D01*
X003144Y005098D01*
X003188Y005033D01*
X003243Y004977D01*
X003308Y004934D01*
X003369Y004909D01*
X003254Y004861D01*
X003208Y004815D01*
X002996Y004815D01*
X002996Y005695D01*
X003109Y005695D01*
X003133Y005685D01*
X003260Y005685D01*
X003378Y005734D01*
X003468Y005824D01*
X003516Y005941D01*
X003516Y006069D01*
X003506Y006095D01*
X004957Y006095D01*
X004896Y006095D02*
X004896Y006035D01*
X004867Y006005D02*
X003516Y006005D01*
X003501Y005905D02*
X004826Y005905D01*
X004796Y005886D02*
X004796Y006095D01*
X004696Y006095D02*
X004696Y005900D01*
X004634Y005805D02*
X004559Y005805D01*
X004559Y005705D02*
X004634Y005705D01*
X004596Y005643D02*
X004596Y006095D01*
X004496Y006095D02*
X004496Y005900D01*
X004396Y005886D02*
X004396Y006095D01*
X004296Y006095D02*
X004296Y005242D01*
X004271Y005205D02*
X003886Y005205D01*
X003796Y005257D02*
X003796Y005315D01*
X003894Y005315D02*
X003894Y005325D01*
X003879Y005402D01*
X003849Y005474D01*
X003805Y005539D01*
X003750Y005595D01*
X003685Y005638D01*
X003612Y005668D01*
X003536Y005684D01*
X003525Y005684D01*
X003525Y005315D01*
X003894Y005315D01*
X003877Y005405D02*
X004316Y005405D01*
X004301Y005505D02*
X003828Y005505D01*
X003796Y005548D02*
X003796Y006095D01*
X003696Y006095D02*
X003696Y005631D01*
X003735Y005605D02*
X004559Y005605D01*
X004496Y005567D02*
X004496Y005643D01*
X004396Y005643D02*
X004396Y005567D01*
X004301Y005705D02*
X003308Y005705D01*
X003296Y005700D02*
X003296Y005631D01*
X003258Y005605D02*
X002996Y005605D01*
X002996Y005695D02*
X002996Y004815D01*
X002996Y004905D02*
X003360Y004905D01*
X003296Y004879D02*
X003296Y004942D01*
X003215Y005005D02*
X002996Y005005D01*
X002996Y005105D02*
X003141Y005105D01*
X003196Y005024D02*
X003196Y004815D01*
X003096Y004815D02*
X003096Y005695D01*
X003196Y005685D02*
X003196Y005548D01*
X003165Y005505D02*
X002996Y005505D01*
X002996Y005405D02*
X003115Y005405D01*
X003196Y005315D02*
X003196Y005257D01*
X003296Y005257D02*
X003296Y005315D01*
X003396Y005315D02*
X003396Y005257D01*
X003468Y005305D02*
X002996Y005305D01*
X002996Y005205D02*
X003107Y005205D01*
X003496Y005315D02*
X003496Y005893D01*
X003449Y005805D02*
X004316Y005805D01*
X004196Y006095D02*
X004196Y004769D01*
X004271Y004805D02*
X003795Y004805D01*
X003796Y004803D02*
X003796Y005024D01*
X003777Y005005D02*
X004271Y005005D01*
X004271Y005105D02*
X003852Y005105D01*
X003696Y004942D02*
X003696Y004879D01*
X003633Y004905D02*
X004271Y004905D01*
X004296Y004768D02*
X004296Y004752D01*
X004096Y004769D02*
X004096Y006095D01*
X003996Y006095D02*
X003996Y004769D01*
X003896Y004769D02*
X003896Y006095D01*
X003596Y006095D02*
X003596Y005671D01*
X003525Y005605D02*
X003468Y005605D01*
X003396Y005671D02*
X003396Y005752D01*
X003468Y005505D02*
X003525Y005505D01*
X003525Y005405D02*
X003468Y005405D01*
X003525Y005305D02*
X004360Y005305D01*
X003696Y005315D02*
X003696Y005257D01*
X003596Y005257D02*
X003596Y005315D01*
X003831Y004229D02*
X004091Y004229D01*
X004144Y004176D01*
X004243Y004135D01*
X004330Y004135D01*
X004360Y004105D01*
X004330Y004075D01*
X003735Y004075D01*
X003663Y004105D01*
X003739Y004136D01*
X003831Y004229D01*
X003807Y004205D02*
X004115Y004205D01*
X004096Y004223D02*
X004096Y004075D01*
X003996Y004075D02*
X003996Y004229D01*
X003896Y004229D02*
X003896Y004075D01*
X003796Y004075D02*
X003796Y004194D01*
X003696Y004119D02*
X003696Y004091D01*
X003663Y004105D02*
X004360Y004105D01*
X004296Y004075D02*
X004296Y004135D01*
X004196Y004154D02*
X004196Y004075D01*
X004196Y003535D02*
X004196Y003456D01*
X004243Y003475D02*
X004144Y003434D01*
X004068Y003358D01*
X003924Y003214D01*
X003924Y003264D01*
X003836Y003351D01*
X003741Y003351D01*
X003859Y003469D01*
X003886Y003535D01*
X004330Y003535D01*
X004360Y003505D01*
X003874Y003505D01*
X003896Y003535D02*
X003896Y003291D01*
X003882Y003305D02*
X004015Y003305D01*
X003996Y003287D02*
X003996Y003535D01*
X004096Y003535D02*
X004096Y003387D01*
X004115Y003405D02*
X003795Y003405D01*
X003796Y003407D02*
X003796Y003351D01*
X004243Y003475D02*
X004330Y003475D01*
X004360Y003505D01*
X004296Y003475D02*
X004296Y003535D01*
X003252Y003351D02*
X003157Y003351D01*
X003069Y003264D01*
X003069Y002584D01*
X003138Y002515D01*
X002996Y002515D01*
X002996Y004195D01*
X003196Y004195D01*
X003254Y004136D01*
X003330Y004105D01*
X003254Y004074D01*
X003134Y003953D01*
X003069Y003796D01*
X003069Y003626D01*
X003134Y003469D01*
X003252Y003351D01*
X003196Y003351D02*
X003196Y003407D01*
X003198Y003405D02*
X002996Y003405D01*
X002996Y003305D02*
X003110Y003305D01*
X003096Y003291D02*
X003096Y003560D01*
X003078Y003605D02*
X002996Y003605D01*
X002996Y003705D02*
X003069Y003705D01*
X003073Y003805D02*
X002996Y003805D01*
X002996Y003905D02*
X003114Y003905D01*
X003096Y003863D02*
X003096Y004195D01*
X002996Y004195D02*
X002996Y002515D01*
X002996Y002605D02*
X003069Y002605D01*
X003096Y002557D02*
X003096Y002515D01*
X003069Y002705D02*
X002996Y002705D01*
X002996Y002805D02*
X003069Y002805D01*
X003069Y002905D02*
X002996Y002905D01*
X002996Y003005D02*
X003069Y003005D01*
X003069Y003105D02*
X002996Y003105D01*
X002996Y003205D02*
X003069Y003205D01*
X003119Y003505D02*
X002996Y003505D01*
X002996Y004005D02*
X003186Y004005D01*
X003196Y004016D02*
X003196Y004194D01*
X003296Y004119D02*
X003296Y004091D01*
X003330Y004105D02*
X002996Y004105D01*
X004120Y002675D02*
X004168Y002695D01*
X004271Y002798D01*
X004271Y002675D01*
X004120Y002675D01*
X004178Y002705D02*
X004271Y002705D01*
X004196Y002723D02*
X004196Y002675D01*
X003386Y001895D02*
X003386Y001030D01*
X003356Y001000D01*
X003296Y000857D01*
X003296Y001895D01*
X003386Y001895D02*
X002996Y001895D01*
X002996Y001185D01*
X002996Y001895D01*
X002996Y001805D02*
X003386Y001805D01*
X003386Y001705D02*
X002996Y001705D01*
X002996Y001605D02*
X003386Y001605D01*
X003386Y001505D02*
X002996Y001505D01*
X002996Y001405D02*
X003386Y001405D01*
X003386Y001305D02*
X002996Y001305D01*
X002996Y001205D02*
X003386Y001205D01*
X003386Y001105D02*
X003132Y001105D01*
X003096Y001140D02*
X003096Y001895D01*
X003196Y001895D02*
X003196Y001040D01*
X003232Y001005D02*
X003361Y001005D01*
X003316Y000905D02*
X003276Y000905D01*
X003296Y000857D02*
X003237Y001000D01*
X003091Y001146D01*
X002996Y001185D01*
X003296Y000553D02*
X003356Y000410D01*
X003381Y000385D01*
X003212Y000385D01*
X003237Y000410D01*
X003296Y000553D01*
X003296Y000385D01*
X003232Y000405D02*
X003361Y000405D01*
X003316Y000505D02*
X003276Y000505D01*
X009648Y000385D02*
X009699Y000436D01*
X009771Y000611D01*
X009771Y000705D01*
X009821Y000705D01*
X009821Y000611D01*
X009894Y000436D01*
X009945Y000385D01*
X009648Y000385D01*
X009668Y000405D02*
X009925Y000405D01*
X009896Y000385D02*
X009896Y000433D01*
X009865Y000505D02*
X009728Y000505D01*
X009696Y000433D02*
X009696Y000385D01*
X009796Y000385D02*
X009796Y000705D01*
X009769Y000605D02*
X009824Y000605D01*
D28*
X012296Y000705D02*
X012396Y000705D01*
X014996Y001005D02*
X015096Y000905D01*
X015096Y000505D01*
X015178Y002705D02*
X014196Y002705D01*
X015178Y002705D02*
X015396Y002924D01*
X015396Y003711D02*
X016690Y003711D01*
X016696Y003705D01*
X016696Y006405D02*
X015496Y006405D01*
X015396Y007124D02*
X016115Y007124D01*
X016196Y007205D01*
X016696Y007905D02*
X015403Y007905D01*
X015396Y007911D01*
X005456Y007625D02*
X005196Y007625D01*
X004996Y006405D02*
X001596Y006405D01*
X002096Y006005D02*
X003196Y006005D01*
X003490Y004505D02*
X002096Y004505D01*
X003490Y004505D02*
X003496Y004499D01*
X003596Y002205D02*
X002096Y002205D01*
X003596Y002205D02*
X003696Y002105D01*
X003696Y001205D01*
X003696Y000805D01*
X003796Y000705D01*
X003496Y008699D02*
X002103Y008699D01*
X002096Y008705D01*
X004596Y010005D02*
X004596Y010405D01*
X004296Y010705D01*
D29*
X003496Y008005D02*
X003496Y007975D01*
X005456Y007625D02*
X005522Y007617D01*
X006796Y006905D02*
X006786Y006855D01*
X007206Y006048D02*
X007206Y006015D01*
X006759Y005875D02*
X006716Y005875D01*
X006786Y005665D02*
X006796Y005605D01*
X006926Y005595D01*
X006834Y005595D02*
X006786Y005595D01*
X006796Y005605D01*
X007206Y005175D02*
X007296Y005205D01*
X006856Y004475D02*
X006834Y004443D01*
X005736Y005595D02*
X005596Y005605D01*
X005666Y005665D01*
X005634Y005643D01*
X005596Y005665D01*
X005596Y005605D01*
X005596Y005595D01*
X005634Y005567D01*
X005666Y005595D02*
X005596Y005605D01*
X005736Y005665D01*
X005736Y005643D01*
X008186Y006053D02*
X008186Y006085D01*
D30*
X008206Y006362D02*
X008739Y006362D01*
X008796Y006305D01*
X008796Y005805D02*
X008724Y005733D01*
X008206Y005733D01*
X007696Y005605D02*
X007696Y004005D01*
X007396Y003805D01*
X006796Y003805D01*
X008196Y004705D02*
X008206Y004815D01*
X008206Y005103D01*
X009096Y005105D02*
X009109Y004992D01*
X009109Y004515D01*
X010369Y004515D02*
X010369Y002977D01*
X010684Y002792D02*
X010696Y002605D01*
X010684Y002792D02*
X010684Y004515D01*
X011796Y004705D02*
X011996Y004905D01*
X011996Y005418D01*
X011586Y005418D01*
X012196Y004705D02*
X012596Y005105D01*
X012196Y004705D02*
X012196Y002405D01*
X012296Y002305D01*
X012696Y002305D01*
X013296Y001705D01*
X012296Y001705D02*
X012196Y001705D01*
X011796Y002105D01*
X011796Y004705D01*
X011586Y006992D02*
X011599Y007005D01*
X012296Y007005D01*
X012569Y007277D01*
X012569Y008105D01*
X011624Y008105D02*
X011586Y008067D01*
X011586Y007307D01*
X010999Y007895D02*
X010999Y008607D01*
X011096Y008705D01*
X013796Y008705D01*
X014096Y008705D01*
X013496Y009005D02*
X013496Y010105D01*
X014096Y010705D01*
X014296Y010705D01*
X013296Y010705D02*
X013296Y009205D01*
X013196Y009105D01*
X010696Y009105D01*
X010369Y008777D01*
X010369Y007895D01*
X010054Y007895D02*
X010054Y008862D01*
X010596Y009405D01*
X012196Y009405D01*
X012296Y009505D01*
X012296Y010705D01*
X011296Y010705D02*
X010696Y010105D01*
X010296Y010105D01*
X010096Y009905D01*
X010096Y009605D01*
X009739Y010148D02*
X010296Y010705D01*
X009739Y010148D02*
X009739Y007895D01*
X009424Y007895D02*
X009424Y008533D01*
X009496Y008605D01*
X009496Y010505D01*
X009296Y010705D01*
X008796Y011405D02*
X008796Y009705D01*
X008696Y009605D01*
X008296Y009605D01*
X007796Y009305D02*
X007796Y010205D01*
X008296Y010705D01*
X007296Y009605D02*
X007296Y009105D01*
X007596Y008805D01*
X007596Y008205D01*
X007796Y008005D01*
X007696Y007405D02*
X007794Y007307D01*
X008206Y007307D01*
X008206Y008895D01*
X007796Y009305D01*
X008696Y008405D02*
X008794Y008307D01*
X008794Y007895D01*
X009096Y007908D02*
X009109Y007895D01*
X009096Y007908D02*
X009096Y008805D01*
X010684Y008692D02*
X010684Y007895D01*
X010684Y008692D02*
X010896Y008905D01*
X013396Y008905D01*
X013496Y009005D01*
X015996Y010505D02*
X015996Y010905D01*
X016096Y011005D01*
X004596Y008805D02*
X004196Y008405D01*
X003896Y008405D01*
X003496Y008005D01*
X004096Y008105D02*
X004296Y008205D01*
X004596Y008205D01*
X004596Y007605D02*
X004396Y007405D01*
X004078Y007405D01*
D31*
X003615Y007005D02*
X003496Y007124D01*
X003615Y007005D02*
X004596Y007005D01*
X003496Y007911D02*
X003496Y007975D01*
X006296Y009605D02*
X006596Y009305D01*
X006596Y008105D01*
X006696Y008005D01*
X007196Y008005D01*
X007296Y007905D01*
X007296Y006705D01*
X007324Y006677D01*
X010996Y006705D02*
X010996Y006205D01*
X011154Y006048D01*
X011586Y006048D01*
X011586Y006677D02*
X011024Y006677D01*
X010996Y006705D01*
X012496Y006605D02*
X012596Y006705D01*
X013196Y006705D01*
X012896Y001205D02*
X014796Y001205D01*
X014996Y001005D01*
X012896Y001205D02*
X012396Y000705D01*
M02*
